<svg width="26.7923" height="26" overflow="visible" style="display: block;" viewBox="0 0 26.7923 26" fill="none" xmlns="http://www.w3.org/2000/svg">
<g id="kubernetes-horizontal-white">
<path id="Vector" d="M15.9356 14.9353C15.8984 14.9279 15.8605 14.925 15.8226 14.9267C15.7572 14.9301 15.6932 14.9468 15.6343 14.9756C15.5201 15.0307 15.4316 15.1277 15.3872 15.2465C15.3428 15.3653 15.346 15.4966 15.396 15.6131L15.3926 15.618L16.5194 18.3402C17.5974 17.6522 18.4154 16.6245 18.844 15.4197L15.9405 14.9296L15.9356 14.9353ZM11.4177 15.3208C11.3933 15.2135 11.3335 15.1175 11.248 15.0482C11.1626 14.9789 11.0563 14.9402 10.9463 14.9385C10.9138 14.9381 10.8813 14.941 10.8494 14.9471L10.8445 14.9411L7.96626 15.4297C8.3985 16.625 9.21311 17.6442 10.2837 18.3293L11.399 15.6341L11.3904 15.6235C11.4316 15.5281 11.4411 15.422 11.4177 15.3208ZM13.8283 16.3777C13.7862 16.2994 13.7237 16.2339 13.6473 16.1883C13.571 16.1427 13.4837 16.1186 13.3947 16.1187C13.3058 16.1189 13.2186 16.1431 13.1423 16.1889C13.0661 16.2348 13.0037 16.3004 12.9619 16.3789H12.9596L11.5442 18.9384C12.5576 19.2834 13.6471 19.3394 14.6906 19.1002C14.8842 19.0561 15.0732 19.0033 15.2578 18.9418L13.8389 16.3777H13.8283ZM18.3091 10.4327L16.1313 12.3816L16.1325 12.3879C16.0656 12.4464 16.0158 12.5219 15.9883 12.6064C15.9609 12.6909 15.9569 12.7813 15.9766 12.8679C15.9964 12.9545 16.0393 13.0342 16.1007 13.0984C16.1621 13.1627 16.2397 13.2091 16.3254 13.2327L16.3279 13.2442L19.149 14.0571C19.271 12.7897 18.9761 11.5173 18.3091 10.4327ZM14.2632 10.6508C14.2673 10.7396 14.2953 10.8256 14.3444 10.8998C14.3934 10.9739 14.4617 11.0333 14.5418 11.0718C14.6219 11.1103 14.7109 11.1263 14.7994 11.1182C14.888 11.1102 14.9726 11.0783 15.0445 11.026L15.0531 11.0297L17.4361 9.34006C16.529 8.45148 15.3551 7.8855 14.095 7.72918L14.2606 10.6497L14.2632 10.6508ZM11.7396 11.0369C11.8115 11.0892 11.8962 11.1209 11.9848 11.1289C12.0733 11.1368 12.1623 11.1206 12.2424 11.082C12.3224 11.0434 12.3905 10.9837 12.4393 10.9095C12.4882 10.8352 12.516 10.7491 12.5198 10.6603L12.5319 10.6546L12.6974 7.72947C12.4976 7.75341 12.2991 7.78757 12.1027 7.8318C11.0582 8.06661 10.1001 8.58872 9.33655 9.3392L11.735 11.0395L11.7396 11.0369ZM10.4611 13.2471C10.5469 13.2237 10.6248 13.1774 10.6864 13.1132C10.748 13.0489 10.791 12.9692 10.8108 12.8824C10.8307 12.7957 10.8266 12.7052 10.799 12.6205C10.7714 12.5359 10.7214 12.4604 10.6542 12.402L10.6565 12.3905L8.46672 10.4318C7.79864 11.5192 7.5119 12.7981 7.65179 14.0666L10.4588 13.2566L10.4611 13.2471ZM12.5879 14.1074L13.3957 14.4955L14.2011 14.1083L14.4012 13.2388L13.8438 12.5417H12.9467L12.3876 13.2373L12.5879 14.1074Z" fill="var(--fill-0, white)"/>
<path id="Vector_2" d="M26.7495 15.8208L24.4476 5.82232C24.3857 5.56367 24.2672 5.32199 24.1005 5.11471C23.9339 4.90742 23.7234 4.7397 23.4841 4.62365L14.1666 0.175041C13.9251 0.0598049 13.6609 0 13.3934 0C13.1258 0 12.8616 0.0598049 12.6201 0.175041L3.30466 4.62595C3.06529 4.74194 2.85466 4.90963 2.68798 5.11692C2.5213 5.32421 2.40273 5.56593 2.34083 5.82462L0.0426529 15.8228C-0.014023 16.0754 -0.0142193 16.3375 0.0420781 16.5903C0.0586924 16.6673 0.0803946 16.7432 0.107042 16.8174C0.151992 16.9439 0.211511 17.0648 0.2844 17.1775C0.31602 17.2258 0.349364 17.2724 0.385583 17.3181L6.8337 25.3351C6.86187 25.3696 6.89292 25.4018 6.92368 25.4343C7.02485 25.542 7.13909 25.6366 7.26373 25.716C7.42143 25.8152 7.59327 25.8898 7.77338 25.9373C7.92102 25.9779 8.07331 25.9989 8.22641 26H8.32673L18.5669 25.9977C18.6292 25.9974 18.6913 25.9938 18.7532 25.9868C18.8419 25.9767 18.9297 25.96 19.0159 25.9368C19.0777 25.9205 19.1387 25.901 19.1984 25.8784C19.2453 25.8613 19.2913 25.8421 19.3364 25.8209C19.4037 25.7888 19.469 25.7526 19.5319 25.7125C19.6941 25.6105 19.8386 25.4826 19.9596 25.334L20.1562 25.0896L26.4054 17.3155C26.5252 17.1653 26.6193 16.9963 26.684 16.8153C26.711 16.741 26.7331 16.6649 26.7501 16.5877C26.8065 16.3349 26.8063 16.0728 26.7495 15.8202V15.8208ZM17.0851 19.7094C17.1112 19.7863 17.1423 19.8615 17.1779 19.9345C17.121 20.0342 17.1055 20.1523 17.1348 20.2633C17.2704 20.5738 17.436 20.8704 17.6292 21.1487C17.7374 21.2909 17.8372 21.4393 17.9282 21.5931C17.9506 21.6348 17.9799 21.6991 18.0012 21.7431C18.0414 21.8102 18.0671 21.885 18.0767 21.9626C18.0863 22.0402 18.0795 22.119 18.0568 22.1938C18.0341 22.2687 17.9959 22.3379 17.9448 22.3971C17.8937 22.4563 17.8308 22.5042 17.7601 22.5376C17.6894 22.5711 17.6125 22.5893 17.5343 22.5912C17.4561 22.5931 17.3784 22.5786 17.3061 22.5487C17.2339 22.5187 17.1687 22.474 17.1148 22.4173C17.0609 22.3607 17.0194 22.2934 16.9931 22.2197C16.9718 22.176 16.9422 22.118 16.9241 22.0769C16.8604 21.9097 16.8064 21.7391 16.7623 21.5658C16.6656 21.2415 16.5375 20.9274 16.3797 20.6281C16.3111 20.5355 16.2089 20.4735 16.0951 20.4553C16.0773 20.4246 16.0112 20.3036 15.9758 20.2409C14.3172 20.869 12.4853 20.8643 10.8299 20.2277L10.7037 20.4565C10.6136 20.4704 10.5299 20.5112 10.4634 20.5735C10.2732 20.8855 10.1279 21.2228 10.0316 21.5753C9.9879 21.7486 9.93415 21.9192 9.87063 22.0863C9.85281 22.1272 9.82291 22.1847 9.80164 22.2281V22.2292L9.80078 22.2304C9.77448 22.3041 9.73302 22.3715 9.67907 22.4282C9.62512 22.4849 9.55988 22.5296 9.48757 22.5596C9.41525 22.5895 9.33746 22.604 9.25921 22.602C9.18097 22.6 9.10401 22.5816 9.0333 22.5481C8.96259 22.5145 8.8997 22.4665 8.84869 22.4072C8.79768 22.3478 8.75968 22.2784 8.73714 22.2034C8.7146 22.1285 8.70803 22.0496 8.71785 21.972C8.72766 21.8943 8.75365 21.8196 8.79412 21.7526C8.81511 21.7083 8.84328 21.6442 8.86541 21.6026C8.9564 21.4484 9.05621 21.2996 9.16436 21.157C9.36112 20.8714 9.53014 20.5676 9.66913 20.2498C9.68389 20.1421 9.66659 20.0324 9.6194 19.9345L9.72087 19.6913C8.19467 18.7906 7.05084 17.3625 6.50514 15.6765L6.26225 15.7178C6.16798 15.6509 6.05684 15.6118 5.94145 15.6049C5.60899 15.6685 5.2835 15.7643 4.96958 15.8909C4.80654 15.9643 4.63945 16.0283 4.46912 16.0826C4.42888 16.0935 4.37082 16.1048 4.32482 16.1148C4.32109 16.116 4.31792 16.1177 4.31419 16.1186L4.30556 16.1194C4.23154 16.1438 4.15325 16.1524 4.0757 16.1448C3.99816 16.1371 3.92306 16.1134 3.85522 16.075C3.78738 16.0367 3.7283 15.9846 3.68175 15.9221C3.63521 15.8596 3.60222 15.7881 3.58492 15.7121C3.56761 15.6361 3.56636 15.5574 3.58125 15.4809C3.59614 15.4044 3.62684 15.3318 3.67138 15.2679C3.71592 15.204 3.77332 15.15 3.83991 15.1096C3.90649 15.0691 3.9808 15.043 4.05807 15.0329L4.06612 15.0308L4.071 15.0294C4.11757 15.0185 4.17736 15.003 4.2199 14.9949C4.39724 14.9703 4.57585 14.9559 4.75485 14.9518C5.09255 14.9297 5.42729 14.8747 5.75432 14.7877C5.85125 14.7259 5.93316 14.6433 5.99406 14.5459L6.22747 14.4778C5.97412 12.718 6.37937 10.9267 7.36549 9.44737L7.18669 9.28813C7.18017 9.17244 7.14133 9.0609 7.07459 8.96618C6.81778 8.74542 6.54003 8.55027 6.24529 8.38352C6.08616 8.30239 5.93183 8.21217 5.78307 8.11331C5.74915 8.08802 5.7043 8.05007 5.66751 8.02018L5.65917 8.01443C5.53234 7.92331 5.44672 7.7857 5.42102 7.63166C5.39533 7.47761 5.43166 7.31966 5.52206 7.19231C5.57547 7.12693 5.64355 7.07505 5.72076 7.04089C5.79797 7.00673 5.88215 6.99125 5.96646 6.9957C6.10834 7.00179 6.24454 7.05316 6.3551 7.1423C6.39304 7.17219 6.44507 7.21186 6.4787 7.24089C6.60853 7.36367 6.73119 7.49381 6.84606 7.63068C7.07393 7.88101 7.32569 8.1085 7.59775 8.30993C7.69968 8.36355 7.81855 8.3751 7.92889 8.34212C7.9608 8.36569 8.0686 8.44273 8.13011 8.48499C9.10997 7.44351 10.3788 6.71867 11.7736 6.40355C12.1055 6.32828 12.4424 6.27641 12.7817 6.24832L12.7949 6.01261C12.8815 5.93572 12.9443 5.83569 12.976 5.7243C12.9881 5.386 12.9674 5.04731 12.9139 4.71304C12.8784 4.53786 12.853 4.36079 12.8377 4.18269C12.8363 4.14216 12.8386 4.08611 12.8391 4.03983C12.8391 4.03466 12.8377 4.02948 12.8377 4.02431C12.8297 3.94632 12.8382 3.86753 12.8626 3.79303C12.887 3.71852 12.9267 3.64996 12.9792 3.59177C13.0317 3.53357 13.0959 3.48704 13.1675 3.45518C13.2391 3.42332 13.3167 3.40684 13.395 3.4068C13.4734 3.40676 13.551 3.42316 13.6226 3.45495C13.6943 3.48673 13.7585 3.5332 13.8111 3.59134C13.8636 3.64948 13.9034 3.718 13.9279 3.79248C13.9524 3.86696 13.9609 3.94574 13.953 4.02373C13.953 4.0726 13.9559 4.13756 13.9542 4.18241C13.9389 4.36042 13.9134 4.5374 13.8777 4.71247C13.8239 5.0468 13.8027 5.38558 13.8145 5.72401C13.8365 5.83717 13.9019 5.93723 13.9967 6.00284C13.9987 6.04308 14.0053 6.17761 14.0102 6.25177C15.773 6.41206 17.4177 7.20673 18.6388 8.48815L18.8509 8.33666C18.9649 8.35621 19.0821 8.34346 19.1892 8.29987C19.4613 8.09807 19.713 7.8703 19.9409 7.61976C20.056 7.48282 20.179 7.35267 20.3092 7.22997C20.3434 7.20065 20.3951 7.16098 20.4328 7.13138C20.4887 7.07619 20.5557 7.03338 20.6292 7.00574C20.7028 6.9781 20.7814 6.96625 20.8598 6.97094C20.9383 6.97563 21.0149 6.99677 21.0846 7.03298C21.1544 7.0692 21.2157 7.11967 21.2647 7.18114C21.3137 7.2426 21.3492 7.31368 21.3689 7.38976C21.3887 7.46584 21.3922 7.54521 21.3792 7.62274C21.3663 7.70026 21.3372 7.77419 21.2938 7.83974C21.2505 7.90529 21.1938 7.96099 21.1275 8.00322C21.0902 8.0334 21.0407 8.07565 21.0048 8.10239C20.8557 8.20132 20.701 8.29154 20.5414 8.37259C20.2467 8.53944 19.969 8.73459 19.7121 8.95526C19.6373 9.04285 19.5998 9.15624 19.6075 9.27117C19.5764 9.29962 19.4675 9.39621 19.4097 9.44852C20.3986 10.9225 20.8119 12.7083 20.5713 14.4669L20.7964 14.5324C20.8527 14.6338 20.9359 14.7176 21.037 14.7744C21.3641 14.8616 21.6989 14.9166 22.0367 14.9389C22.2156 14.943 22.3941 14.9573 22.5714 14.9817C22.6183 14.9903 22.6861 15.009 22.7338 15.0199C22.811 15.0301 22.8852 15.0564 22.9517 15.0969C23.0182 15.1374 23.0755 15.1914 23.1199 15.2554C23.1643 15.3193 23.1949 15.3918 23.2098 15.4683C23.2246 15.5447 23.2233 15.6234 23.2059 15.6993C23.1886 15.7752 23.1556 15.8467 23.1091 15.9091C23.0626 15.9716 23.0035 16.0236 22.9358 16.0619C22.868 16.1003 22.7929 16.124 22.7154 16.1317C22.638 16.1394 22.5597 16.1308 22.4857 16.1065L22.4777 16.1053C22.474 16.1045 22.4705 16.1025 22.4668 16.1016C22.4208 16.0915 22.363 16.0815 22.3228 16.0708C22.1525 16.0161 21.9855 15.9516 21.8226 15.8777C21.5084 15.751 21.1826 15.6552 20.8499 15.5917C20.7347 15.588 20.6226 15.6296 20.5377 15.7075C20.4585 15.6922 20.3791 15.6783 20.2994 15.6658C19.7602 17.3623 18.6163 18.8014 17.0851 19.7094Z" fill="var(--fill-0, white)"/>
</g>
</svg>
