<svg width="81" height="25.6139" overflow="visible" style="display: block;" viewBox="0 0 81 25.6139" fill="none" xmlns="http://www.w3.org/2000/svg">
<g id="Group">
<path id="Vector" fill-rule="evenodd" clip-rule="evenodd" d="M71.7478 13.3009C71.7478 10.4431 73.8426 8.78496 76.4612 8.78496C78.4164 8.78496 80.1621 9.73758 81 12.1014C80.7556 13.3009 79.2892 14.6416 78.6608 14.8533C78.1371 13.7243 77.5435 13.0539 76.9849 13.0539C76.2867 13.0539 76.2517 13.5479 76.2517 14.1829C76.2517 14.6327 76.3792 15.2951 76.5325 16.0923C76.7641 17.2963 77.0547 18.8075 77.0547 20.3571C77.0547 23.1796 75.0996 25.2612 72.097 25.2612C69.3475 25.2612 67.8283 23.4399 67.1504 20.5302C65.3544 23.7825 62.728 25.2612 60.7151 25.2612C57.5681 25.2612 56.8275 22.9107 56.9021 20.5266C55.6377 22.7849 53.2037 25.2612 50.8694 25.2612C48.4865 25.2612 47.6448 23.1653 47.8378 20.7244C46.4101 23.4117 43.8276 25.2612 41.3379 25.2612C38.6362 25.2612 37.2991 23.0924 37.7318 20.4042C35.9143 22.6617 32.5309 25.2612 29.0133 25.2612C25.0026 25.2612 23.2568 23.0757 23.0499 20.3371C21.1141 23.4722 18.5049 25.367 15.397 25.367C10.9105 25.367 9.30582 21.3355 9.0723 18.0377C7.40957 20.2878 5.54018 22.6222 3.24699 25.2259C3.00258 25.4729 2.7931 25.6139 2.54871 25.6139C1.74569 25.6139 0.104742 22.0154 0 20.6746C0.689071 19.5942 5.03266 14.7717 8.52971 10.8891C9.75898 9.52434 10.8836 8.2757 11.7081 7.34654C9.56648 7.99958 7.35832 9.30198 4.57371 11.3252C4.08492 11.678 2.72328 8.46743 2.75819 5.99777C5.97026 3.59866 10.8582 2.08158 14.8035 2.08158C20.3199 2.08158 23.497 5.18631 23.497 9.49058C23.497 13.0893 20.5293 17.0407 16.2 17.1819C13.9489 17.2409 12.5061 15.964 11.7683 14.3871C11.8564 16.8259 13.1112 19.8279 16.4793 19.8279C20.1511 19.8279 21.9143 17.5881 24.5439 14.2478C24.7147 14.0308 24.8892 13.8092 25.0681 13.5832C27.3026 10.796 29.8862 8.32631 33.6569 8.32631C35.9612 8.32631 37.5324 9.77282 37.5324 11.9603C37.5324 14.6063 34.4599 18.2755 30.1655 18.2755C29.4321 18.2755 28.7635 18.1779 28.1991 17.9849C28.185 18.0961 28.1754 18.2056 28.1754 18.3108C28.1754 19.5456 28.6293 20.2865 30.6194 20.2865C33.5522 20.2865 36.3103 18.5225 39.6621 14.3947C42.944 10.3373 45.4228 8.57328 48.0414 8.57328C49.809 8.57328 51.1505 9.54135 51.7418 11.1717C55.2511 6.04984 58.2283 2.42077 60.75 0C63.2289 1.05843 65.0095 3.14001 64.5207 3.56338C62.6703 5.25686 56.4905 12.0661 54.0465 16.1234C53.4181 17.1819 52.8246 18.3461 52.8246 18.9106C52.8246 19.4398 53.1388 19.6162 53.4879 19.6162C55.1656 19.6162 58.5274 15.6142 61.4309 12.1577C62.5154 10.8666 63.536 9.65159 64.381 8.74968C66.3362 9.56114 68.3263 11.2899 67.8375 11.8897C65.2539 14.9944 63.2987 17.5347 63.2987 18.9812C63.2987 19.3692 63.4383 19.6162 63.9621 19.6162C64.9397 19.6162 65.8474 18.7342 67.3487 16.8643C67.6629 16.4762 68.047 16.4762 68.2914 17.076C68.9547 18.6989 69.9324 19.581 70.7004 19.581C71.6082 19.581 72.0621 18.7695 72.0621 17.5347C72.0621 16.6907 71.9601 15.7096 71.8724 14.8648C71.8061 14.2261 71.7478 13.6654 71.7478 13.3009ZM15.4319 12.8423C17.2824 12.8423 19.3074 11.8191 19.3074 9.73758C19.3074 8.4743 18.5315 7.3097 16.4581 6.95507C16.3487 7.12777 16.24 7.29942 16.1321 7.47008C15.0785 9.13447 14.0849 10.7043 13.0821 12.2388C13.6829 12.5798 14.4428 12.8423 15.4319 12.8423ZM34.1457 13.4773C34.1457 12.9129 33.7965 12.5248 33.2379 12.5248C31.8372 12.5248 29.7244 14.5112 28.7302 16.4294C29.0972 16.5727 29.528 16.6526 29.991 16.6526C32.4699 16.6526 34.1457 14.7475 34.1457 13.4773ZM43.328 18.5931C43.328 19.2282 43.6771 19.6515 44.4103 19.6515C46.6797 19.6515 49.5078 15.4884 49.5078 13.7948C49.5078 13.0893 49.1237 12.6659 48.4953 12.6659C46.4354 12.6659 43.328 16.6174 43.328 18.5931ZM72.4806 5.85681C71.6776 7.19748 70.4556 8.71456 70.0017 9.17321C67.9069 8.29119 65.9517 6.52715 66.231 6.0332C66.9991 4.65725 68.256 3.17545 68.7099 2.7168C70.8047 3.59882 72.7599 5.39815 72.4806 5.85681Z" fill="var(--fill-0, white)"/>
</g>
</svg>
