<svg width="58.8708" height="34.0001" overflow="visible" style="display: block;" viewBox="0 0 58.8708 34.0001" fill="none" xmlns="http://www.w3.org/2000/svg">
<g id="Group 26">
<g id="cup">
<path id="Vector" fill-rule="evenodd" clip-rule="evenodd" d="M8.07577 26.2935C8.07577 26.2935 6.77723 27.0491 9.00088 27.3044C11.6955 27.6121 13.0719 27.5678 16.0405 27.0062C16.0405 27.0062 16.822 27.4956 17.913 27.9189C11.2564 30.7712 2.84805 27.7539 8.07577 26.2935ZM7.26206 22.5714C7.26206 22.5714 5.8053 23.6496 8.03092 23.8798C10.9095 24.1771 13.1816 24.2013 17.1159 23.4443C17.1159 23.4443 17.6591 23.9957 18.514 24.2969C10.4669 26.6506 1.50466 24.4822 7.26206 22.5714Z" fill="var(--fill-0, white)"/>
<path id="Vector_2" fill-rule="evenodd" clip-rule="evenodd" d="M14.1192 16.2565C15.7601 18.1454 13.6891 19.8441 13.6891 19.8441C13.6891 19.8441 17.8538 17.6947 15.9409 15.002C14.155 12.4921 12.7851 11.2452 20.2004 6.94516C20.2004 6.94516 8.56037 9.85105 14.1192 16.2565Z" fill="var(--fill-0, white)"/>
<path id="Vector_3" fill-rule="evenodd" clip-rule="evenodd" d="M22.9217 29.0464C22.9217 29.0464 23.8829 29.839 21.8629 30.4519C18.0217 31.6153 5.87255 31.9662 2.49787 30.4981C1.28563 29.9701 3.56005 29.2382 4.2756 29.0837C5.0219 28.9223 5.44778 28.9517 5.44778 28.9517C4.09876 28.0018 -3.27194 30.8174 1.70447 31.6252C15.2743 33.8254 26.441 30.6346 22.9217 29.0464ZM8.70005 18.7141C8.70005 18.7141 2.521 20.1821 6.51223 20.7157C8.19801 20.9411 11.5561 20.8892 14.6865 20.6266C17.2441 20.412 19.8113 19.9528 19.8113 19.9528C19.8113 19.9528 18.9101 20.3395 18.2572 20.7845C11.9814 22.4353 -0.140389 21.6665 3.34965 19.979C6.30041 18.5516 8.70005 18.7141 8.70005 18.7141ZM19.7856 24.9097C26.1646 21.5957 23.2153 18.4103 21.156 18.8396C20.6526 18.9448 20.4267 19.0356 20.4267 19.0356C20.4267 19.0356 20.6145 18.7417 20.9716 18.6154C25.0446 17.184 28.1764 22.8381 19.6584 25.0772C19.6581 25.0772 19.7563 24.9887 19.7856 24.9097Z" fill="var(--fill-0, white)"/>
<path id="Vector_4" fill-rule="evenodd" clip-rule="evenodd" d="M15.9383 0C15.9383 0 19.4703 3.53429 12.5873 8.96729C7.06737 13.3271 11.3288 15.8122 12.5856 18.6527C9.36294 15.7456 6.99912 13.1861 8.58478 10.8045C10.9128 7.30859 17.3635 5.61323 15.9383 0Z" fill="var(--fill-0, white)"/>
<path id="Vector_5" fill-rule="evenodd" clip-rule="evenodd" d="M9.32672 33.8934C15.4488 34.2849 24.8519 33.6759 25.075 30.7785C25.075 30.7785 24.6469 31.8768 20.0148 32.748C14.7888 33.7318 8.3421 33.6173 4.51981 32.9864C4.51981 32.9864 5.30305 33.6345 9.32672 33.8934Z" fill="var(--fill-0, white)"/>
</g>
<path id="Vector_6" fill-rule="evenodd" clip-rule="evenodd" d="M57.7485 18.0005H57.5624V17.8962H58.0647V18.0005H57.8786V18.5217H57.7485V18.0005ZM58.7509 18.0265H58.7487L58.5637 18.5214H58.4788L58.2949 18.0265H58.2926V18.5214H58.1691V17.8959H58.3504L58.5208 18.3384L58.6911 17.8959H58.8708V18.5214H58.7512L58.7509 18.0265ZM41.2799 23.8741C40.7025 24.3744 40.0922 24.6559 39.5442 24.6559C38.7635 24.6559 38.3398 24.1869 38.3398 23.4363C38.3398 22.6238 38.7934 22.0292 40.6086 22.0292H41.2796L41.2799 23.8741ZM42.8734 25.6718V20.1065C42.8734 18.6842 42.0623 17.7455 40.1069 17.7455C38.966 17.7455 37.9658 18.0273 37.1527 18.3864L37.3868 19.3721C38.0273 19.1369 38.8554 18.9189 39.6683 18.9189C40.7948 18.9189 41.2796 19.3721 41.2796 20.3105V21.0142H40.7166C37.9802 21.0142 36.7454 22.0758 36.7454 23.6718C36.7454 25.0471 37.5591 25.8289 39.0909 25.8289C40.0756 25.8289 40.8111 25.4225 41.4979 24.8277L41.6229 25.6718H42.8734ZM48.192 25.6718H46.205L43.8124 17.8871H45.5481L47.0331 22.6709L47.3636 24.1082C48.1127 22.0292 48.6444 19.9187 48.9104 17.8871H50.5981C50.1463 20.4503 49.3323 23.2646 48.192 25.6718ZM55.8177 23.8741C55.2386 24.3744 54.6283 24.6559 54.0814 24.6559C53.3007 24.6559 52.8776 24.1869 52.8776 23.4363C52.8776 22.6238 53.3314 22.0292 55.1455 22.0292H55.8177V23.8741ZM57.4118 25.6718V20.1065C57.4118 18.6842 56.5981 17.7455 54.6446 17.7455C53.5026 17.7455 52.5028 18.0273 51.6896 18.3864L51.9237 19.3721C52.5643 19.1369 53.394 18.9189 54.2072 18.9189C55.332 18.9189 55.8174 19.3721 55.8174 20.3105V21.0142H55.2544C52.5177 21.0142 51.2838 22.0758 51.2838 23.6718C51.2838 25.0471 52.0958 25.8289 53.6279 25.8289C54.6133 25.8289 55.3478 25.4225 56.0362 24.8277L56.1618 25.6718H57.4118ZM34.9982 26.9946C34.5441 27.6582 33.8096 28.1837 33.0066 28.4801L32.2197 27.5533C32.8315 27.2394 33.3555 26.7326 33.5995 26.261C33.8096 25.8408 33.8973 25.3004 33.8973 24.0069V15.1183H35.591V23.8842C35.591 25.6143 35.4528 26.3135 34.9982 26.9946Z" fill="var(--fill-0, white)"/>
</g>
</svg>
