<svg width="60.9228" height="23.9186" overflow="visible" style="display: block;" viewBox="0 0 60.9228 23.9186" fill="none" xmlns="http://www.w3.org/2000/svg">
<g id="Group">
<path id="Vector" d="M25.244 23.9178V7.47323H20.3308C20.3142 7.47323 20.2968 7.47323 20.2786 7.47406C19.3955 7.50479 18.6859 8.23144 18.6776 9.11502V9.12914V22.2893C18.6776 22.3167 18.6793 22.3474 18.6818 22.3815C18.7565 23.2285 19.4652 23.8779 20.3142 23.9145C20.3499 23.9161 20.384 23.917 20.4155 23.917H25.244V23.9178Z" fill="var(--fill-0, white)"/>
<path id="Vector_2" d="M45.4977 23.9095C46.4131 23.8406 47.1376 23.0865 47.1443 22.1672C47.1443 22.1614 47.1443 22.1556 47.1443 22.1498V9.14824C47.1443 9.14325 47.1443 9.13744 47.1443 9.13246C47.1401 8.22394 46.4015 7.48318 45.4936 7.47405C45.4869 7.47405 45.4803 7.47405 45.4736 7.47405H40.5779V23.9186H45.2927C45.3566 23.9186 45.4255 23.9153 45.4977 23.9103V23.9095Z" fill="var(--fill-0, white)"/>
<path id="Vector_3" d="M24.3228 7.47405H29.4684C29.973 7.47405 30.6867 7.88263 31.0635 8.38754L41.9746 23.0035C42.3514 23.5084 42.2477 23.917 41.7439 23.917H36.5983C36.0937 23.917 35.38 23.5084 35.0032 23.0035L24.0913 8.38754C23.7145 7.88346 23.8182 7.47405 24.322 7.47405H24.3228Z" fill="var(--fill-0, white)"/>
<path id="Vector_4" d="M41.3364 7.47405H36.1908C35.6862 7.47405 34.9725 7.88263 34.5957 8.38754L23.6846 23.0035C23.3078 23.5084 23.4116 23.917 23.9153 23.917H29.0609C29.5655 23.917 30.2792 23.5084 30.656 23.0035L41.5671 8.38754C41.9439 7.88346 41.8402 7.47405 41.3364 7.47405Z" fill="var(--fill-0, white)"/>
<path id="Vector_5" d="M43.9092 0C45.6504 0 47.063 1.4126 47.063 3.15571C47.063 4.89882 45.6512 6.31142 43.9092 6.31142C42.1672 6.31142 40.7555 4.89882 40.7555 3.15571C40.7555 1.4126 42.1672 0 43.9092 0Z" fill="var(--fill-0, white)"/>
<path id="Vector_6" d="M21.999 0C23.7402 0 25.1527 1.4126 25.1527 3.15571C25.1527 4.89882 23.741 6.31142 21.999 6.31142C20.257 6.31142 18.8453 4.89882 18.8453 3.15571C18.8453 1.4126 20.257 0 21.999 0Z" fill="var(--fill-0, white)"/>
<path id="Vector_7" d="M57.6861 0H52.7065C50.9188 0 49.4698 1.44997 49.4698 3.23875V8.22145C49.4698 10.0102 50.9188 11.4602 52.7065 11.4602H57.6861C59.4738 11.4602 60.9228 10.0102 60.9228 8.22145V3.23875C60.9228 1.44997 59.4738 0 57.6861 0ZM54.3971 3.26699V6.63031C54.3971 7.08374 54.3066 7.47737 54.1257 7.81038C53.9447 8.14339 53.6866 8.40166 53.3514 8.58519C53.0161 8.76872 52.6185 8.8609 52.1596 8.8609C51.7695 8.8609 51.4325 8.79031 51.1479 8.64997C50.8632 8.50962 50.6242 8.3128 50.4292 8.06035C50.4292 8.06035 49.8856 7.47322 50.3835 7.05882C50.8923 6.63529 51.333 7.19003 51.333 7.19003C51.4359 7.3337 51.5579 7.44166 51.699 7.51308C51.8392 7.58533 51.9986 7.62104 52.177 7.62104C52.343 7.62104 52.4899 7.58699 52.616 7.51806C52.7422 7.44913 52.8426 7.34616 52.9173 7.2083C52.992 7.07045 53.0293 6.90104 53.0293 6.70007V3.26782C53.0293 3.26782 53.0161 2.57522 53.7032 2.57522C54.3904 2.57522 54.3979 3.26782 54.3979 3.26782L54.3971 3.26699ZM59.2862 8.16997C58.9102 8.54201 58.3567 8.76623 57.6263 8.84263C57.1242 8.89578 56.686 8.8609 56.3125 8.73882C55.9391 8.61675 55.5897 8.40498 55.2635 8.10436C55.2635 8.10436 54.7589 7.6692 55.1656 7.12277C55.471 6.7117 56.0453 7.13855 56.0453 7.13855C56.2627 7.34118 56.496 7.49066 56.7458 7.58865C56.9956 7.68664 57.2769 7.71903 57.5915 7.68581C57.8712 7.65675 58.0836 7.58035 58.2297 7.45827C58.3758 7.33619 58.4388 7.18339 58.4197 7.00069C58.4031 6.84125 58.3392 6.71502 58.2289 6.62284C58.1185 6.53066 57.9732 6.45675 57.794 6.40028C57.6147 6.34381 57.4222 6.29398 57.2155 6.24914C57.0089 6.20429 56.7997 6.14699 56.5873 6.07723C56.3748 6.00747 56.1781 5.91529 55.9955 5.80152C55.8129 5.68775 55.6602 5.53412 55.5357 5.33896C55.4112 5.14381 55.3332 4.8955 55.3017 4.59322C55.2619 4.21619 55.3183 3.88401 55.4693 3.59668C55.6212 3.30934 55.8519 3.07848 56.1623 2.90408C56.4727 2.72969 56.8337 2.6209 57.2446 2.57772C57.6728 2.53287 58.0687 2.56609 58.4322 2.67737C58.7957 2.78948 59.1053 2.95889 59.3601 3.18561C59.3601 3.18561 59.7169 3.4854 59.4273 4.00111C59.2024 4.40221 58.5708 4.16138 58.5708 4.16138C58.3683 3.99197 58.1691 3.87156 57.9749 3.80014C57.7799 3.72872 57.5682 3.70464 57.34 3.72872C57.106 3.75363 56.925 3.81758 56.7972 3.91972C56.6694 4.0227 56.6146 4.15723 56.6321 4.32249C56.6478 4.47114 56.7117 4.58657 56.8246 4.67045C56.9375 4.75349 57.0811 4.82076 57.257 4.87142C57.4321 4.92208 57.6255 4.97107 57.8346 5.01841C58.0446 5.06574 58.2554 5.12305 58.467 5.19031C58.6787 5.25758 58.8754 5.35391 59.0555 5.47931C59.2356 5.60471 59.3899 5.76747 59.5177 5.96761C59.6456 6.16775 59.7261 6.42768 59.7601 6.7474C59.8207 7.32457 59.663 7.79875 59.2862 8.16997Z" fill="var(--fill-0, white)"/>
<path id="Vector_8" d="M8.89438 0.0415225C3.98201 0.0415225 0 4.02205 0 8.93257C0 9.02882 0.00165986 9.12423 0.00497959 9.21965V17.7639V17.7656V18.6342C0.00497959 18.6342 0.00497959 18.6342 0.00580952 18.6334V20.7813C0.00580952 20.7979 0.00497959 20.8136 0.00497959 20.8303C0.00497959 20.8468 0.00580952 20.8634 0.00663946 20.88V20.9198H0.00746939C0.0547755 22.57 1.40673 23.8932 3.06909 23.8932C4.73144 23.8932 6.09751 22.57 6.14482 20.9198V17.7656H8.68607C8.75495 17.7672 8.82467 17.7681 8.89355 17.7681C13.8059 17.7681 17.7879 13.8431 17.7879 8.93257C17.7879 4.02205 13.8067 0.0415225 8.89438 0.0415225ZM8.89438 11.6289C8.35078 11.6289 6.97309 11.6289 6.40126 11.6289H6.14731V8.9334C6.14731 7.42268 7.38307 6.19732 8.89438 6.19732C10.4057 6.19732 11.6315 7.42268 11.6315 8.9334C11.6315 10.4442 10.4057 11.6297 8.89438 11.6297V11.6289Z" fill="var(--fill-0, white)"/>
</g>
</svg>
