<svg width="25.7835" height="26" overflow="visible" style="display: block;" viewBox="0 0 25.7835 26" fill="none" xmlns="http://www.w3.org/2000/svg">
<g id="Group">
<path id="Subtract" d="M17.7178 0C18.0254 0 18.3338 0.000204252 18.6416 0.00195312C18.9009 0.00357255 19.1605 0.00658313 19.4199 0.0136719C19.9851 0.0290816 20.5553 0.0625422 21.1143 0.164062C21.681 0.266762 22.2088 0.434018 22.7236 0.698242C23.23 0.958106 23.6932 1.29809 24.0947 1.70312C24.4964 2.10814 24.8333 2.57557 25.0908 3.08594C25.353 3.60541 25.5193 4.13716 25.6211 4.70898C25.7215 5.27236 25.7554 5.84753 25.7705 6.41699C25.7777 6.67863 25.7807 6.93984 25.7822 7.20117C25.7842 7.51161 25.7832 7.82242 25.7832 8.13281V17.8672C25.7832 18.1778 25.7832 18.4882 25.7813 18.7988C25.7797 19.0603 25.7776 19.3217 25.7705 19.583C25.7554 20.1526 25.7214 20.7271 25.6211 21.29C25.5193 21.8619 25.3531 22.3946 25.0908 22.9141C24.8333 23.4246 24.4964 23.892 24.0947 24.2969C23.6932 24.7021 23.23 25.0418 22.7236 25.3018C22.2087 25.566 21.681 25.7332 21.1143 25.8359C20.5553 25.9373 19.9851 25.9711 19.4199 25.9863C19.1605 25.9933 18.901 25.9966 18.6416 25.998C18.3339 26.0003 18.0255 26 17.7178 26H8.06543C7.75733 26 7.4494 26.0003 7.1416 25.998C6.88218 25.9966 6.62232 25.9933 6.36328 25.9863C5.79844 25.9711 5.22838 25.9373 4.66992 25.8359C4.10311 25.7333 3.57541 25.566 3.06055 25.3018C2.55426 25.0418 2.09083 24.7019 1.68945 24.2969C1.28771 23.892 0.950931 23.4246 0.693359 22.9141C0.431003 22.3945 0.264036 21.862 0.162109 21.29C0.06185 20.7271 0.0288661 20.1526 0.013672 19.583C0.00655444 19.3217 0.00364664 19.0602 0.00195323 18.7988C-4.28061e-05 18.4882 -1.87988e-07 18.1778 1.07556e-07 17.8672V8.13281C-2.30704e-08 7.82242 1.24327e-07 7.51165 0.00195323 7.20117C0.00364621 6.93984 0.00655831 6.67863 0.013672 6.41699C0.0288666 5.84753 0.0618247 5.27236 0.162109 4.70898C0.264036 4.13704 0.431069 3.60552 0.693359 3.08594C0.950931 2.57553 1.28771 2.10816 1.68945 1.70312C1.78964 1.60206 1.89339 1.5048 2.00098 1.41211C2.32436 1.1336 2.68077 0.89314 3.06055 0.698242C3.18914 0.632288 3.31868 0.571963 3.44922 0.517578C3.84133 0.354127 4.24487 0.241094 4.66992 0.164062C5.08886 0.0879673 5.51462 0.0499553 5.93945 0.0292969C6.08089 0.0224374 6.22224 0.0175201 6.36328 0.0136719C6.62233 0.00658102 6.88216 0.00357307 7.1416 0.00195312C7.4494 0.000158243 7.75733 0 8.06543 0H17.7178ZM14.5508 3.69238C16.4875 6.33992 17.3437 9.54715 16.583 12.3516C16.5152 12.6017 16.4329 12.8419 16.3428 13.0752C16.245 13.0104 16.1214 12.9367 15.9561 12.8447C15.9121 12.8173 11.5359 10.0828 6.79492 5.26562C6.67345 5.14372 9.3377 9.11074 12.3613 12.332C10.9359 11.5253 6.96309 8.61011 4.44824 6.28906C4.75721 6.80866 5.12534 7.30933 5.5293 7.79102C7.6294 10.4767 10.3682 13.7904 13.6494 16.335C11.344 17.7576 8.08616 17.8686 4.84277 16.3369C4.04054 15.9578 3.28602 15.5002 2.58789 14.9805C3.96084 17.1949 6.07585 19.1053 8.64941 20.2207C11.7185 21.5507 14.7709 21.4602 17.0439 20.2422L17.042 20.2451C17.0523 20.2385 17.0655 20.2313 17.0762 20.2246C17.1694 20.1741 17.262 20.1227 17.3525 20.0684C18.4447 19.4967 20.6019 18.9167 21.7598 21.1885C22.0434 21.7439 22.6458 18.7973 20.4307 16.0488L20.4287 16.0469C20.4572 15.9492 20.4868 15.8521 20.5117 15.752C21.5819 11.4526 18.9704 6.36874 14.5508 3.69238Z" fill="var(--fill-0, white)"/>
</g>
</svg>
