<svg width="26" height="26" overflow="visible" style="display: block;" viewBox="0 0 26 26" fill="none" xmlns="http://www.w3.org/2000/svg">
<g id="Typescript_logo_2020 1" clip-path="url(#clip0_0_66)">
<path id="Subtract" d="M23.4609 0C24.8632 0 26 1.13678 26 2.53906V23.4609C26 24.8632 24.8632 26 23.4609 26H2.53906C1.13678 26 0 24.8632 0 23.4609V2.53906C0 1.13678 1.13678 0 2.53906 0H23.4609ZM20.5215 12.0859C19.9175 12.0859 19.3451 12.1505 18.8047 12.2803C18.2643 12.41 17.7886 12.6133 17.3779 12.8887C16.9674 13.1641 16.6427 13.5151 16.4043 13.9414C16.1661 14.3675 16.0469 14.8769 16.0469 15.4697C16.0469 16.2269 16.2653 16.8734 16.7021 17.4082C17.1392 17.943 17.8033 18.3959 18.6934 18.7666C19.043 18.9096 19.3689 19.0508 19.6709 19.1885C19.9728 19.3262 20.2343 19.4689 20.4541 19.6172C20.6738 19.7654 20.8475 19.9269 20.9746 20.1016C21.1017 20.2762 21.165 20.4749 21.165 20.6973C21.165 20.8614 21.1254 21.0139 21.0459 21.1543C20.9665 21.2946 20.846 21.4163 20.6846 21.5195C20.523 21.6228 20.3211 21.7035 20.0801 21.7617C19.839 21.82 19.5566 21.8496 19.2334 21.8496C18.6825 21.8496 18.137 21.7528 17.5967 21.5596C17.0563 21.3663 16.5556 21.0761 16.0947 20.6895V23.2314C16.5079 23.4432 16.9964 23.6021 17.5605 23.708C18.1247 23.8139 18.7196 23.8672 19.3447 23.8672C19.9541 23.8672 20.5336 23.8089 21.082 23.6924C21.6302 23.5759 22.1113 23.3836 22.5244 23.1162C22.9375 22.8488 23.2649 22.4989 23.5059 22.0674C23.7468 21.6358 23.8672 21.1021 23.8672 20.4668C23.8672 20.0062 23.7979 19.6027 23.6602 19.2559C23.5224 18.909 23.3241 18.6002 23.0645 18.3301C22.8049 18.0601 22.4937 17.818 22.1309 17.6035C21.7679 17.389 21.358 17.1857 20.9023 16.9951C20.5689 16.8575 20.2696 16.7244 20.0049 16.5947C19.74 16.4649 19.5145 16.3323 19.3291 16.1973C19.1439 16.0623 19.001 15.9193 18.9004 15.7686C18.7998 15.6176 18.7491 15.4465 18.749 15.2559C18.749 15.0813 18.7938 14.9235 18.8838 14.7832C18.9739 14.6429 19.1015 14.5225 19.2656 14.4219C19.4298 14.3213 19.6309 14.2431 19.8691 14.1875C20.1075 14.1319 20.3727 14.1035 20.6641 14.1035C20.876 14.1035 21.1002 14.1196 21.3359 14.1514C21.5716 14.1831 21.8085 14.2327 22.0469 14.2988C22.2852 14.365 22.5171 14.4483 22.7422 14.5488C22.9673 14.6495 23.1755 14.766 23.3662 14.8984V12.5225C22.9796 12.3743 22.5568 12.2648 22.0986 12.1934C21.6404 12.1219 21.1147 12.0859 20.5215 12.0859ZM5.99219 14.4258H9.2373V23.7148H11.8213V14.4258H15.082V12.3398H5.99219V14.4258Z" fill="var(--fill-0, white)"/>
</g>
<defs>
<clipPath id="clip0_0_66">
<rect width="26" height="26" fill="white"/>
</clipPath>
</defs>
</svg>
