<svg width="26" height="26" overflow="visible" style="display: block;" viewBox="0 0 26 26" fill="none" xmlns="http://www.w3.org/2000/svg">
<g id="Python-logo-notext 1" clip-path="url(#clip0_0_104)">
<path id="Vector" d="M12.9558 4.17233e-10C6.8172 4.17233e-10 6.75125 2.38278 6.75125 2.87324C6.75125 3.61731 6.75125 5.85 6.75125 5.85H13.074V6.74369C13.074 6.74369 6.49078 6.74369 4.23989 6.74369C2.36104 6.74369 -6.55651e-09 7.88604 -6.55651e-09 12.9482C-6.55651e-09 17.5982 1.84175 19.3965 3.70051 19.3965C4.25242 19.3965 5.90909 19.3965 5.90909 19.3965C5.90909 19.3965 5.90909 17.0884 5.90909 16.2942C5.90909 14.9963 6.55224 12.5937 9.55051 12.5937C13.3111 12.5937 14.2709 12.5937 15.8215 12.5937C16.7438 12.5937 19.3447 12.1928 19.3447 9.18864C19.3447 6.00907 19.3447 4.96009 19.3447 3.46415C19.3449 2.71889 19.2175 4.17233e-10 12.9558 4.17233e-10ZM9.46944 2.00176C10.0986 2.00176 10.6071 2.50995 10.6071 3.13938C10.6071 3.76835 10.0986 4.277 9.46944 4.277C8.84024 4.277 8.33182 3.76858 8.33182 3.13938C8.33182 2.50995 8.84024 2.00176 9.46944 2.00176Z" fill="var(--fill-0, white)"/>
<path id="Vector_2" d="M13.0442 26C19.18 26 19.2563 23.5723 19.2563 23.1268C19.2563 22.3827 19.2563 20.15 19.2563 20.15H12.926V19.2563C12.926 19.2563 19.5518 19.2563 21.7601 19.2563C23.6531 19.2563 26 18.0854 26 13.0518C26 7.53929 23.5092 6.60353 22.2995 6.60353C21.7473 6.60353 20.0909 6.60353 20.0909 6.60353C20.0909 6.60353 20.0909 9.01822 20.0909 9.7058C20.0909 11.0037 19.469 13.4063 16.4495 13.4063C12.6889 13.4063 11.8461 13.4063 10.1783 13.4063C9.25836 13.4063 6.65505 13.8545 6.65505 16.8114C6.65505 20.2327 6.65505 21.1285 6.65505 22.5359C6.65505 23.772 7.41047 26 13.0442 26ZM16.5308 23.9982C15.9016 23.9982 15.3932 23.4898 15.3932 22.8606C15.3932 22.2314 15.9014 21.723 16.5308 21.723C17.1598 21.723 17.6684 22.2314 17.6684 22.8606C17.6684 23.4898 17.1598 23.9982 16.5308 23.9982Z" fill="var(--fill-0, white)"/>
</g>
<defs>
<clipPath id="clip0_0_104">
<rect width="26" height="26" fill="white"/>
</clipPath>
</defs>
</svg>
