<svg width="49.7652" height="17.8128" overflow="visible" style="display: block;" viewBox="0 0 49.7652 17.8128" fill="none" xmlns="http://www.w3.org/2000/svg">
<g id="Group">
<path id="Vector" d="M2.33395 12.7592C2.53538 14.563 4.24144 15.7456 6.61076 15.7456C8.86192 15.7456 10.4849 14.563 10.4849 12.9266C10.4849 11.5168 9.5017 10.6563 7.23865 10.0831L5.04697 9.52167C1.8956 8.73311 0.473813 7.29935 0.473813 4.93413C0.473813 2.0192 2.9973 0 6.58723 0C10.0701 0 12.5463 2.03093 12.6293 4.95812H10.3192C10.1413 3.16608 8.6959 2.06665 6.52802 2.06665C4.3834 2.06665 2.89072 3.17782 2.89072 4.80245C2.89072 6.06876 3.81499 6.82164 6.08967 7.40708L7.91412 7.88483C11.4446 8.75714 12.8899 10.1429 12.8899 12.6398C12.8899 15.8176 10.39 17.8128 6.40928 17.8128C2.71303 17.8128 0.189543 15.8294 0 12.7593L2.33395 12.7592Z" fill="var(--fill-0, white)"/>
<path id="Vector_2" d="M27.565 17.5259H25.2427L22.5297 7.99248H22.4824L19.7812 17.5259H17.4592L14.0234 5.0413H16.2743L18.6674 15.0647H18.715L21.4161 5.0413H23.5959L26.3208 15.0647H26.3684L28.7616 5.0413H30.9887L27.565 17.5259Z" fill="var(--fill-0, white)"/>
<path id="Vector_3" d="M32.4882 1.6843C32.4882 0.931982 33.1044 0.322554 33.8508 0.322554C34.6091 0.322554 35.225 0.931982 35.225 1.6843C35.225 2.43714 34.6091 3.05835 33.8508 3.05835C33.1044 3.05835 32.4882 2.43719 32.4882 1.6843ZM32.7253 5.0413H34.9881V17.5259H32.7253V5.0413Z" fill="var(--fill-0, white)"/>
<path id="Vector_4" d="M49.7652 6.88131V5.04125H47.372V2.05488H45.1208V5.04125H43.2845H40.7954V3.94235C40.807 2.83119 41.2337 2.36517 42.2527 2.36517C42.5842 2.36517 42.916 2.40142 43.1886 2.44888V0.656839C42.7856 0.597127 42.4184 0.561404 41.992 0.561404C39.5751 0.561404 38.5562 1.57713 38.5562 3.90663V5.04125H36.8266V6.88131H38.5562V17.5259H40.8071V6.88131H43.2846H45.1209V14.2526C45.1209 16.6659 46.0333 17.5973 48.4026 17.5973C48.912 17.5973 49.4926 17.5616 49.7533 17.5019V15.6384C49.5992 15.6624 49.1489 15.6981 48.9002 15.6981C47.8459 15.6981 47.3721 15.1964 47.3721 14.0735V6.88131H49.7652Z" fill="var(--fill-0, white)"/>
</g>
</svg>
