<svg width="26.0264" height="26.0224" overflow="visible" style="display: block;" viewBox="0 0 26.0264 26.0224" fill="none" xmlns="http://www.w3.org/2000/svg">
<g id="logos">
<path id="Vector" d="M23.698 1.52246C23.3366 2.39013 22.8689 3.20947 22.3056 3.96164C21.0996 2.71266 19.6555 1.71853 18.0589 1.03807C16.4623 0.357611 14.7455 0.00463996 13.0102 4.54394e-05C11.2749 -0.00454908 9.55634 0.339326 7.95614 1.01132C6.35595 1.68332 4.90666 2.66979 3.69403 3.91236C2.4814 5.15493 1.53006 6.62835 0.896312 8.24546C0.262561 9.86256 -0.040729 11.5905 0.00438642 13.327C0.0495019 15.0635 0.442107 16.7733 1.15897 18.3552C1.87583 19.9372 2.90239 21.3591 4.17791 22.5369L4.65988 22.9658C6.48892 24.5099 8.7092 25.5172 11.0749 25.876C13.4405 26.2348 15.8592 25.9312 18.0631 24.9988C20.267 24.0664 22.1701 22.5415 23.5617 20.5931C24.9532 18.6447 25.7789 16.3488 25.9472 13.9596C26.3221 10.6895 25.3314 6.50803 23.698 1.52246ZM6.05226 22.6441C5.91459 22.8135 5.72986 22.9382 5.5214 23.0025C5.31295 23.0667 5.09014 23.0677 4.88113 23.0053C4.67212 22.9429 4.48628 22.8198 4.34712 22.6517C4.20795 22.4836 4.12169 22.2779 4.09925 22.0607C4.0768 21.8435 4.11918 21.6246 4.22102 21.4315C4.32286 21.2384 4.47959 21.0799 4.67141 20.9759C4.86323 20.872 5.08152 20.8273 5.29871 20.8475C5.51589 20.8677 5.72221 20.9519 5.8916 21.0895C6.11366 21.2777 6.25438 21.5447 6.28432 21.8344C6.31427 22.1242 6.23111 22.4143 6.05226 22.6441ZM23.6177 18.7575C20.4313 23.0194 13.5765 21.5719 9.21189 21.7864C9.21189 21.7864 8.43537 21.84 7.65885 21.9472C7.65885 21.9472 7.9534 21.8132 8.32827 21.6792C11.4076 20.607 12.8535 20.3926 14.7279 19.4276C18.2356 17.6317 21.7433 13.6915 22.4395 9.61731C21.1007 13.5307 17.0306 16.908 13.3355 18.275C10.7917 19.2132 6.21292 20.1245 6.21292 20.1245L6.02549 20.0173C2.91941 18.4895 2.8123 11.7348 8.48893 9.5637C10.9791 8.59875 13.3355 9.13483 16.0399 8.49153C18.905 7.82143 22.2253 5.6771 23.5641 2.86267C25.0636 7.39256 26.8844 14.4152 23.6177 18.7575Z" fill="var(--fill-0, white)"/>
</g>
</svg>
