<svg width="20.944" height="34.0001" overflow="visible" style="display: block;" viewBox="0 0 20.944 34.0001" fill="none" xmlns="http://www.w3.org/2000/svg">
<g id="Apache_Kafka_logo 1" clip-path="url(#clip0_0_70)">
<path id="Vector" d="M16.5051 18.8158C15.1822 18.8158 13.9962 19.4019 13.184 20.3246L11.1029 18.8513C11.3238 18.2431 11.4507 17.59 11.4507 16.9064C11.4507 16.2346 11.3282 15.5925 11.1146 14.9932L13.191 13.5355C14.0031 14.4536 15.186 15.0365 16.5051 15.0365C18.9468 15.0365 20.9336 13.0501 20.9336 10.608C20.9336 8.16598 18.9468 6.17951 16.5051 6.17951C14.0634 6.17951 12.0766 8.16598 12.0766 10.608C12.0766 11.0451 12.1426 11.4666 12.2611 11.8658L10.1833 13.3242C9.31528 12.2474 8.06553 11.4955 6.64162 11.266V8.7618C8.64762 8.34048 10.1591 6.55817 10.1591 4.42851C10.1591 1.98647 8.17227 -7.2632e-07 5.73056 -7.2632e-07C3.28885 -7.2632e-07 1.30205 1.98647 1.30205 4.42851C1.30205 6.52964 2.77436 8.28997 4.74023 8.74137V11.2781C2.05733 11.7491 0.0104611 14.0905 0.0104611 16.9064C0.0104611 19.736 2.0776 22.086 4.77987 22.5409V25.2195C2.79389 25.6561 1.30205 27.4272 1.30205 29.5426C1.30205 31.9847 3.28885 33.9711 5.73056 33.9711C8.17227 33.9711 10.1591 31.9847 10.1591 29.5426C10.1591 27.4272 8.66724 25.6561 6.68126 25.2195V22.5408C8.04901 22.3104 9.28641 21.5908 10.163 20.5158L12.258 21.9987C12.1417 22.3943 12.0766 22.8116 12.0766 23.2443C12.0766 25.6863 14.0634 27.6728 16.5051 27.6728C18.9468 27.6728 20.9336 25.6863 20.9336 23.2443C20.9336 20.8022 18.9468 18.8158 16.5051 18.8158ZM16.5051 8.46087C17.6891 8.46087 18.6521 9.42431 18.6521 10.608C18.6521 11.7917 17.6891 12.7551 16.5051 12.7551C15.321 12.7551 14.358 11.7917 14.358 10.608C14.358 9.42431 15.321 8.46087 16.5051 8.46087ZM3.58341 4.42851C3.58341 3.2448 4.54653 2.28144 5.73056 2.28144C6.9146 2.28144 7.87763 3.2448 7.87763 4.42851C7.87763 5.61222 6.9146 6.57558 5.73056 6.57558C4.54653 6.57558 3.58341 5.61222 3.58341 4.42851ZM7.87763 29.5426C7.87763 30.7263 6.9146 31.6897 5.73056 31.6897C4.54653 31.6897 3.58341 30.7263 3.58341 29.5426C3.58341 28.3589 4.54653 27.3955 5.73056 27.3955C6.9146 27.3955 7.87763 28.3589 7.87763 29.5426ZM5.7304 19.9008C4.07903 19.9008 2.73561 18.5577 2.73561 16.9064C2.73561 15.255 4.07903 13.9116 5.7304 13.9116C7.38169 13.9116 8.7251 15.255 8.7251 16.9064C8.7251 18.5577 7.38169 19.9008 5.7304 19.9008ZM16.5051 25.3914C15.321 25.3914 14.358 24.428 14.358 23.2443C14.358 22.0606 15.321 21.0972 16.5051 21.0972C17.6891 21.0972 18.6521 22.0606 18.6521 23.2443C18.6521 24.428 17.6891 25.3914 16.5051 25.3914Z" fill="var(--fill-0, white)"/>
</g>
<defs>
<clipPath id="clip0_0_70">
<rect width="20.944" height="34.0001" fill="white"/>
</clipPath>
</defs>
</svg>
