<svg width="31" height="34" overflow="visible" style="display: block;" viewBox="0 0 31.2539 34" fill="none" xmlns="http://www.w3.org/2000/svg">
<g id="LOGO">
<path id="Rectangle 9" d="M17.017 21.598L22.1558 23.6228L16.68 26.1538L12.2152 24.0447L17.017 21.598Z" fill="var(--fill-0, #033076)"/>
<path id="Rectangle 1" d="M16.4273 0L31.2539 6.83375L23.2509 10.7146L16.4273 7.59305V0Z" fill="var(--fill-0, #7BD2FF)"/>
<path id="Rectangle 2" d="M2.27455 6.74938L16.4273 0V7.59305L10.6988 10.4615L2.27455 6.74938Z" fill="var(--fill-0, #41AFFD)"/>
<path id="Rectangle 3" d="M2.27455 6.74938L10.6988 10.4615V18.9826L2.27455 15.3548V6.74938Z" fill="var(--fill-0, #218AF3)"/>
<path id="Rectangle 4" d="M10.6988 10.4615L19.8812 14.4268V22.7792L10.6988 18.9826V10.4615Z" fill="var(--fill-0, #75D0FD)"/>
<path id="Rectangle 5" d="M19.8812 14.4268L30.6642 19.6576V27.0819L19.8812 22.7792V14.4268Z" fill="var(--fill-0, #2284F1)"/>
<path id="Rectangle 6" d="M16.68 26.1538L30.6643 19.6576V27.4194L16.68 34V26.1538Z" fill="var(--fill-0, #0D59C7)"/>
<path id="Rectangle 7" d="M9.18243 22.6104L16.68 26.1538V34L0 26.8288L9.18243 22.6104Z" fill="var(--fill-0, #319FFE)"/>
<path id="Rectangle 8" d="M16.4273 7.59305L23.2509 10.7146L17.5224 13.4144L10.6988 10.4615L16.4273 7.59305Z" fill="var(--fill-0, #0752AD)"/>
<path id="Intersect" d="M30.6643 27.4194L22.0844 23.6583L30.6643 19.6576V27.4194Z" fill="var(--fill-0, #1872E4)"/>
</g>
</svg>
