<svg width="100%" height="100%" overflow="visible" style="display: block;" viewBox="0 0 139.251 27.6898" fill="none" xmlns="http://www.w3.org/2000/svg">
<g id="LABS">
<path id="Subtract" d="M88.291 0.689872C96.1011 0.671941 110.491 3.24276 99.7578 13.4379C103.646 16.3478 105.49 18.6656 103.07 23.5209C102.923 23.6724 102.775 23.8225 102.625 23.9711C97.7694 28.7755 82.6024 27.1553 75.6523 27.1244C75.9203 18.3591 75.9522 9.58769 75.749 0.820732L88.291 0.689872ZM95.917 18.3217C93.802 15.2724 86.53 16.457 82.9551 16.4467C83.0019 18.1366 83.0038 20.3244 83.1621 21.9643C86.889 22.0402 91.8236 22.3474 95.3291 21.2631C95.8257 20.0265 96.0605 19.6248 95.917 18.3217ZM94.9834 7.54143C93.2143 4.97736 86.1583 5.89612 83.2324 5.99651L83.0635 11.2075C86.3918 11.2306 91.3968 11.5046 94.4492 10.4526C95.1962 8.6744 95.2317 9.22885 94.9834 7.54143Z" fill="var(--fill-0, #6FB0E5)"/>
<path id="Subtract_2" d="M53.4561 0.686698C56.1518 4.87424 65.3607 22.7815 67.2998 27.3303C64.8001 27.1492 61.6301 27.177 59.0771 27.1291C57.9731 24.8096 57.0917 21.6104 54.5068 21.1008C50.3344 21.1395 46.5439 21.1504 42.3799 20.9533C41.7245 23.2644 40.989 24.8899 40.0225 27.0978C37.2463 27.1906 34.2851 27.0901 31.4941 27.0441C35.4844 18.9243 40.7963 8.84633 45.1133 0.83123C47.6842 0.629382 50.8363 0.697491 53.4561 0.686698ZM49.0107 6.95916C47.5715 9.89786 46.2439 12.8904 45.0322 15.9299L49.5088 15.9474C50.451 15.9682 52.931 16.171 53.584 15.7541C53.277 14.0958 50.3469 7.73572 49.0107 6.95916Z" fill="var(--fill-0, #6FB0E5)"/>
<path id="Vector" d="M124.506 0.10109C129.745 -0.294229 133.129 0.499614 138.015 1.96297L137.559 8.02985C133.809 6.63684 122.363 3.8804 119.964 7.78922C121.106 12.3848 139.331 11.0097 139.251 18.7366C139.175 26.2145 132.318 27.2789 126.322 27.6791C122.261 27.7886 116.494 27.0339 112.355 26.5886L112.282 20.5421C116.32 21.6546 127.926 23.6024 131.148 20.5525L131.067 19.7639C128.663 17.125 118.398 16.6953 115.142 13.9001C113.775 12.7257 112.137 11.6761 111.968 9.61552C111.378 2.40905 119.135 0.942891 124.506 0.10109Z" fill="var(--fill-0, #6FB0E5)"/>
<path id="Vector_2" d="M0 0.689453L7.89326 0.733819C7.99764 7.73244 7.93325 14.8969 7.94645 21.9091C13.3059 21.8836 18.6658 21.8968 24.0253 21.9491L24.0237 27.1274C16.1269 27.2629 7.92207 27.163 0 27.1782C0.169159 18.5427 0.00519873 9.36808 0 0.689453Z" fill="var(--fill-0, #6FB0E5)"/>
</g>
</svg>
