<svg width="42.5293" height="25.6857" overflow="visible" style="display: block;" viewBox="0 0 42.5293 25.6857" fill="none" xmlns="http://www.w3.org/2000/svg">
<g id="Group">
<path id="Vector" d="M11.9851 9.32857C11.9851 9.85714 12.0417 10.2857 12.1407 10.6C12.2539 10.9143 12.3953 11.2571 12.5933 11.6286C12.6641 11.7429 12.6924 11.8571 12.6924 11.9571C12.6924 12.1 12.6075 12.2429 12.4236 12.3857L11.5325 12.9857C11.4052 13.0714 11.2779 13.1143 11.1647 13.1143C11.0233 13.1143 10.8818 13.0429 10.7404 12.9143C10.5424 12.7 10.3726 12.4714 10.2312 12.2429C10.0897 12 9.94828 11.7286 9.79269 11.4C8.6894 12.7143 7.30321 13.3714 5.63413 13.3714C4.44598 13.3714 3.49828 13.0286 2.80519 12.3429C2.11209 11.6571 1.75848 10.7429 1.75848 9.6C1.75848 8.38572 2.18282 7.4 3.04565 6.65714C3.90848 5.91429 5.0542 5.54286 6.51111 5.54286C6.99203 5.54286 7.48709 5.58571 8.01045 5.65714C8.5338 5.72857 9.07131 5.84286 9.6371 5.97143V4.92857C9.6371 3.84286 9.41078 3.08571 8.97229 2.64286C8.51966 2.2 7.75584 1.98571 6.6667 1.98571C6.17163 1.98571 5.66242 2.04286 5.13907 2.17143C4.61571 2.3 4.1065 2.45714 3.61144 2.65714C3.38512 2.75714 3.21538 2.81429 3.11637 2.84286C3.01736 2.87143 2.94663 2.88571 2.89005 2.88571C2.69203 2.88571 2.59302 2.74286 2.59302 2.44286V1.74286C2.59302 1.51429 2.6213 1.34286 2.69203 1.24286C2.76275 1.14286 2.89005 1.04286 3.08808 0.942857C3.58315 0.685714 4.17723 0.471429 4.87032 0.3C5.56341 0.114286 6.29894 0.0285714 7.0769 0.0285714C8.76012 0.0285714 9.99071 0.414286 10.7828 1.18571C11.5608 1.95714 11.9568 3.12857 11.9568 4.7V9.32857H11.9851ZM6.24236 11.5C6.70913 11.5 7.19006 11.4143 7.69927 11.2429C8.20848 11.0714 8.66111 10.7571 9.04302 10.3286C9.26933 10.0571 9.43907 9.75714 9.52394 9.41429C9.60881 9.07143 9.66538 8.65714 9.66538 8.17143V7.57143C9.25519 7.47143 8.8167 7.38572 8.36407 7.32857C7.91144 7.27143 7.47295 7.24286 7.03446 7.24286C6.08677 7.24286 5.39367 7.42857 4.9269 7.81429C4.46012 8.2 4.2338 8.74286 4.2338 9.45714C4.2338 10.1286 4.40354 10.6286 4.75716 10.9714C5.09663 11.3286 5.5917 11.5 6.24236 11.5ZM17.6006 13.0429C17.346 13.0429 17.1762 13 17.0631 12.9C16.9499 12.8143 16.8509 12.6143 16.766 12.3429L13.442 1.3C13.3572 1.01429 13.3147 0.828571 13.3147 0.728571C13.3147 0.5 13.4279 0.371429 13.6542 0.371429H15.0404C15.3091 0.371429 15.493 0.414286 15.592 0.514286C15.7052 0.6 15.7901 0.8 15.8749 1.07143L18.2512 10.5286L20.4578 1.07143C20.5285 0.785714 20.6134 0.6 20.7266 0.514286C20.8397 0.428571 21.0378 0.371429 21.2924 0.371429H22.4239C22.6927 0.371429 22.8766 0.414286 22.9897 0.514286C23.1029 0.6 23.2019 0.8 23.2585 1.07143L25.4933 10.6429L27.9404 1.07143C28.0253 0.785714 28.1243 0.6 28.2233 0.514286C28.3364 0.428571 28.5203 0.371429 28.7749 0.371429H30.0904C30.3167 0.371429 30.444 0.485714 30.444 0.728571C30.444 0.8 30.4299 0.871429 30.4157 0.957143C30.4016 1.04286 30.3733 1.15714 30.3167 1.31429L26.9078 12.3571C26.8229 12.6429 26.7239 12.8286 26.6108 12.9143C26.4976 13 26.3137 13.0571 26.0733 13.0571H24.8568C24.5881 13.0571 24.4042 13.0143 24.291 12.9143C24.1779 12.8143 24.0789 12.6286 24.0223 12.3429L21.8299 3.12857L19.6516 12.3286C19.5808 12.6143 19.496 12.8 19.3828 12.9C19.2697 13 19.0716 13.0429 18.817 13.0429H17.6006ZM35.7766 13.4286C35.041 13.4286 34.3055 13.3429 33.5983 13.1714C32.891 13 32.3394 12.8143 31.9716 12.6C31.7453 12.4714 31.5897 12.3286 31.5331 12.2C31.4766 12.0714 31.4483 11.9286 31.4483 11.8V11.0714C31.4483 10.7714 31.5614 10.6286 31.7736 10.6286C31.8585 10.6286 31.9433 10.6429 32.0282 10.6714C32.1131 10.7 32.2404 10.7571 32.3818 10.8143C32.8628 11.0286 33.3861 11.2 33.9378 11.3143C34.5035 11.4286 35.0552 11.4857 35.621 11.4857C36.5121 11.4857 37.2052 11.3286 37.6861 11.0143C38.167 10.7 38.4216 10.2429 38.4216 9.65714C38.4216 9.25714 38.2943 8.92857 38.0397 8.65714C37.7851 8.38571 37.3042 8.14286 36.6111 7.91429L34.5601 7.27143C33.5276 6.94286 32.7637 6.45714 32.297 5.81429C31.8302 5.18571 31.5897 4.48571 31.5897 3.74286C31.5897 3.14286 31.717 2.61429 31.9716 2.15714C32.2262 1.7 32.5657 1.3 32.9901 0.985714C33.4144 0.657143 33.8953 0.414286 34.4611 0.242857C35.0269 0.0714286 35.621 0 36.2433 0C36.5545 0 36.8799 0.0142857 37.191 0.0571429C37.5164 0.1 37.8134 0.157143 38.1105 0.214286C38.3933 0.285714 38.6621 0.357143 38.9167 0.442857C39.1713 0.528571 39.3693 0.614286 39.5108 0.7C39.7088 0.814286 39.8503 0.928571 39.9351 1.05714C40.02 1.17143 40.0624 1.32857 40.0624 1.52857V2.2C40.0624 2.5 39.9493 2.65714 39.7371 2.65714C39.6239 2.65714 39.4401 2.6 39.1996 2.48571C38.3933 2.11429 37.4881 1.92857 36.4838 1.92857C35.6776 1.92857 35.041 2.05714 34.6026 2.32857C34.1641 2.6 33.9378 3.01429 33.9378 3.6C33.9378 4 34.0792 4.34286 34.3621 4.61429C34.645 4.88571 35.1683 5.15714 35.918 5.4L37.9266 6.04286C38.945 6.37143 39.6805 6.82857 40.119 7.41429C40.5575 8 40.7697 8.67143 40.7697 9.41429C40.7697 10.0286 40.6424 10.5857 40.4019 11.0714C40.1473 11.5571 39.8078 11.9857 39.3693 12.3286C38.9308 12.6857 38.4075 12.9429 37.7993 13.1286C37.1628 13.3286 36.498 13.4286 35.7766 13.4286Z" fill="var(--fill-0, white)"/>
<g id="Group_2">
<path id="Vector_2" fill-rule="evenodd" clip-rule="evenodd" d="M38.4499 20.3714C33.7963 23.8429 27.0351 25.6857 21.2216 25.6857C13.0743 25.6857 5.73315 22.6429 0.18841 17.5857C-0.250076 17.1857 0.145976 16.6429 0.669331 16.9571C6.6667 20.4714 14.0644 22.6 21.7167 22.6C26.8795 22.6 32.5516 21.5143 37.771 19.2857C38.5489 18.9286 39.2137 19.8 38.4499 20.3714Z" fill="var(--fill-0, white)"/>
<path id="Vector_3" fill-rule="evenodd" clip-rule="evenodd" d="M40.3877 18.1429C39.7937 17.3714 36.4555 17.7714 34.942 17.9571C34.4894 18.0143 34.4187 17.6143 34.8289 17.3143C37.4881 15.4286 41.8588 15.9714 42.368 16.6C42.8772 17.2429 42.2266 21.6571 39.7371 23.7714C39.3552 24.1 38.9874 23.9286 39.1572 23.5C39.7229 22.0857 40.9818 18.9 40.3877 18.1429Z" fill="var(--fill-0, white)"/>
</g>
</g>
</svg>
