<svg width="20" height="20" overflow="visible" style="display: block;" viewBox="-1.25 -1.25 20 20" fill="none" xmlns="http://www.w3.org/2000/svg">
<path id="Vector" d="M10.4425 9.5583C10.3845 9.50019 10.3156 9.45409 10.2397 9.42264C10.1638 9.39119 10.0825 9.375 10.0003 9.375C9.91821 9.375 9.83688 9.39119 9.76101 9.42264C9.68514 9.45409 9.61621 9.50019 9.55816 9.5583L8.12535 10.9919L6.50894 9.37549L7.94254 7.94268C8.05981 7.8254 8.12569 7.66634 8.12569 7.50049C8.12569 7.33464 8.05981 7.17558 7.94254 7.0583C7.82526 6.94103 7.6662 6.87514 7.50035 6.87514C7.3345 6.87514 7.17544 6.94103 7.05816 7.0583L5.62535 8.4919L4.19254 7.0583C4.07526 6.94103 3.9162 6.87514 3.75035 6.87514C3.5845 6.87514 3.42544 6.94103 3.30816 7.0583C3.19088 7.17558 3.125 7.33464 3.125 7.50049C3.125 7.66634 3.19088 7.8254 3.30816 7.94268L3.80425 8.43799L1.98238 10.2591C1.75017 10.4912 1.56597 10.7669 1.4403 11.0702C1.31463 11.3736 1.24994 11.6987 1.24994 12.0271C1.24994 12.3554 1.31463 12.6805 1.4403 12.9839C1.56597 13.2872 1.75017 13.5629 1.98238 13.795L2.40269 14.2146L0.18316 16.4333C0.125091 16.4914 0.0790283 16.5603 0.0476017 16.6362C0.016175 16.7121 0 16.7934 0 16.8755C0 16.9576 0.016175 17.0389 0.0476017 17.1148C0.0790283 17.1907 0.125091 17.2596 0.18316 17.3177C0.300435 17.435 0.459495 17.5008 0.625348 17.5008C0.707469 17.5008 0.788787 17.4847 0.864658 17.4532C0.940528 17.4218 1.00947 17.3757 1.06754 17.3177L3.28629 15.0981L3.70582 15.5185C3.93797 15.7507 4.21359 15.9349 4.51694 16.0605C4.8203 16.1862 5.14543 16.2509 5.47378 16.2509C5.80214 16.2509 6.12727 16.1862 6.43063 16.0605C6.73398 15.9349 7.0096 15.7507 7.24175 15.5185L9.06285 13.6966L9.55816 14.1927C9.61623 14.2507 9.68517 14.2968 9.76104 14.3282C9.83691 14.3597 9.91823 14.3758 10.0003 14.3758C10.0825 14.3758 10.1638 14.3597 10.2397 14.3282C10.3155 14.2968 10.3845 14.2507 10.4425 14.1927C10.5006 14.1346 10.5467 14.0657 10.5781 13.9898C10.6095 13.9139 10.6257 13.8326 10.6257 13.7505C10.6257 13.6684 10.6095 13.5871 10.5781 13.5112C10.5467 13.4353 10.5006 13.3664 10.4425 13.3083L9.00894 11.8755L10.4425 10.4427C10.5006 10.3846 10.5467 10.3157 10.5782 10.2398C10.6097 10.164 10.6258 10.0826 10.6258 10.0005C10.6258 9.91836 10.6097 9.83703 10.5782 9.76115C10.5467 9.68528 10.5006 9.61635 10.4425 9.5583ZM6.35738 14.6364C6.12298 14.8707 5.80516 15.0023 5.47378 15.0023C5.14241 15.0023 4.82459 14.8707 4.59019 14.6364L2.86675 12.9106C2.63251 12.6763 2.50093 12.3584 2.50093 12.0271C2.50093 11.6957 2.63251 11.3779 2.86675 11.1435L4.68785 9.32159L8.17925 12.813L6.35738 14.6364ZM17.3175 0.183304C17.2595 0.125194 17.1906 0.0790945 17.1147 0.0476418C17.0388 0.0161891 16.9575 0 16.8753 0C16.7932 0 16.7119 0.0161891 16.636 0.0476418C16.5601 0.0790945 16.4912 0.125194 16.4332 0.183304L14.2144 2.40284L13.7949 1.98252C13.3255 1.51451 12.6897 1.2517 12.0269 1.2517C11.3641 1.2517 10.7283 1.51451 10.2589 1.98252L8.43785 3.8044L7.94254 3.3083C7.82526 3.19103 7.6662 3.12514 7.50035 3.12514C7.3345 3.12514 7.17544 3.19103 7.05816 3.3083C6.94088 3.42558 6.875 3.58464 6.875 3.75049C6.875 3.91634 6.94088 4.0754 7.05816 4.19268L13.3082 10.4427C13.3662 10.5007 13.4352 10.5468 13.511 10.5782C13.5869 10.6097 13.6682 10.6258 13.7503 10.6258C13.8325 10.6258 13.9138 10.6097 13.9897 10.5782C14.0655 10.5468 14.1345 10.5007 14.1925 10.4427C14.2506 10.3846 14.2967 10.3157 14.3281 10.2398C14.3595 10.1639 14.3757 10.0826 14.3757 10.0005C14.3757 9.91837 14.3595 9.83705 14.3281 9.76118C14.2967 9.68531 14.2506 9.61637 14.1925 9.5583L13.6964 9.06299L15.5183 7.2419C15.7505 7.00974 15.9347 6.73412 16.0604 6.43077C16.1861 6.12742 16.2508 5.80228 16.2508 5.47393C16.2508 5.14558 16.1861 4.82044 16.0604 4.51709C15.9347 4.21374 15.7505 3.93811 15.5183 3.70596L15.098 3.28643L17.3175 1.06768C17.3756 1.00963 17.4217 0.940703 17.4532 0.864829C17.4847 0.788956 17.5008 0.707626 17.5008 0.625492C17.5008 0.543357 17.4847 0.462028 17.4532 0.386154C17.4217 0.31028 17.3756 0.24135 17.3175 0.183304ZM14.6339 6.35518L12.8128 8.1794L9.32144 4.68799L11.1433 2.8669C11.3777 2.63265 11.6955 2.50107 12.0269 2.50107C12.3583 2.50107 12.6761 2.63265 12.9105 2.8669L14.6339 4.58565C14.7506 4.7018 14.8432 4.83985 14.9064 4.99189C14.9696 5.14392 15.0021 5.30694 15.0021 5.47159C15.0021 5.63623 14.9696 5.79925 14.9064 5.95128C14.8432 6.10332 14.7506 6.24138 14.6339 6.35752V6.35518Z" fill="var(--fill-0, #080E1B)"/>
</svg>
