<svg width="50.9507" height="26" overflow="visible" style="display: block;" viewBox="0 0 50.9507 26" fill="none" xmlns="http://www.w3.org/2000/svg">
<g id="langgraph">
<path id="Vector" fill-rule="evenodd" clip-rule="evenodd" d="M12.9465 0H38.0042C45.1448 0 50.9507 5.83239 50.9507 13C50.9507 20.1676 45.1448 26 38.0042 26H12.9465C5.80585 25.9918 0 20.1594 0 13C0 5.84058 5.80585 0 12.9465 0ZM24.4517 20.143C24.7629 20.4707 25.2297 20.4543 25.6473 20.3724C25.8356 20.2168 25.5654 20.0202 25.3034 19.8318C25.1478 19.7171 24.9922 19.6106 24.9513 19.5123C25.0987 19.3403 24.6728 18.9389 24.3371 18.6276C24.1979 18.4965 24.0751 18.3819 24.0177 18.3081C23.7803 18.0542 23.6902 17.7265 23.5919 17.3989C23.5264 17.1859 23.4691 16.9647 23.3626 16.7681C22.7157 15.2609 21.9705 13.77 20.9306 12.5003C20.2591 11.6566 19.4975 10.8948 18.736 10.1411C18.2446 9.64965 17.7533 9.16635 17.2865 8.65028C16.8034 8.1506 16.5168 7.54442 16.2302 6.93006C15.9845 6.41399 15.747 5.90611 15.3867 5.45558C14.314 3.85822 10.9157 3.42407 10.4161 5.67675C10.4161 5.74228 10.3998 5.79143 10.3343 5.83239C10.0558 6.03718 9.81017 6.26654 9.60545 6.54505C9.09775 7.24953 9.02405 8.4455 9.65459 9.07625C9.65459 9.05986 9.65459 9.05167 9.65459 9.03529C9.67915 8.71582 9.69553 8.41273 9.94938 8.18337C10.4325 8.60113 11.1695 8.74858 11.7345 8.4373C12.4142 9.4121 12.6271 10.5917 12.8482 11.7713C13.0284 12.7543 13.2085 13.7454 13.6589 14.6219C13.6671 14.6383 13.6753 14.6547 13.6835 14.6711C13.9455 15.1134 14.2157 15.5558 14.5597 15.9408C14.6825 16.1292 14.9364 16.3422 15.1902 16.5469C15.526 16.8173 15.8535 17.0876 15.8863 17.3251C15.8863 17.4234 15.8863 17.5299 15.8863 17.6364C15.8863 18.2508 15.8863 18.8897 16.2793 19.3976C16.5004 19.84 15.96 20.2823 15.5341 20.2331C15.2967 20.2659 15.0428 20.2004 14.7808 20.143C14.4287 20.0611 14.0847 19.971 13.7981 20.143C13.7162 20.225 13.6016 20.2331 13.4869 20.2331C13.3477 20.2331 13.2167 20.2331 13.1348 20.3806C13.1184 20.4216 13.0775 20.4707 13.0366 20.5198C12.9465 20.6263 12.8482 20.7492 12.9629 20.8393C12.971 20.8393 12.9874 20.8229 12.9956 20.8147C13.1676 20.6837 13.3395 20.5526 13.5688 20.6345C13.5361 20.8066 13.6507 20.8557 13.7654 20.9049C13.7817 20.9049 13.8063 20.9212 13.8227 20.9294C13.8227 20.9704 13.8145 21.0113 13.8063 21.0523C13.7899 21.1506 13.7654 21.2407 13.8472 21.3308C13.88 21.298 13.9128 21.2571 13.9455 21.2161C14.0192 21.1178 14.1011 21.0195 14.2403 20.9786C14.5433 21.3882 14.8545 21.2161 15.2393 21.0032C15.6734 20.7656 16.2138 20.4707 16.959 20.8885C16.6724 20.8721 16.4185 20.9049 16.222 21.1424C16.1729 21.1916 16.1319 21.2571 16.222 21.3226C16.6642 21.0359 16.8443 21.1424 17.0163 21.2325C17.1391 21.3062 17.262 21.3718 17.4667 21.2817C17.5158 21.2571 17.565 21.2325 17.6141 21.1997C17.9416 21.0195 18.2774 20.8393 18.6786 20.9049C18.3838 20.9868 18.2774 21.1752 18.1627 21.38C18.1054 21.4783 18.0481 21.5848 17.9662 21.6831C17.9253 21.724 17.9007 21.7814 17.9498 21.8551C18.564 21.8059 18.7933 21.6503 19.1126 21.4373C19.26 21.339 19.432 21.2243 19.6695 21.1015C19.9315 20.9376 20.1936 21.0441 20.4474 21.1424C20.7258 21.2489 20.9879 21.3554 21.2335 21.1178C21.3154 21.0441 21.4055 21.0441 21.5038 21.0441C21.5365 21.0441 21.5775 21.0441 21.6102 21.0441C21.5365 20.6345 21.1025 20.6345 20.6603 20.6427C20.1526 20.6427 19.6367 20.6509 19.6531 20.0202C20.1281 19.7007 20.1281 19.1355 20.1362 18.6112C20.1362 18.4802 20.1362 18.3573 20.1444 18.2344C20.4884 18.431 20.8569 18.5785 21.2254 18.7259C21.5693 18.8652 21.9132 19.0044 22.2326 19.1846C22.5683 19.7253 23.0924 20.4379 23.7884 20.3888C23.8048 20.3314 23.8212 20.2905 23.8458 20.2331C23.8867 20.2331 23.9277 20.2495 23.9686 20.2577C24.1488 20.3069 24.3453 20.356 24.4435 20.1348L24.4517 20.143ZM38.1025 14.0158C38.5037 14.4171 39.0524 14.6465 39.6256 14.6465C40.1988 14.6465 40.7392 14.4171 41.1487 14.0158C41.5499 13.6144 41.7792 13.0655 41.7792 12.5003C41.7792 11.9351 41.5499 11.3863 41.1487 10.9849C40.7474 10.5835 40.1988 10.3541 39.6256 10.3541C39.3553 10.3541 39.0933 10.4033 38.8558 10.5016L37.6275 8.69943L36.7677 9.28923L38.0042 11.0996C37.6684 11.4846 37.4801 11.9842 37.4801 12.5003C37.4801 13.0655 37.7094 13.6144 38.1106 14.0158H38.1025ZM34.2373 8.19156C34.5403 8.339 34.8679 8.42092 35.2118 8.41273C35.6704 8.41273 36.1208 8.25709 36.4811 7.98677C36.8496 7.70826 37.1198 7.32325 37.2508 6.8891C37.3818 6.44676 37.3737 5.97984 37.2181 5.54568C37.0625 5.11153 36.7759 4.74291 36.391 4.48897C36.1126 4.30057 35.7932 4.18589 35.4575 4.13674C35.1217 4.09578 34.786 4.13674 34.4666 4.24323C34.1473 4.35791 33.8607 4.54631 33.6314 4.78387C33.4021 5.02962 33.2301 5.32451 33.1319 5.64398C33.0336 5.96345 33.0172 6.3075 33.0745 6.63516C33.1319 6.96282 33.2711 7.28229 33.4676 7.54442C33.6723 7.81475 33.9344 8.02773 34.2373 8.18337V8.19156ZM34.2373 20.6509C34.5403 20.7984 34.8679 20.8803 35.2118 20.8721C35.6704 20.8721 36.1208 20.7164 36.4811 20.4461C36.8496 20.1676 37.1198 19.7826 37.2508 19.3485C37.3818 18.9061 37.3737 18.4392 37.2181 18.005C37.0625 17.5709 36.7759 17.2023 36.391 16.9483C36.1126 16.7599 35.7932 16.6452 35.4575 16.5961C35.1217 16.5551 34.786 16.5961 34.4666 16.7026C34.1473 16.8173 33.8607 17.0057 33.6314 17.2432C33.4021 17.489 33.2301 17.7839 33.1319 18.1033C33.0336 18.4228 33.0172 18.7669 33.0745 19.0945C33.1319 19.4222 33.2711 19.7417 33.4676 20.0038C33.6723 20.2741 33.9344 20.4871 34.2373 20.6427V20.6509ZM36.219 13.0328V11.9679H32.9271C32.8452 11.6484 32.6897 11.3453 32.4686 11.0914L33.7051 9.25646L32.8043 8.65848L31.5678 10.4934C31.3385 10.4115 31.101 10.3705 30.8636 10.3623C30.2985 10.3623 29.7499 10.5835 29.3486 10.9849C28.9474 11.3863 28.7181 11.9269 28.7181 12.4921C28.7181 13.0573 28.9474 13.598 29.3486 13.9994C29.7499 14.4008 30.2985 14.6219 30.8636 14.6219C31.101 14.6219 31.3467 14.5728 31.5678 14.4909L32.8043 16.3258L33.6969 15.7278L32.4686 13.8929C32.6897 13.6389 32.8452 13.344 32.9271 13.0164H36.219V13.0328Z" fill="var(--fill-0, white)"/>
</g>
</svg>
