<svg width="32.9629" height="26" overflow="visible" style="display: block;" viewBox="0 0 32.9629 26" fill="none" xmlns="http://www.w3.org/2000/svg">
<g id="docker">
<path id="Vector" d="M32.4266 10.6823C31.6184 10.1386 29.495 9.90644 27.9515 10.3223C27.8687 8.78569 27.0751 7.49057 25.6247 6.36052L25.088 6.00049L24.7302 6.54078C24.0268 7.60764 23.7303 9.02963 23.8352 10.3223C23.918 11.1188 24.1949 12.0137 24.7302 12.6632C22.721 13.8281 20.8687 13.5636 12.6665 13.5636H0.00280392C-0.0339578 15.4146 0.263567 18.9748 2.52907 21.8731C2.77954 22.1935 3.05353 22.5031 3.35155 22.8014C5.19356 24.6446 7.97666 25.9966 12.1381 26C18.4871 26.0059 23.9263 22.576 27.2354 14.2841C28.324 14.3017 31.1983 14.4791 32.605 11.7629C32.6394 11.7174 32.9629 11.0429 32.9629 11.0429L32.4266 10.6828V10.6823ZM8.26732 8.98995H4.70634V12.5486H8.26732V8.98995ZM12.8674 8.98995H9.30645V12.5486H12.8674V8.98995ZM17.468 8.98995H13.9071V12.5486H17.468V8.98995ZM22.0686 8.98995H18.5077V12.5486H22.0686V8.98995ZM3.66672 8.98995H0.105737V12.5486H3.66672V8.98995ZM8.26732 4.49522H4.70634V8.05388H8.26732V4.49522ZM12.8674 4.49522H9.30645V8.05388H12.8674V4.49522ZM17.468 4.49522H13.9071V8.05388H17.468V4.49522ZM17.468 0H13.9071V3.55866H17.468V0Z" fill="var(--fill-0, white)"/>
</g>
</svg>
