<svg width="23" height="5" overflow="visible" style="display: block;" viewBox="0 0 23.4617 4.67222" fill="none" xmlns="http://www.w3.org/2000/svg">
<g id="LABS">
<path id="Subtract" d="M14.8752 0.116288C16.1911 0.113253 18.6163 0.547325 16.8078 2.26766C17.4629 2.7586 17.773 3.14963 17.3654 3.96883C17.3407 3.99428 17.3164 4.02001 17.2912 4.045C16.4731 4.85568 13.9173 4.58243 12.7463 4.57723C12.7914 3.09829 12.7971 1.61796 12.7629 0.138749L14.8752 0.116288ZM16.1603 3.09187C15.804 2.57737 14.5791 2.77719 13.9767 2.77547C13.9846 3.06057 13.9852 3.42954 14.0119 3.70613C14.6398 3.71896 15.4712 3.77092 16.0617 3.58797C16.1453 3.37942 16.1844 3.31149 16.1603 3.09187ZM16.0031 1.27254C15.7051 0.839954 14.5167 0.994819 14.0236 1.0118L13.9953 1.8907C14.5561 1.89463 15.3991 1.94122 15.9133 1.76375C16.0391 1.46372 16.0449 1.55725 16.0031 1.27254Z" fill="var(--fill-0, #3AA4FA)"/>
<path id="Subtract_2" d="M9.00648 0.116429C9.46084 0.823397 11.0116 3.84363 11.3385 4.61155C10.9175 4.58104 10.3837 4.58545 9.95375 4.57737C9.76779 4.186 9.61865 3.64674 9.18324 3.56077C8.48039 3.5673 7.84173 3.56862 7.14027 3.53537C7.02984 3.92535 6.90566 4.19991 6.74281 4.57248C6.27516 4.58811 5.77641 4.57145 5.30629 4.56369C5.97855 3.19366 6.87389 1.49324 7.60121 0.140843C8.03431 0.106811 8.5652 0.118249 9.00648 0.116429ZM8.25746 1.17405C8.01501 1.66982 7.79166 2.17495 7.58754 2.68772L8.34144 2.69065C8.50011 2.69415 8.91769 2.72863 9.02797 2.65842C8.97629 2.37866 8.48257 1.30496 8.25746 1.17405Z" fill="var(--fill-0, #3AA4FA)"/>
<path id="Vector" d="M20.9774 0.0170578C21.8601 -0.0496461 22.4302 0.0843027 23.2535 0.331222L23.1767 1.35491C22.5448 1.11986 20.6162 0.654758 20.2122 1.31431C20.4046 2.08974 23.4751 1.85772 23.4617 3.16152C23.4489 4.42329 22.2935 4.6029 21.2833 4.67041C20.5992 4.68889 19.6274 4.56156 18.9302 4.48642L18.9178 3.46617C19.5982 3.65387 21.5537 3.98253 22.0965 3.46792L22.0828 3.33485C21.6778 2.88958 19.9482 2.81707 19.3997 2.34542C19.1693 2.14727 18.8934 1.97015 18.865 1.62247C18.7656 0.406491 20.0725 0.159099 20.9774 0.0170578Z" fill="var(--fill-0, #3AA4FA)"/>
<path id="Vector_2" d="M0 0.116335L1.3299 0.123821C1.34748 1.30473 1.33663 2.51363 1.33886 3.69683C2.24185 3.69251 3.14491 3.69474 4.04791 3.70358L4.04763 4.57733C2.71713 4.6002 1.33475 4.58334 0 4.5859C0.0285007 3.1288 0.000875908 1.58072 0 0.116335Z" fill="var(--fill-0, #3AA4FA)"/>
</g>
</svg>
