<svg width="89" height="18" overflow="visible" style="display: block;" viewBox="0 0 89 18" fill="none" xmlns="http://www.w3.org/2000/svg">
<g id="nextjs-logotype-dark-background 1" clip-path="url(#clip0_0_79)">
<path id="Vector" d="M59.1644 0.00744125H74.6667V2.8575H68.5171V17.8513H65.4421V2.8575H59.1644V0.00744125Z" fill="var(--fill-0, white)"/>
<path id="Vector_2" d="M33.6691 0.00744125V2.8575H21.243V7.44237H31.2361V10.2924H21.243V15.0012H33.6691V17.8513H18.1682V2.8575H18.1669V0.00744125H33.6691Z" fill="var(--fill-0, white)"/>
<path id="Vector_3" d="M41.4098 0.0148834H37.3859L51.7989 17.8587H55.8346L48.6272 8.94294L55.8231 0.0284971L51.7989 0.0346914L46.6125 6.45068L41.4098 0.0148834Z" fill="var(--fill-0, white)"/>
<path id="Vector_4" d="M45.5391 12.7608L43.5239 10.2652L37.3743 17.8723H41.4098L45.5391 12.7608Z" fill="var(--fill-0, white)"/>
<path id="Vector_5" fill-rule="evenodd" clip-rule="evenodd" d="M18.2759 17.8513L3.84351 0H0V17.8438H3.07481V3.81411L14.4132 17.8513H18.2759Z" fill="var(--fill-0, white)"/>
<path id="Vector_6" d="M75.3579 17.7423C75.1327 17.7423 74.9412 17.6646 74.7808 17.5092C74.6204 17.3538 74.5411 17.1656 74.5432 16.9427C74.5411 16.726 74.6204 16.5399 74.7808 16.3845C74.9412 16.2291 75.1327 16.1514 75.3579 16.1514C75.5746 16.1514 75.7641 16.2291 75.9245 16.3845C76.0871 16.5399 76.1682 16.726 76.1705 16.9427C76.1682 17.09 76.1307 17.2249 76.0557 17.3456C75.9787 17.4683 75.8809 17.5644 75.7578 17.6339C75.6369 17.7055 75.5036 17.7423 75.3579 17.7423Z" fill="var(--fill-0, white)"/>
<path id="Vector_7" d="M80.606 10.2252H81.9685V15.454C81.9665 15.9346 81.8621 16.3456 81.6582 16.6912C81.4519 17.0368 81.1664 17.3006 80.7998 17.4867C80.4352 17.6707 80.0081 17.7648 79.5226 17.7648C79.0788 17.7648 78.681 17.685 78.3268 17.5296C77.9726 17.3742 77.6913 17.1411 77.4851 16.8343C77.2766 16.5276 77.1745 16.1452 77.1745 15.6872H78.5393C78.5414 15.8876 78.5872 16.0614 78.6746 16.2065C78.7621 16.3517 78.8829 16.4621 79.0372 16.5399C79.1933 16.6176 79.3726 16.6564 79.5746 16.6564C79.7935 16.6564 79.981 16.6114 80.133 16.5194C80.285 16.4294 80.4018 16.2945 80.4831 16.1145C80.5622 15.9366 80.604 15.7158 80.606 15.454V10.2252Z" fill="var(--fill-0, white)"/>
<path id="Vector_8" d="M87.5749 12.2701C87.5417 11.9531 87.3957 11.7057 87.1416 11.5299C86.8852 11.3519 86.5541 11.264 86.1477 11.264C85.8624 11.264 85.6166 11.307 85.4124 11.3908C85.2082 11.4767 85.0499 11.5912 84.9415 11.7364C84.8333 11.8816 84.7791 12.0472 84.7748 12.2333C84.7748 12.3887 84.8123 12.5237 84.8852 12.6362C84.9582 12.7507 85.056 12.8468 85.1832 12.9245C85.3081 13.0042 85.4477 13.0697 85.5999 13.1228C85.754 13.176 85.9083 13.221 86.0623 13.2578L86.7727 13.4316C87.0583 13.4971 87.3354 13.585 87.5999 13.6975C87.8645 13.8079 88.1041 13.949 88.3144 14.1187C88.525 14.2884 88.6917 14.4929 88.8145 14.7322C88.9374 14.9714 89 15.2516 89 15.5747C89 16.0102 88.8875 16.3926 88.6603 16.7239C88.4332 17.0531 88.1062 17.3108 87.677 17.4969C87.2498 17.681 86.7332 17.775 86.1249 17.775C85.5374 17.775 85.0248 17.685 84.5936 17.5051C84.1603 17.3272 83.8226 17.0654 83.5789 16.7219C83.3352 16.3783 83.2039 15.9591 83.1852 15.4663H84.5353C84.5541 15.7239 84.6374 15.9387 84.779 16.1125C84.9227 16.2843 85.1102 16.4111 85.3395 16.4969C85.5708 16.5808 85.829 16.6237 86.1145 16.6237C86.4125 16.6237 86.6749 16.5787 86.9019 16.4908C87.1269 16.4029 87.304 16.2802 87.4312 16.1207C87.5604 15.9632 87.625 15.7771 87.627 15.5645C87.625 15.3702 87.5665 15.2086 87.454 15.0818C87.3395 14.9551 87.1811 14.8487 86.979 14.7629C86.775 14.677 86.5374 14.5993 86.2665 14.5318L85.4041 14.315C84.7811 14.1576 84.2873 13.9183 83.9268 13.5973C83.5644 13.2762 83.3851 12.8509 83.3851 12.3172C83.3851 11.8796 83.5059 11.4951 83.7499 11.1659C83.9914 10.8367 84.3228 10.581 84.7416 10.399C85.1624 10.215 85.6374 10.125 86.1665 10.125C86.7041 10.125 87.1748 10.215 87.5812 10.399C87.9873 10.581 88.3063 10.8346 88.5374 11.1577C88.7687 11.4808 88.8895 11.8509 88.8959 12.2701H87.5749Z" fill="var(--fill-0, white)"/>
</g>
<defs>
<clipPath id="clip0_0_79">
<rect width="89" height="18" fill="white"/>
</clipPath>
</defs>
</svg>
