<svg width="94" height="26" overflow="visible" style="display: block;" viewBox="0 0 94 26" fill="none" xmlns="http://www.w3.org/2000/svg">
<g id="Kotlin Logo 1" clip-path="url(#clip0_0_6)">
<path id="Vector" d="M55.9084 8.96448C57.0699 8.96448 58.1287 9.23542 59.0741 9.77698C60.0195 10.3186 60.7651 11.0662 61.3107 12.0087C61.8563 12.9511 62.1264 14.0128 62.1264 15.1772C62.1264 16.3418 61.8563 17.3984 61.3107 18.3463C60.7705 19.2942 60.0195 20.0364 59.0741 20.578C58.1233 21.1196 57.0537 21.3905 55.8922 21.3905C54.7307 21.3905 53.6716 21.1197 52.7262 20.578C51.7809 20.0364 51.0355 19.2942 50.4899 18.3463C49.9443 17.4038 49.6742 16.3418 49.6742 15.1772C49.6743 14.0128 49.9444 12.9566 50.4846 12.0087C51.0248 11.0608 51.7702 10.3186 52.7209 9.77698C53.6771 9.23531 54.7469 8.96448 55.9084 8.96448ZM89.3594 8.96448C90.2076 8.96448 90.9531 9.15422 91.5906 9.52255C92.228 9.89083 92.7251 10.427 93.0816 11.1311L93.087 11.1476C93.4382 11.8462 93.6164 12.6857 93.6164 13.6607V21.125H90.8991V14.078C90.8991 13.5039 90.8018 13.0163 90.6074 12.6154C90.4129 12.2146 90.1374 11.9057 89.7754 11.6945C89.4134 11.4833 88.9813 11.375 88.4789 11.375C87.9386 11.375 87.4632 11.4941 87.0472 11.7379C86.6313 11.9816 86.3071 12.3174 86.0802 12.7561C85.8533 13.1949 85.7399 13.6879 85.7399 14.2457V21.1197H83.0117V9.24641H85.6589V10.9852C85.9987 10.4111 86.4368 9.94522 86.9824 9.60402C87.6577 9.1761 88.4518 8.96448 89.3594 8.96448ZM67.4369 6.34292V9.24062H70.581L70.5702 11.6189H67.4261L67.4369 17.6095C67.4369 17.9344 67.5449 18.2054 67.7556 18.4167C67.9663 18.6279 68.2364 18.7361 68.5606 18.7361H70.5702V21.1144H68.0149C67.3834 21.1144 66.8102 20.9789 66.3078 20.7082C65.8054 20.4374 65.411 20.0581 65.1301 19.5815C64.8492 19.0994 64.7087 18.5576 64.7087 17.9565L64.6979 11.6135H62.6181L62.6289 9.23531H63.9254C64.2225 9.23531 64.4548 9.14859 64.6331 8.96448C64.8114 8.78573 64.8978 8.55281 64.8978 8.26573V6.34292H67.4369ZM74.9893 4.88558V21.1144H72.2612V4.88558H74.9893ZM80.37 9.24062V21.1144H77.6418V9.24062H80.37ZM39.5449 4.88029V12.2415L46.2276 4.88029H49.68L42.5753 12.7022L49.8362 21.1086H46.2762L39.5449 13.3629V21.1086H36.7356V4.88029H39.5449ZM55.903 11.3967C55.2439 11.3967 54.6497 11.5591 54.1418 11.8733C53.6339 12.1874 53.234 12.6316 52.9531 13.2058C52.6722 13.7798 52.5321 14.4407 52.5321 15.1772C52.5321 15.9138 52.6723 16.5641 52.9531 17.1381C53.234 17.7068 53.634 18.151 54.1418 18.4706C54.6497 18.7902 55.2439 18.9478 55.903 18.9478C56.5621 18.9477 57.1509 18.7847 57.6695 18.4706C58.1828 18.1565 58.5825 17.7123 58.8635 17.1381C59.1444 16.564 59.2848 15.9193 59.2848 15.1772C59.2848 14.4353 59.139 13.7797 58.858 13.211C58.5771 12.6424 58.1774 12.1981 57.6641 11.8786C57.1509 11.5591 56.5621 11.3967 55.903 11.3967ZM80.5537 5.27596V7.98958H77.442V5.27596H80.5537ZM49.6848 4.88029H49.68L49.6848 4.875V4.88029Z" fill="var(--fill-0, white)"/>
<path id="Vector_2" d="M25.931 26H0V0H25.931L12.6981 12.8091L25.931 26Z" fill="var(--fill-0, white)"/>
</g>
<defs>
<clipPath id="clip0_0_6">
<rect width="94" height="26" fill="white"/>
</clipPath>
</defs>
</svg>
