<svg width="108" height="20" overflow="visible" style="display: block;" viewBox="0 0 108 20" fill="none" xmlns="http://www.w3.org/2000/svg">
<g id="FastAPI_logo 1" clip-path="url(#clip0_0_24)">
<g id="g2">
<g id="g2106">
<path id="Subtract" d="M10.0072 0.00670674C15.5306 0.00670674 20.0089 4.48092 20.0091 9.99987C20.0091 15.519 15.5308 19.994 10.0072 19.994C4.4837 19.9938 0.00617674 15.5189 0.00617674 9.99987C0.00641462 4.48103 4.48384 0.00688065 10.0072 0.00670674ZM7.3177 8.98327L6.40461 11.0174L4.40461 15.4686L13.6107 8.98327H9.29133L15.6097 4.5321H9.3177L7.3177 8.98327Z" fill="var(--fill-0, white)"/>
</g>
<path id="text979-1" d="M27.9054 18.567V1.30911H38.2896V3.37608H30.3151V8.58084H37.3953V10.6229H30.3151V18.567H27.9054ZM44.2021 16.8985C44.7487 16.8985 45.2289 16.8902 45.643 16.8736C46.0736 16.8404 46.4297 16.7906 46.7112 16.7242V12.8642C46.5456 12.7812 46.2723 12.7148 45.8914 12.665C45.5271 12.5986 45.0799 12.5654 44.5499 12.5654C44.2021 12.5654 43.8295 12.5903 43.432 12.6401C43.0511 12.6899 42.695 12.7978 42.3638 12.9638C42.0491 13.1132 41.7841 13.329 41.5688 13.6113C41.3535 13.8769 41.2458 14.2339 41.2458 14.6821C41.2458 15.5122 41.5108 16.0933 42.0408 16.4253C42.5708 16.7408 43.2912 16.8985 44.2021 16.8985ZM44.0034 5.29362C44.9308 5.29362 45.7092 5.41814 46.3386 5.66717C46.9845 5.8996 47.4979 6.23994 47.8788 6.6882C48.2763 7.11985 48.5579 7.64282 48.7235 8.2571C48.8891 8.85478 48.9719 9.51886 48.9719 10.2494V18.3429C48.7732 18.3761 48.4916 18.4259 48.1273 18.4923C47.7795 18.5421 47.382 18.5919 46.9348 18.6417C46.4876 18.6915 45.9991 18.733 45.4691 18.7662C44.9557 18.8161 44.4423 18.841 43.9288 18.841C43.2001 18.841 42.5294 18.7662 41.9166 18.6168C41.3038 18.4674 40.7738 18.235 40.3267 17.9195C39.8795 17.5875 39.5317 17.1558 39.2833 16.6246C39.0348 16.0933 38.9106 15.4541 38.9106 14.707C38.9106 13.9931 39.0514 13.3789 39.3329 12.8642C39.6311 12.3495 40.0285 11.9345 40.5254 11.619C41.0223 11.3036 41.6019 11.0712 42.2644 10.9217C42.9269 10.7723 43.6225 10.6976 44.3512 10.6976C44.583 10.6976 44.8232 10.7142 45.0716 10.7474C45.32 10.764 45.5519 10.7972 45.7672 10.847C45.9991 10.8802 46.1978 10.9134 46.3634 10.9466C46.529 10.9798 46.645 11.0048 46.7112 11.0214V10.3739C46.7112 9.99202 46.6698 9.61847 46.587 9.25323C46.5042 8.87138 46.3551 8.53934 46.1398 8.2571C45.9245 7.95826 45.6264 7.72583 45.2455 7.55981C44.8811 7.37719 44.4009 7.28588 43.8046 7.28588C43.0428 7.28588 42.372 7.34398 41.7924 7.4602C41.2293 7.55981 40.8069 7.66772 40.5254 7.78394L40.2521 5.86639C40.5502 5.73358 41.0471 5.60906 41.7427 5.49285C42.4383 5.36003 43.1918 5.29362 44.0034 5.29362ZM55.8036 16.8985C56.7477 16.8985 57.4432 16.774 57.8904 16.525C58.3541 16.2759 58.586 15.8775 58.586 15.3296C58.586 14.7651 58.3624 14.3169 57.9153 13.9848C57.4681 13.6528 56.7311 13.2792 55.7043 12.8642C55.2074 12.665 54.7271 12.4657 54.2634 12.2665C53.8162 12.0507 53.427 11.8017 53.0958 11.5194C52.7645 11.2372 52.4996 10.8968 52.3008 10.4984C52.1021 10.0999 52.0027 9.61017 52.0027 9.0291C52.0027 7.88355 52.425 6.97874 53.2697 6.31465C54.1143 5.63396 55.2654 5.29362 56.7228 5.29362C57.0872 5.29362 57.4515 5.31852 57.8159 5.36833C58.1803 5.40154 58.5198 5.45134 58.8344 5.51775C59.1491 5.56756 59.4224 5.62566 59.6542 5.69207C59.9027 5.75848 60.0931 5.81659 60.2256 5.86639L59.8033 7.85865C59.5549 7.72583 59.1657 7.59301 58.6357 7.4602C58.1057 7.31078 57.4681 7.23607 56.7228 7.23607C56.0769 7.23607 55.5138 7.36889 55.0335 7.63452C54.5532 7.88355 54.3131 8.282 54.3131 8.82987C54.3131 9.11211 54.3628 9.36114 54.4621 9.57697C54.5781 9.7928 54.7437 9.99202 54.959 10.1746C55.1908 10.3407 55.4724 10.4984 55.8036 10.6478C56.1349 10.7972 56.5324 10.9549 56.9961 11.121C57.6089 11.3534 58.1554 11.5858 58.6357 11.8183C59.116 12.0341 59.5218 12.2914 59.853 12.5903C60.2008 12.8891 60.4658 13.2543 60.648 13.686C60.8301 14.101 60.9212 14.6157 60.9212 15.23C60.9212 16.4253 60.4741 17.3302 59.5797 17.9444C58.7019 18.5587 57.4432 18.8659 55.8036 18.8659C54.6609 18.8659 53.7665 18.7662 53.1206 18.567C52.4747 18.3844 52.0358 18.2433 51.804 18.1437L52.2263 16.1514C52.4913 16.251 52.9136 16.4004 53.4933 16.5997C54.0729 16.7989 54.843 16.8985 55.8036 16.8985ZM66.0388 5.61736H70.9328V7.55981H66.0388V13.5366C66.0388 14.1841 66.0885 14.7236 66.1878 15.1553C66.2872 15.5703 66.4363 15.9024 66.635 16.1514C66.8338 16.3838 67.0822 16.5499 67.3803 16.6495C67.6784 16.7491 68.0262 16.7989 68.4237 16.7989C69.1193 16.7989 69.6741 16.7242 70.0882 16.5748C70.5188 16.4087 70.8169 16.2925 70.9825 16.2261L71.4297 18.1437C71.1978 18.2599 70.792 18.401 70.2124 18.567C69.6327 18.7496 68.9702 18.841 68.225 18.841C67.3472 18.841 66.6185 18.733 66.0388 18.5172C65.4757 18.2848 65.0202 17.9444 64.6724 17.4962C64.3246 17.0479 64.0762 16.5001 63.9272 15.8526C63.7947 15.1885 63.7284 14.4248 63.7284 13.5615V2.0064L66.0388 1.60795V5.61736ZM85.5154 18.567C85.2339 17.8199 84.9689 17.0894 84.7205 16.3755C84.472 15.645 84.2153 14.9063 83.9503 14.1592H76.1497L74.5846 18.567H72.0755C72.738 16.7408 73.3591 15.0557 73.9387 13.5117C74.5184 11.9511 75.0815 10.4735 75.628 9.07891C76.1911 7.68433 76.746 6.35616 77.2925 5.0944C77.839 3.81603 78.4104 2.55427 79.0066 1.30911H81.2176C81.8139 2.55427 82.3852 3.81603 82.9318 5.0944C83.4783 6.35616 84.0249 7.68433 84.5714 9.07891C85.1345 10.4735 85.7059 11.9511 86.2855 13.5117C86.8652 15.0557 87.4863 16.7408 88.1487 18.567H85.5154ZM83.2547 12.1669C82.7248 10.7225 82.1948 9.32794 81.6648 7.98317C81.1514 6.62179 80.6131 5.31852 80.05 4.07336C79.4704 5.31852 78.9155 6.62179 78.3856 7.98317C77.8722 9.32794 77.3587 10.7225 76.8453 12.1669H83.2547ZM95.055 1.13479C97.473 1.13479 99.3279 1.59965 100.62 2.52937C101.928 3.44248 102.582 4.81216 102.582 6.63839C102.582 7.63452 102.4 8.48953 102.036 9.20342C101.688 9.90071 101.175 10.4735 100.496 10.9217C99.833 11.3534 99.0215 11.6688 98.0609 11.8681C97.1004 12.0673 96.0156 12.1669 94.8065 12.1669H92.8937V18.567H90.4839V1.55814C91.1629 1.39212 91.9165 1.28421 92.7446 1.2344C93.5893 1.16799 94.3594 1.13479 95.055 1.13479ZM95.2537 3.25156C94.2269 3.25156 93.4402 3.27646 92.8937 3.32627V10.0999H94.7072C95.5353 10.0999 96.2805 10.0501 96.943 9.95052C97.6055 9.8343 98.1603 9.65168 98.6075 9.40265C99.0712 9.13701 99.4273 8.78007 99.6757 8.33181C99.9241 7.88355 100.048 7.31078 100.048 6.61349C100.048 5.94941 99.9159 5.40153 99.6509 4.96988C99.4024 4.53822 99.0546 4.19788 98.6075 3.94885C98.1769 3.68321 97.6717 3.50059 97.0921 3.40098C96.5124 3.30137 95.8996 3.25156 95.2537 3.25156ZM105.588 1.30911H107.998V18.567H105.588V1.30911Z" fill="var(--fill-0, white)"/>
</g>
<g id="rect824" opacity="0.98">
</g>
</g>
<defs>
<clipPath id="clip0_0_24">
<rect width="108" height="20" fill="white"/>
</clipPath>
</defs>
</svg>
