<svg width="32.2856" height="26" overflow="visible" style="display: block;" viewBox="0 0 32.2856 26" fill="none" xmlns="http://www.w3.org/2000/svg">
<g id="Google_Cloud">
<path id="Vector" opacity="0.8" d="M20.4854 7.15954H21.4701L24.2764 4.35127L24.4142 3.15899C22.8066 1.73904 20.8638 0.752652 18.7693 0.293002C16.6748 -0.166648 14.4978 -0.0843862 12.4439 0.532017C10.39 1.14842 8.52707 2.27861 7.03103 3.81584C5.53499 5.35306 4.45525 7.24656 3.89381 9.31748C4.20644 9.18925 4.55276 9.16845 4.87848 9.25836L10.4911 8.33212C10.4911 8.33212 10.7766 7.85915 10.9243 7.88871C12.1269 6.56701 13.7889 5.75531 15.57 5.61975C17.3511 5.4842 19.1166 6.03505 20.5051 7.15954H20.4854Z" fill="var(--fill-0, white)"/>
<path id="Vector_2" opacity="0.4" d="M28.2759 9.31759C27.6309 6.94055 26.3065 4.80361 24.4652 3.16895L20.5266 7.11039C21.3474 7.78158 22.0053 8.63054 22.4505 9.59324C22.8956 10.5559 23.1166 11.6072 23.0966 12.6678V13.3674C23.5569 13.3674 24.0127 13.4582 24.438 13.6344C24.8633 13.8107 25.2497 14.0691 25.5753 14.3949C25.9008 14.7206 26.159 15.1073 26.3351 15.5329C26.5113 15.9585 26.602 16.4146 26.602 16.8753C26.602 17.336 26.5113 17.7921 26.3351 18.2177C26.159 18.6433 25.9008 19.03 25.5753 19.3557C25.2497 19.6815 24.8633 19.9399 24.438 20.1162C24.0127 20.2924 23.5569 20.3832 23.0966 20.3832H16.0857L15.3866 21.0926V25.3001L16.0857 25.9997H23.0966C25.0543 26.015 26.965 25.3992 28.5459 24.2436C30.1268 23.0879 31.2941 21.4538 31.875 19.5828C32.4559 17.7118 32.4195 15.7035 31.7714 13.8548C31.1232 12.0061 29.8976 10.4152 28.2759 9.31759Z" fill="var(--fill-0, white)"/>
<path id="Vector_3" opacity="0.8" d="M9.06439 25.9603H16.0752V20.3437H9.06439C8.5649 20.3436 8.07127 20.2361 7.61693 20.0284L6.63226 20.3339L3.80627 23.1422L3.56011 24.1275C5.14486 25.325 7.07859 25.9689 9.06439 25.9603Z" fill="var(--fill-0, white)"/>
<path id="Vector_4" d="M9.06354 7.74102C7.16394 7.75237 5.31532 8.35716 3.77588 9.47092C2.23643 10.5847 1.08304 12.1518 0.476796 13.9533C-0.129448 15.7549 -0.158268 17.701 0.394361 19.5197C0.946989 21.3385 2.05347 22.9391 3.55926 24.098L7.62593 20.0284C7.10914 19.7948 6.65671 19.4392 6.30746 18.9921C5.95821 18.545 5.72257 18.0198 5.62075 17.4615C5.51893 16.9033 5.55398 16.3286 5.72288 15.7869C5.89179 15.2452 6.18951 14.7525 6.59049 14.3512C6.99148 13.95 7.48377 13.652 8.02512 13.483C8.56647 13.314 9.14071 13.2789 9.69858 13.3808C10.2564 13.4827 10.7813 13.7185 11.2281 14.068C11.6748 14.4175 12.0302 14.8703 12.2637 15.3874L16.3304 11.3179C15.4768 10.2012 14.3767 9.2973 13.1161 8.67679C11.8554 8.05628 10.4684 7.73601 9.06354 7.74102Z" fill="var(--fill-0, white)"/>
</g>
</svg>
