<svg width="32.7962" height="34.0001" overflow="visible" style="display: block;" viewBox="0 0 32.7962 34.0001" fill="none" xmlns="http://www.w3.org/2000/svg">
<g id="Postgresql_elephant">
<path id="Vector (Stroke)" d="M16.3938 21.6307C16.6711 21.6384 16.8896 21.8695 16.8818 22.1468C16.8262 24.1327 16.8334 26.1227 16.9025 27.7338C16.9371 28.5398 16.987 29.2454 17.0514 29.8055C17.1178 30.3827 17.1946 30.7559 17.2646 30.931L17.302 31.0236C17.4939 31.4933 17.7605 32.0558 18.2411 32.4607C18.7233 32.8668 19.487 33.1667 20.7949 32.8865L20.9018 32.863C21.9939 32.6171 22.6716 32.2762 23.1243 31.8056C23.5907 31.3209 23.8785 30.6361 24.0604 29.5812L24.0604 29.5811C24.337 27.9786 24.8735 23.5002 24.9414 22.5954C24.9621 22.3188 25.2032 22.1114 25.4798 22.1321C25.7564 22.1529 25.9638 22.3939 25.9431 22.6705C25.8728 23.6075 25.3324 28.1179 25.0503 29.752C24.853 30.8967 24.5142 31.8099 23.8483 32.502C23.1833 33.1932 22.2524 33.6014 21.0055 33.8687H21.0053C19.4382 34.2044 18.3462 33.8626 17.5939 33.2289C16.8721 32.6209 16.5279 31.7941 16.3319 31.3042L16.3319 31.3041C16.2066 30.9909 16.1196 30.4957 16.0535 29.9202C15.9853 29.3276 15.9341 28.5962 15.8989 27.7769C15.8285 26.1372 15.8216 24.123 15.8777 22.1187C15.8854 21.8414 16.1165 21.6229 16.3938 21.6307Z" fill="var(--fill-0, white)"/>
<path id="Vector (Stroke)_2" d="M6.47275 0.4797C8.13422 0.384434 9.79848 0.683955 11.0343 1.00004C11.655 1.15882 12.1742 1.32353 12.5392 1.44891C12.7218 1.51164 12.8662 1.56463 12.9658 1.60231C13.0156 1.62116 13.0543 1.63619 13.081 1.6467C13.0943 1.65194 13.1046 1.65607 13.1119 1.65897C13.1155 1.66042 13.1183 1.66156 13.1204 1.6624C13.1214 1.66281 13.1223 1.66314 13.1229 1.6634C13.1232 1.66352 13.1235 1.66369 13.1237 1.66375C13.1239 1.66386 13.1241 1.66393 12.9449 2.10253L13.1242 1.66393C13.381 1.76888 13.504 2.06214 13.3991 2.31891C13.2941 2.5756 13.001 2.69865 12.7443 2.59383H12.7442C12.7441 2.59377 12.7437 2.59364 12.7432 2.59342C12.7421 2.59298 12.7402 2.59223 12.7376 2.59118C12.7323 2.58906 12.724 2.5857 12.7127 2.58126C12.6902 2.57237 12.6558 2.559 12.6104 2.54183C12.5196 2.5075 12.3849 2.45804 12.2129 2.39894C11.8684 2.28064 11.3754 2.12421 10.7853 1.97327C9.59937 1.66993 8.04728 1.39557 6.53024 1.48255C5.01251 1.56958 3.58666 2.0138 2.5719 3.08874C1.56151 4.15904 0.87727 5.94147 1.02434 8.88175L1.02771 8.94042C1.06923 9.57349 1.30535 11.0404 1.70991 12.8459C2.12514 14.6991 2.70928 16.8708 3.41777 18.7979C4.1349 20.7485 4.95069 22.366 5.79509 23.1867C6.21034 23.5903 6.57103 23.7418 6.8822 23.7285C7.19026 23.7155 7.59029 23.5347 8.07225 22.9553C8.8541 22.0148 9.59798 21.1763 10.1462 20.5731C10.4205 20.2714 10.6461 20.0282 10.8034 19.8602C10.8821 19.7762 10.9437 19.711 10.9857 19.6666C11.0068 19.6444 11.023 19.6274 11.034 19.6159C11.0394 19.6102 11.0436 19.6057 11.0465 19.6027C11.0479 19.6012 11.049 19.6001 11.0498 19.5993C11.0502 19.5989 11.0505 19.5986 11.0507 19.5984C11.0508 19.5983 11.0508 19.5982 11.0509 19.5981L11.051 19.598C11.051 19.598 11.0519 19.5988 11.4136 19.9455L11.051 19.598C11.243 19.3978 11.5609 19.391 11.7612 19.583C11.9552 19.7689 11.9676 20.0731 11.7937 20.2739L11.7763 20.2931H11.7762C11.7762 20.2931 11.7761 20.2932 11.7761 20.2932C11.7759 20.2934 11.7757 20.2936 11.7754 20.2939C11.7748 20.2945 11.7739 20.2955 11.7726 20.2968C11.77 20.2995 11.7662 20.3036 11.761 20.309C11.7507 20.3198 11.7352 20.3362 11.7148 20.3576C11.6741 20.4006 11.6139 20.4643 11.5367 20.5468C11.3824 20.7116 11.1601 20.9511 10.8896 21.2488C10.3482 21.8444 9.61454 22.6714 8.84464 23.5976L8.84452 23.5977C8.26487 24.2946 7.62471 24.7024 6.92476 24.7321C6.22792 24.7617 5.61272 24.4102 5.09501 23.907C4.07347 22.9142 3.19482 21.1027 2.47492 19.1445C1.74638 17.1628 1.1509 14.9457 0.729634 13.0656C0.310752 11.1961 0.0555244 9.62138 0.0210485 8.93192C-0.134444 5.82326 0.581444 3.73392 1.84147 2.39918C3.09713 1.06908 4.81199 0.574928 6.47275 0.4797Z" fill="var(--fill-0, white)"/>
<path id="Vector (Stroke)_3" d="M23.9565 0.000565943C26.4595 -0.0226838 29.6545 0.661965 31.9706 3.62143V3.62149C32.4688 4.25814 32.6413 5.28374 32.6235 6.43822C32.6052 7.62199 32.384 9.05421 31.9828 10.6076C31.1801 13.7153 29.6402 17.3714 27.4664 20.597C27.3114 20.8271 26.9992 20.8879 26.7692 20.7329C26.5392 20.5778 26.4784 20.2657 26.6334 20.0357C28.7395 16.9104 30.2343 13.3604 31.0102 10.3564C31.3983 8.85391 31.6024 7.50383 31.6191 6.4227C31.6362 5.31231 31.4533 4.59038 31.1795 4.24052V4.24046C29.1247 1.61493 26.2886 0.983443 23.9659 1.00501C22.8053 1.01579 21.7873 1.19047 21.0873 1.35407C20.7379 1.43575 20.4704 1.5141 20.307 1.56644C20.2568 1.58253 20.2179 1.59579 20.1904 1.60545C20.1661 1.61772 20.1406 1.62832 20.1137 1.63673C20.1049 1.63952 20.0859 1.64539 20.0647 1.65043C20.0586 1.65188 20.0485 1.65424 20.036 1.65651C20.0277 1.65801 19.9992 1.66313 19.9626 1.66441C19.9416 1.66471 19.8862 1.6613 19.852 1.65609C19.7895 1.64014 19.6232 1.54841 19.5372 1.45618C19.4624 1.30302 19.462 1.02272 19.5053 0.918722C19.5357 0.870481 19.593 0.803442 19.6161 0.782203C19.654 0.749377 19.6887 0.729805 19.6954 0.725954C19.7084 0.718452 19.7193 0.712955 19.7254 0.709959C19.7379 0.703811 19.7487 0.699089 19.7547 0.696502C19.7677 0.690919 19.7809 0.685743 19.7919 0.68151C19.8364 0.664477 19.9077 0.639602 20.0005 0.609857C20.1886 0.549571 20.4821 0.463966 20.8587 0.37595C21.6107 0.200162 22.7042 0.0122007 23.9565 0.000565943Z" fill="var(--fill-0, white)"/>
<path id="Vector (Stroke)_4" d="M12.3879 1.95304C13.5645 0.973442 15.1384 0.349117 17.2144 0.38316C21.3307 0.45065 24.0471 2.56701 25.6794 4.65374C26.4938 5.69487 27.0439 6.73438 27.3725 7.52378C27.5363 7.91744 27.6487 8.25774 27.7105 8.51223C27.7406 8.63573 27.7635 8.75852 27.7693 8.86507C27.7719 8.9134 27.7734 8.99421 27.7525 9.08115C27.7405 9.13073 27.664 9.41805 27.3454 9.48398L27.1642 9.48811C25.1023 9.15797 24.157 9.50823 23.7467 9.97764C23.3291 10.4554 23.2727 11.2713 23.5453 12.3643C23.8099 13.4252 24.344 14.5815 24.8568 15.5655C25.1116 16.0545 25.357 16.4932 25.5568 16.8516C25.7472 17.1931 25.9172 17.4976 25.9924 17.6798L26.0163 17.7366C26.2646 18.3185 26.5703 18.7334 26.846 19.0816C26.9826 19.2541 27.1343 19.4374 27.2504 19.6027C27.3633 19.7635 27.4788 19.9562 27.5341 20.1789C27.5373 20.1848 27.5436 20.1957 27.5548 20.2102C27.5871 20.252 27.676 20.3458 27.889 20.4339C28.3295 20.6163 29.2949 20.7705 31.2818 20.3604L31.3273 20.3512C31.5531 20.3069 31.7579 20.2847 31.9374 20.2908C32.1177 20.297 32.3378 20.3337 32.5192 20.4717C32.7361 20.6368 32.8146 20.8808 32.7926 21.109C32.7737 21.3053 32.6845 21.4788 32.5965 21.6115C32.4158 21.8841 32.1173 22.166 31.7701 22.4249C31.4154 22.6892 30.981 22.9508 30.5008 23.1737L30.5007 23.1738C29.6764 23.5563 28.4018 23.7785 27.3372 23.7902C26.8037 23.796 26.2787 23.75 25.8655 23.6216C25.5 23.508 24.9741 23.2445 24.9408 22.6607V22.6607C24.9026 21.9907 24.9989 21.4763 25.2129 21.0839C25.4327 20.6811 25.7474 20.46 26.0389 20.3287C26.18 20.2651 26.3156 20.2226 26.4248 20.1909C26.4279 20.19 26.431 20.1892 26.434 20.1883C26.432 20.1855 26.4302 20.1827 26.4282 20.1798C26.3343 20.0461 26.2175 19.906 26.0585 19.7052C25.7615 19.3301 25.3925 18.8341 25.0926 18.1315L25.0638 18.0629C25.0173 17.9503 24.8876 17.7141 24.6794 17.3407C24.4806 16.9841 24.2284 16.5333 23.9659 16.0297C23.4442 15.0285 22.8649 13.7869 22.5707 12.6075C22.2845 11.4603 22.2239 10.1935 22.9903 9.31659C23.6773 8.53058 24.8792 8.22455 26.6324 8.40475C26.5839 8.2608 26.5219 8.09449 26.445 7.90973C26.1468 7.19325 25.6403 6.23413 24.8882 5.27259C23.3874 3.35399 20.9314 1.44876 17.1979 1.38755C15.3499 1.35724 14.013 1.90709 13.0306 2.725C12.0387 3.55085 11.3767 4.67691 10.9378 5.83998C10.4993 7.00191 10.293 8.17547 10.1974 9.06409C10.1497 9.50699 10.1298 9.87565 10.1219 10.132C10.1179 10.2602 10.1169 10.36 10.1169 10.4269C10.1169 10.4603 10.1171 10.4854 10.1173 10.5016C10.1174 10.5098 10.1175 10.5157 10.1176 10.5193C10.1177 10.5211 10.1177 10.5224 10.1177 10.523V10.5235C10.1248 10.8007 9.90599 11.0312 9.62878 11.0385C9.35149 11.0458 9.1208 10.8269 9.1135 10.5496L9.61561 10.5364L9.17624 10.5479C9.11665 10.5493 9.11365 10.5493 9.1135 10.5492C9.11349 10.549 9.11344 10.5487 9.11344 10.5484C9.11342 10.5478 9.11346 10.5471 9.11344 10.5463C9.1134 10.5446 9.11332 10.5422 9.11326 10.5394C9.11314 10.5336 9.11299 10.5255 9.11285 10.5151C9.11257 10.4944 9.11236 10.4646 9.11237 10.4265C9.11241 10.3501 9.11349 10.2399 9.1178 10.1009C9.12643 9.82295 9.1478 9.42855 9.19861 8.95661C9.29992 8.01556 9.51979 6.75222 9.99791 5.48531C10.4756 4.21953 11.2208 2.92471 12.3879 1.95304ZM26.9996 21.0678C26.9048 21.1008 26.7816 21.1333 26.7047 21.1556C26.6113 21.1827 26.5286 21.2099 26.4514 21.2446C26.3065 21.3099 26.1848 21.3999 26.0948 21.565C26.0014 21.736 25.9165 22.0352 25.9416 22.5629C25.9662 22.5827 26.0271 22.6199 26.1636 22.6624C26.4333 22.7462 26.8394 22.7911 27.3261 22.7857C28.3018 22.775 29.4236 22.5662 30.0778 22.2627C30.4982 22.0674 30.8729 21.8407 31.1698 21.6194C31.303 21.5202 31.4153 21.4258 31.507 21.3398C31.4998 21.3412 31.4924 21.3426 31.485 21.3442H31.4849C29.418 21.7708 28.2171 21.6569 27.5047 21.362C27.2966 21.2759 27.1308 21.1743 26.9996 21.0678ZM27.5409 20.207L27.541 20.2074C27.5416 20.2098 27.542 20.2122 27.5425 20.2146C27.5424 20.2144 27.5424 20.2137 27.5423 20.2133C27.5421 20.2124 27.5419 20.2116 27.5417 20.2107C27.5414 20.2089 27.541 20.2072 27.5406 20.2056C27.5399 20.2024 27.5392 20.1995 27.5385 20.1968C27.5383 20.1962 27.5382 20.1956 27.538 20.1951C27.5389 20.199 27.54 20.203 27.5409 20.207Z" fill="var(--fill-0, white)"/>
<path id="Vector (Stroke)_5" d="M14.8868 20.2076C15.2424 20.1765 15.5373 20.3029 15.6943 20.3679L15.6944 20.368C16.1909 20.5738 16.5654 21.0442 16.747 21.5342C16.9304 22.0292 16.9582 22.6623 16.5866 23.1825C14.784 25.7065 12.1048 25.2749 11.0381 25.0081C10.7874 24.9454 10.5066 24.8399 10.2598 24.7049C10.0324 24.5804 9.75078 24.3867 9.60196 24.1107C9.51935 23.9575 9.46796 23.7591 9.51826 23.5409C9.56739 23.3277 9.69767 23.1647 9.84384 23.0455C10.1186 22.8214 10.5539 22.6662 11.1228 22.5489H11.1229C12.2232 22.3224 12.5763 22.1729 12.8008 21.994C12.9166 21.9017 13.0166 21.7868 13.1737 21.5888C13.3269 21.3957 13.5233 21.1383 13.8094 20.8188C14.1493 20.4386 14.5079 20.2407 14.8868 20.2076ZM15.2506 21.2719C15.1206 21.2205 15.0465 21.2019 14.9742 21.2082C14.9149 21.2134 14.7769 21.2437 14.5582 21.4885L14.5578 21.4888C14.2968 21.7803 14.1232 22.0081 13.9607 22.213C13.802 22.4131 13.6406 22.6092 13.4267 22.7796C12.9918 23.1261 12.4122 23.309 11.3255 23.5327L11.3256 23.5328C11.0665 23.5862 10.8721 23.6422 10.7296 23.6963C10.6842 23.7135 10.6459 23.73 10.6136 23.7452C10.6503 23.7705 10.6932 23.7969 10.742 23.8236C10.9083 23.9147 11.1082 23.9902 11.2818 24.0336H11.2819C12.2732 24.2816 14.3549 24.579 15.7691 22.5987L15.78 22.5829C15.8889 22.4171 15.9103 22.1673 15.805 21.8833C15.6945 21.5851 15.4862 21.3691 15.3099 21.2959L15.2506 21.2719Z" fill="var(--fill-0, white)"/>
<path id="Vector (Stroke)_6" d="M12.1757 8.6643C12.9116 8.49457 13.7423 8.44017 14.4672 8.72008C15.2307 9.0149 15.8011 9.65149 16.0251 10.6871H16.0252C16.5519 13.1228 16.4941 14.7643 16.2117 16.0088C16.0711 16.6283 15.8778 17.1362 15.688 17.5783C15.4899 18.0397 15.3243 18.3697 15.1897 18.7318C14.9996 19.2443 14.8306 19.6816 14.7186 20.0841C14.6069 20.4857 14.5688 20.7986 14.6081 21.0547C14.6501 21.3289 14.4619 21.5853 14.1877 21.6273C13.9136 21.6694 13.6572 21.4812 13.6152 21.2071C13.6049 21.1404 13.5979 21.0735 13.5936 21.0065C10.8146 20.9384 8.60501 18.2434 9.03275 15.1846V15.1845C9.34599 12.9447 9.11019 11.1011 9.11391 10.5327V10.5326C9.11538 10.3147 9.24122 10.1569 9.28732 10.101C9.35464 10.0194 9.43823 9.94268 9.523 9.87374C9.69516 9.73372 9.92605 9.58245 10.19 9.43549C10.7187 9.14109 11.4305 8.8362 12.1757 8.6643ZM14.1053 9.65712C13.6491 9.48098 13.0488 9.49382 12.4015 9.64313C11.7636 9.79028 11.1399 10.0563 10.6786 10.3131C10.4476 10.4418 10.2698 10.5612 10.1569 10.6531C10.1441 10.6635 10.1328 10.673 10.1228 10.6817C10.1532 11.3004 10.3233 13.2091 10.0276 15.3237C9.66885 17.8892 11.5433 19.996 13.7019 20.0027C13.7172 19.9398 13.7335 19.8772 13.7508 19.815C13.8773 19.3603 14.067 18.87 14.248 18.3821L14.2481 18.3819C14.3925 17.9936 14.597 17.573 14.7649 17.182C14.9411 16.7716 15.1098 16.3252 15.2321 15.7866C15.4752 14.7149 15.5462 13.2251 15.0433 10.8995L15.0277 10.8314C14.861 10.1399 14.5098 9.81332 14.1053 9.65712ZM10.0622 10.7402C10.0522 10.7524 10.0548 10.7515 10.063 10.7392C10.0627 10.7396 10.0624 10.7399 10.0622 10.7402Z" fill="var(--fill-0, white)"/>
<path id="Vector" d="M12.8863 10.4649C12.8631 10.6292 13.1872 11.0677 13.6097 11.1263C14.0315 11.1851 14.3925 10.8425 14.4154 10.6783C14.4383 10.514 14.1146 10.333 13.692 10.2742C13.2699 10.2153 12.9087 10.301 12.8864 10.4649H12.8863Z" fill="var(--fill-0, white)"/>
<path id="Vector (Stroke)_7" d="M13.1021 10.1232C13.2728 10.0827 13.4902 10.0769 13.7165 10.1085L13.7164 10.1085C13.943 10.1401 14.1506 10.205 14.3039 10.2906C14.38 10.3332 14.4506 10.3852 14.5022 10.4479C14.5538 10.5107 14.597 10.5985 14.5826 10.7015C14.5708 10.7863 14.5225 10.8669 14.4711 10.9308C14.4162 10.999 14.3431 11.0665 14.2575 11.1246C14.0872 11.24 13.8504 11.3287 13.5881 11.2922V11.2922C13.3281 11.2562 13.109 11.1061 12.9611 10.9508C12.8862 10.8722 12.8248 10.7875 12.7829 10.7064C12.7447 10.6327 12.7087 10.5356 12.7219 10.4416L12.7423 10.2976H12.7847C12.8095 10.2663 12.8389 10.2406 12.8685 10.2201C12.9352 10.174 13.0174 10.1433 13.1021 10.1232ZM13.6702 10.4401C13.4745 10.4127 13.3003 10.4203 13.1793 10.449C13.1183 10.4634 13.0796 10.4812 13.059 10.4954C13.0584 10.4959 13.0577 10.4964 13.0571 10.4968C13.0602 10.5076 13.0665 10.526 13.0802 10.5525C13.1057 10.6017 13.1474 10.661 13.2035 10.7199C13.3175 10.8395 13.4716 10.9381 13.6341 10.9606H13.6342C13.7937 10.9828 13.9483 10.9297 14.0696 10.8474C14.1298 10.8067 14.1777 10.7614 14.2101 10.721C14.2313 10.6947 14.2417 10.6755 14.2467 10.6648C14.2457 10.6636 14.2448 10.6621 14.2436 10.6606C14.2277 10.6412 14.1953 10.6136 14.1405 10.583C14.032 10.5223 13.8664 10.4674 13.6703 10.4401H13.6702Z" fill="var(--fill-0, white)"/>
<path id="Vector_2" d="M25.7342 10.1297C25.7571 10.2941 25.4335 10.7325 25.0109 10.7911C24.5888 10.8499 24.2277 10.5073 24.2046 10.3431C24.1823 10.1788 24.506 9.99783 24.9282 9.939C25.3504 9.88017 25.7113 9.96584 25.7342 10.1298V10.1297Z" fill="var(--fill-0, white)"/>
<path id="Vector (Stroke)_8" d="M24.9174 9.85577C25.1361 9.82529 25.3427 9.83154 25.501 9.86905C25.5799 9.88773 25.6512 9.9152 25.7063 9.95333C25.7616 9.9915 25.8077 10.0458 25.8178 10.1179H25.8179C25.8273 10.1853 25.8013 10.2629 25.7654 10.3323C25.7275 10.4054 25.6711 10.4838 25.601 10.5575C25.4616 10.7039 25.2588 10.8409 25.0231 10.8736L25.0231 10.8737C24.7864 10.9067 24.57 10.8269 24.4119 10.7197C24.3325 10.666 24.2658 10.604 24.2165 10.5428C24.1689 10.4837 24.1313 10.4174 24.1224 10.3545L24.1224 10.3541C24.1126 10.2821 24.1423 10.2172 24.185 10.1653C24.2277 10.1136 24.2888 10.0677 24.3596 10.0281C24.5017 9.94875 24.6986 9.88624 24.9174 9.85577ZM25.4624 10.032C25.329 10.0003 25.144 9.99322 24.9405 10.0216C24.737 10.0499 24.5611 10.1073 24.4413 10.1743C24.3812 10.2078 24.3391 10.2417 24.3142 10.2719C24.2895 10.3018 24.2869 10.3211 24.2882 10.3313C24.291 10.3506 24.3072 10.3885 24.3469 10.4378C24.385 10.4852 24.4392 10.536 24.5058 10.5811C24.6395 10.6716 24.8147 10.7337 25.0001 10.7079H25.0001C25.187 10.682 25.3573 10.5706 25.4797 10.442C25.5404 10.3782 25.5871 10.3125 25.6167 10.2554C25.6481 10.1947 25.654 10.1559 25.652 10.1411L25.6512 10.137C25.6484 10.1266 25.6392 10.1105 25.6111 10.0911C25.579 10.0689 25.5294 10.0478 25.4624 10.032Z" fill="var(--fill-0, white)"/>
<path id="Vector (Stroke)_9" d="M27.2191 8.49111C27.4961 8.47618 27.7327 8.68862 27.7477 8.9656C27.7853 9.66321 27.7093 10.2465 27.6245 10.806C27.5393 11.3692 27.4475 11.8979 27.4268 12.5474V12.5478C27.4119 13.0054 27.4589 13.4891 27.521 14.0183C27.5818 14.5368 27.6579 15.1041 27.6862 15.6788C27.7438 16.8462 27.6092 18.109 26.7626 19.3734C26.6083 19.6039 26.2963 19.6656 26.0658 19.5113C25.8353 19.357 25.7736 19.045 25.9279 18.8145C26.6116 17.7934 26.7344 16.7721 26.6829 15.7282C26.6568 15.1973 26.5868 14.6772 26.5232 14.1353C26.4609 13.6042 26.4052 13.0547 26.4228 12.5152C26.4458 11.7928 26.5495 11.1966 26.6313 10.6557C26.7138 10.1111 26.7765 9.61092 26.7446 9.01966C26.7297 8.74269 26.9421 8.50606 27.2191 8.49111Z" fill="var(--fill-0, white)"/>
</g>
</svg>
