<svg width="20" height="20" overflow="visible" style="display: block;" viewBox="-1.876 -3.126 20 20" fill="none" xmlns="http://www.w3.org/2000/svg">
<path id="Vector" d="M14.375 0H1.875C1.37772 0 0.900806 0.197544 0.549175 0.549175C0.197544 0.900806 0 1.37772 0 1.875V10.625C0 11.1223 0.197544 11.5992 0.549175 11.9508C0.900806 12.3025 1.37772 12.5 1.875 12.5H7.5V13.75H5.625C5.45924 13.75 5.30027 13.8158 5.18306 13.9331C5.06585 14.0503 5 14.2092 5 14.375C5 14.5408 5.06585 14.6997 5.18306 14.8169C5.30027 14.9342 5.45924 15 5.625 15H10.625C10.7908 15 10.9497 14.9342 11.0669 14.8169C11.1842 14.6997 11.25 14.5408 11.25 14.375C11.25 14.2092 11.1842 14.0503 11.0669 13.9331C10.9497 13.8158 10.7908 13.75 10.625 13.75H8.75V12.5H14.375C14.8723 12.5 15.3492 12.3025 15.7008 11.9508C16.0525 11.5992 16.25 11.1223 16.25 10.625V1.875C16.25 1.37772 16.0525 0.900806 15.7008 0.549175C15.3492 0.197544 14.8723 0 14.375 0ZM1.875 1.25H14.375C14.5408 1.25 14.6997 1.31585 14.8169 1.43306C14.9342 1.55027 15 1.70924 15 1.875V8.125H1.25V1.875C1.25 1.70924 1.31585 1.55027 1.43306 1.43306C1.55027 1.31585 1.70924 1.25 1.875 1.25ZM14.375 11.25H1.875C1.70924 11.25 1.55027 11.1842 1.43306 11.0669C1.31585 10.9497 1.25 10.7908 1.25 10.625V9.375H15V10.625C15 10.7908 14.9342 10.9497 14.8169 11.0669C14.6997 11.1842 14.5408 11.25 14.375 11.25Z" fill="var(--fill-0, #080E1B)"/>
</svg>
