<svg width="29" height="26" overflow="visible" style="display: block;" viewBox="0 0 29 26" fill="none" xmlns="http://www.w3.org/2000/svg">
<g id="React-icon 1" clip-path="url(#clip0_0_110)">
<path id="Vector" d="M14.5 15.6046C15.9275 15.6046 17.0848 14.4385 17.0848 13C17.0848 11.5615 15.9275 10.3954 14.5 10.3954C13.0725 10.3954 11.9152 11.5615 11.9152 13C11.9152 14.4385 13.0725 15.6046 14.5 15.6046Z" fill="var(--fill-0, white)"/>
<g id="Group">
<path id="Vector (Stroke)" d="M27.7391 13.0002C27.7391 12.5059 27.4812 11.9621 26.8575 11.3947C26.2337 10.8272 25.295 10.2868 24.0821 9.82013C21.6607 8.88855 18.2732 8.29894 14.5 8.29894C10.7268 8.29894 7.33926 8.88855 4.91788 9.82013C3.70502 10.2868 2.76633 10.8272 2.14249 11.3947C1.51882 11.9621 1.26087 12.5059 1.26087 13.0002C1.26096 13.4946 1.51874 14.0384 2.14249 14.6058C2.76633 15.1733 3.70502 15.7137 4.91788 16.1804C7.33925 17.1119 10.7269 17.7016 14.5 17.7016C18.2731 17.7016 21.6607 17.1119 24.0821 16.1804C25.295 15.7137 26.2337 15.1733 26.8575 14.6058C27.4813 14.0384 27.739 13.4946 27.7391 13.0002ZM29 13.0002C28.9999 13.9793 28.4819 14.8395 27.7022 15.5488C26.9223 16.2582 25.8286 16.8675 24.5315 17.3665C21.9332 18.3662 18.3865 18.9721 14.5 18.9721C10.6135 18.9721 7.06681 18.3662 4.46845 17.3665C3.17142 16.8675 2.07765 16.2582 1.29781 15.5488C0.518109 14.8395 8.76217e-05 13.9793 0 13.0002C0 12.0212 0.51818 11.161 1.29781 10.4517C2.07765 9.7423 3.17142 9.13175 4.46845 8.63271C7.06679 7.63313 10.6137 7.02839 14.5 7.02839C18.3863 7.02839 21.9332 7.63313 24.5315 8.63271C25.8286 9.13175 26.9223 9.7423 27.7022 10.4517C28.4818 11.161 29 12.0212 29 13.0002Z" fill="var(--fill-0, white)"/>
<path id="Vector (Stroke)_2" d="M21.1194 24.5536C21.5442 24.3065 21.8826 23.8095 22.0584 22.9815C22.2342 22.1533 22.2293 21.0639 22.0239 19.7722C21.6138 17.1933 20.4268 13.9422 18.5402 10.6495C16.6536 7.35672 14.4531 4.69526 12.4418 3.04796C11.4343 2.22284 10.5005 1.67388 9.70089 1.41321C8.90139 1.15266 8.30506 1.19945 7.88022 1.44662C7.45543 1.69386 7.11695 2.19073 6.94117 3.01878C6.76539 3.84692 6.77029 4.93631 6.97567 6.22807C7.38576 8.80692 8.57284 12.0581 10.4594 15.3508C12.3459 18.6435 14.5465 21.305 16.5578 22.9523C17.5653 23.7774 18.4991 24.3264 19.2987 24.587C20.0982 24.8477 20.6945 24.8007 21.1194 24.5536ZM21.7498 25.654C20.9083 26.1434 19.91 26.1215 18.9106 25.7957C17.911 25.4698 16.8405 24.82 15.7631 23.9376C13.6048 22.1699 11.3107 19.3777 9.36743 15.9861C7.4242 12.5944 6.17158 9.19631 5.73152 6.42896C5.51188 5.04755 5.48866 3.78838 5.7084 2.75313C5.92811 1.71807 6.4084 0.835895 7.24979 0.346285C8.09122 -0.143249 9.08959 -0.121149 10.089 0.204577C11.0886 0.530435 12.1602 1.17966 13.2376 2.06204C15.3958 3.82976 17.689 6.62267 19.6321 10.0142C21.5753 13.4057 22.829 16.8034 23.2691 19.5707C23.4888 20.9521 23.5109 22.2119 23.2912 23.2471C23.0714 24.2821 22.5912 25.1644 21.7498 25.654Z" fill="var(--fill-0, white)"/>
<path id="Vector (Stroke)_3" d="M7.88022 24.5534C8.30506 24.8005 8.90139 24.8473 9.70089 24.5868C10.5005 24.3261 11.4343 23.7772 12.4418 22.952C14.4531 21.3047 16.6536 18.6433 18.5402 15.3505C20.4268 12.0578 21.6138 8.8067 22.0239 6.22782C22.2293 4.93606 22.2342 3.84667 22.0584 3.01853C21.8826 2.19054 21.5442 1.69353 21.1194 1.44637C20.6945 1.19928 20.0982 1.15234 19.2987 1.41296C18.4991 1.67363 17.5653 2.2226 16.5578 3.04771C14.5465 4.69502 12.3459 7.35654 10.4594 10.6492C8.57284 13.9419 7.38576 17.1931 6.97567 19.7719C6.77029 21.0637 6.76539 22.1531 6.94117 22.9812C7.11695 23.8093 7.45543 24.3061 7.88022 24.5534ZM7.24979 25.6537C6.4084 25.1641 5.92811 24.2819 5.7084 23.2469C5.48866 22.2116 5.51189 20.9525 5.73152 19.571C6.17159 16.8037 7.42421 13.4056 9.36744 10.0139C11.3107 6.62232 13.6048 3.83012 15.7631 2.06241C16.8405 1.18004 17.911 0.530187 18.9106 0.204328C19.91 -0.121468 20.9083 -0.143421 21.7498 0.346036C22.5912 0.835569 23.0714 1.71788 23.2912 2.75288C23.5109 3.78813 23.4888 5.04792 23.2691 6.42933C22.829 9.19664 21.5753 12.5943 19.6321 15.9858C17.689 19.3773 15.3958 22.1702 13.2376 23.938C12.1602 24.8203 11.0886 25.4696 10.089 25.7954C9.08959 26.1212 8.09122 26.1433 7.24979 25.6537Z" fill="var(--fill-0, white)"/>
</g>
</g>
<defs>
<clipPath id="clip0_0_110">
<rect width="29" height="26" fill="white"/>
</clipPath>
</defs>
</svg>
