<svg width="18" height="18" overflow="visible" style="display: block;" viewBox="0 0 18 17.9691" fill="none" xmlns="http://www.w3.org/2000/svg">
<g id="Group">
<path id="Vector" d="M2.16344 0C0.967892 0 0.000193424 0.969439 0 2.16228C0 3.35629 0.967698 4.32553 2.16364 4.32553C3.35629 4.32553 4.32534 3.35629 4.32534 2.16228C4.32534 0.969246 3.35609 0 2.16344 0Z" fill="var(--fill-0, #E7E7E7)" fill-opacity="0.8"/>
<path id="Vector_2" d="M0.297486 5.96634H4.02805V17.9691H0.297486V5.96634Z" fill="var(--fill-0, white)"/>
<path id="Vector_3" d="M13.5251 5.66789C11.7104 5.66789 10.4936 6.66286 9.99555 7.60638H9.94565V5.96634H6.3677H6.3675V17.9689H10.0948V12.0311C10.0948 10.4658 10.3928 8.94952 12.3337 8.94952C14.2466 8.94952 14.2721 10.7398 14.2721 12.1315V17.9687H18V11.3853C18 8.15377 17.3027 5.66789 13.5251 5.66789Z" fill="var(--fill-0, white)"/>
</g>
</svg>
