<svg width="22" height="18" overflow="visible" style="display: block;" viewBox="0 0 22.3515 18" fill="none" xmlns="http://www.w3.org/2000/svg">
<g id="Google_Cloud">
<path id="Vector" opacity="0.8" d="M14.1831 4.95663H14.8648L16.8077 3.01243L16.9031 2.187C15.7901 1.20396 14.4451 0.52107 12.995 0.202849C11.545 -0.115372 10.0378 -0.0584215 8.61583 0.368321C7.19388 0.795064 5.90411 1.57751 4.86837 2.64175C3.83263 3.70599 3.08511 5.01688 2.69641 6.4506C2.91285 6.36182 3.15262 6.34742 3.37812 6.40967L7.26383 5.76842C7.26383 5.76842 7.46153 5.44098 7.56378 5.46144C8.39637 4.54642 9.54698 3.98446 10.7801 3.89062C12.0132 3.79677 13.2355 4.17813 14.1968 4.95663H14.1831Z" fill="var(--fill-0, #0C1B3B)"/>
<path id="Vector_2" opacity="0.5" d="M19.5756 6.45058C19.129 4.80492 18.2121 3.3255 16.9374 2.1938L14.2106 4.92251C14.7788 5.38718 15.2343 5.97492 15.5425 6.64141C15.8507 7.30789 16.0037 8.03572 15.9898 8.76997V9.25432C16.3085 9.25432 16.6241 9.31714 16.9185 9.43918C17.213 9.56123 17.4805 9.74011 17.7059 9.96562C17.9312 10.1911 18.11 10.4589 18.2319 10.7535C18.3539 11.0481 18.4167 11.3639 18.4167 11.6829C18.4167 12.0018 18.3539 12.3176 18.2319 12.6122C18.11 12.9069 17.9312 13.1746 17.7059 13.4001C17.4805 13.6256 17.213 13.8045 16.9185 13.9265C16.6241 14.0486 16.3085 14.1114 15.9898 14.1114H11.1361L10.6521 14.6026V17.5155L11.1361 17.9998H15.9898C17.3452 18.0104 18.668 17.5841 19.7625 16.784C20.857 15.9839 21.6651 14.8526 22.0673 13.5573C22.4694 12.262 22.4443 10.8716 21.9955 9.59171C21.5468 8.31183 20.6983 7.21048 19.5756 6.45058Z" fill="var(--fill-0, #0C1B3B)"/>
<path id="Vector_3" opacity="0.8" d="M6.27511 17.9726H11.1289V14.0842H6.27511C5.92931 14.0841 5.58756 14.0096 5.27301 13.8659L4.5913 14.0773L2.63481 16.0215L2.46439 16.7037C3.56154 17.5328 4.90031 17.9785 6.27511 17.9726Z" fill="var(--fill-0, #0C1B3B)"/>
<path id="Vector_4" d="M6.27488 5.35912C4.95975 5.36698 3.67991 5.78568 2.61412 6.55674C1.54833 7.32781 0.749811 8.41273 0.330096 9.65997C-0.0896193 10.9072 -0.109572 12.2545 0.273024 13.5136C0.65562 14.7728 1.42166 15.8809 2.46415 16.6832L5.27959 13.8658C4.9218 13.7041 4.60858 13.4579 4.36679 13.1484C4.12499 12.8388 3.96185 12.4752 3.89136 12.0887C3.82087 11.7022 3.84513 11.3044 3.96207 10.9294C4.07901 10.5543 4.28512 10.2133 4.56274 9.93545C4.84035 9.65765 5.18117 9.45139 5.55596 9.33437C5.93074 9.21735 6.3283 9.19307 6.71453 9.26361C7.10075 9.33415 7.46411 9.4974 7.77342 9.73936C8.08274 9.98132 8.32877 10.2948 8.49042 10.6528L11.3059 7.83541C10.7149 7.06234 9.95329 6.43654 9.08052 6.00696C8.20775 5.57737 7.2475 5.35565 6.27488 5.35912Z" fill="var(--fill-0, #0C1B3B)"/>
</g>
</svg>
