<svg width="23" height="18" overflow="visible" style="display: block;" viewBox="0 0 22.8204 18" fill="none" xmlns="http://www.w3.org/2000/svg">
<g id="docker">
<path id="Vector" d="M22.4492 7.39546C21.8896 7.01904 20.4196 6.8583 19.351 7.14621C19.2937 6.0824 18.7443 5.18578 17.7402 4.40344L17.3686 4.15418L17.1209 4.52823C16.634 5.26683 16.4287 6.25128 16.5013 7.14621C16.5586 7.69762 16.7503 8.31718 17.1209 8.76685C15.73 9.57327 14.4476 9.39015 8.7691 9.39015H0.00194117C-0.0235092 10.6717 0.182469 13.1364 1.75089 15.1429C1.9243 15.3647 2.11399 15.579 2.3203 15.7856C3.59554 17.0617 5.5223 17.9976 8.40329 18C12.7987 18.0041 16.5644 15.6296 18.8553 9.88899C19.6089 9.9012 21.5988 10.024 22.5727 8.14356C22.5965 8.11202 22.8204 7.64505 22.8204 7.64505L22.4492 7.3958V7.39546ZM5.72353 6.22382H3.25824V8.6875H5.72353V6.22382ZM8.90823 6.22382H6.44293V8.6875H8.90823V6.22382ZM12.0933 6.22382H9.62796V8.6875H12.0933V6.22382ZM15.2783 6.22382H12.813V8.6875H15.2783V6.22382ZM2.5385 6.22382H0.0732023V8.6875H2.5385V6.22382ZM5.72353 3.11208H3.25824V5.57576H5.72353V3.11208ZM8.90823 3.11208H6.44293V5.57576H8.90823V3.11208ZM12.0933 3.11208H9.62796V5.57576H12.0933V3.11208ZM12.0933 0H9.62796V2.46369H12.0933V0Z" fill="var(--fill-0, #0C1B3B)"/>
</g>
</svg>
