<svg width="112.49" height="14.59" overflow="visible" style="display: block;" viewBox="0 0 491.516 63.8905" fill="none" xmlns="http://www.w3.org/2000/svg">
<g id="SCALARA">
<path id="Subtract" d="M352.33 1.49237C373.855 1.37609 417.903 -5.27546 409.99 28.4797C408.46 34.9898 402.933 37.9805 397.495 40.4299C402.903 47.6084 408.131 54.92 413.171 62.3596L402.348 62.5051L395.343 62.5187C390.97 55.8436 386.455 49.2635 381.798 42.7834L367.961 43.1642C367.833 49.5332 367.893 56.1305 367.863 62.5197L352.278 62.551L352.33 1.49237ZM392.186 28.634C404.081 11.4113 376.668 13.2627 367.848 13.3625L367.878 31.548C375.993 31.7296 385.218 32.8957 392.186 28.634Z" fill="var(--fill-0, #FDFCFB)"/>
<path id="Subtract_2" d="M463.519 1.48926C472.908 20.7801 482.403 42.7178 491.516 62.4189L475.263 62.5186C473.8 58.863 472.12 52.7262 469.48 49.9512C467.785 48.162 465.49 48.6601 462.91 48.6436L439.931 48.6211L434.118 62.5039L417.056 62.4746C426.251 45.1919 436.668 19.8567 444.985 1.48633L463.519 1.48926ZM453.551 14.5039C450.491 22.0725 447.415 30.0147 444.115 37.4482L454.195 37.3496L464.328 37.2559C462.656 33.3302 456.048 16.6444 453.551 14.5039Z" fill="var(--fill-0, #FDFCFB)"/>
<path id="Subtract_3" d="M179.388 1.47754C188.575 21.878 197.966 42.1891 207.551 62.4072L190.968 62.5596C189.288 58.601 187.901 53.0091 185.126 49.6611C184.016 48.3153 182.65 48.7012 180.723 48.6494C172.39 48.6562 164.058 48.62 155.726 48.542C153.671 53.0565 151.683 57.9264 149.726 62.5137L133.338 62.4941C135.708 56.2864 140.291 47.0995 143.163 40.7666L160.751 1.49316L179.388 1.47754ZM159.955 37.4619L169.848 37.3057L180.341 37.1875C178.743 33.394 171.731 16.0748 169.833 14.0068L159.955 37.4619Z" fill="var(--fill-0, #FDFCFB)"/>
<path id="Subtract_4" d="M315.363 1.48926C322.713 19.9318 334.675 43.8467 343.36 62.4287L326.665 62.6045C325.218 58.7254 323.373 53.2594 321.078 49.8438C320.088 48.3794 319.143 48.7477 317.223 48.6367L291.558 48.5938L285.565 62.5137L269.328 62.5234C278.711 42.3002 287.86 21.9669 296.763 1.52832L315.363 1.48926ZM296.006 37.4102L308.973 37.3633L316.144 37.2939C314.516 33.4729 307.788 16.1741 305.636 14.6055L296.006 37.4102Z" fill="var(--fill-0, #FDFCFB)"/>
<path id="Vector" d="M29.526 0.200928C40.209 0.501751 44.874 1.15588 55.2622 3.69525C54.9637 7.89553 55.095 12.936 55.0958 17.2061C46.9695 13.93 20.8335 7.73051 16.053 18.3854C20.6978 26.8774 59.307 25.2353 58.4677 43.6748C57.7147 60.2306 41.7188 63.3348 27.9098 63.6597C17.448 63.8127 10.8503 62.6889 1.01327 59.9237L1.43703 46.7723C6.42378 48.6807 11.607 50.0296 16.8915 50.794C22.8127 51.7032 40.8885 53.8713 41.7615 45.1031C37.275 36.5293 0.0172636 39.1497 1.35617e-05 21.4498C-0.0172364 4.25413 16.425 1.09515 29.526 0.200928Z" fill="var(--fill-0, #FDFCFB)"/>
<path id="Vector_2" d="M100.537 0.158898C108.5 -0.613041 118.564 1.56549 126.183 3.71851C126.04 8.11834 126.1 12.6404 126.108 17.0523C113.179 12.5414 91.8547 8.15887 84.0674 23.6246C81.9157 27.9757 81.5572 32.9967 83.0692 37.6088C88.7362 54.7707 111.282 52.5712 124.788 47.9861L125.515 47.8083L126.4 48.6177C126.88 52.5029 126.198 56.8315 125.755 60.7654C111.019 65.3551 90.0127 65.7684 77.1494 55.9605C70.8689 51.2554 66.7859 44.1864 65.8469 36.3942C62.9782 13.7237 80.2402 2.4042 100.537 0.158898Z" fill="var(--fill-0, #FDFCFB)"/>
<path id="Vector_3" d="M215.215 1.50089L231.318 1.48962C231.408 17.8511 231.34 34.2126 231.115 50.5719L263.673 50.4271L263.77 62.511C247.585 62.4293 231.393 62.445 215.208 62.5583L215.215 1.50089Z" fill="var(--fill-0, #FDFCFB)"/>
</g>
</svg>
