<svg width="14" height="14" overflow="visible" style="display: block;" viewBox="-0.431 -2.283 14 14" fill="none" xmlns="http://www.w3.org/2000/svg">
<path id="Vector" d="M12.8546 1.43795C12.7033 0.875668 12.26 0.432426 11.6978 0.281021C10.6707 0 6.56234 0 6.56234 0C6.56234 0 2.45413 0 1.42706 0.270367C0.875667 0.421612 0.421532 0.875748 0.270287 1.43795C0 2.46494 0 4.59479 0 4.59479C0 4.59479 0 6.73537 0.270287 7.75163C0.421692 8.31384 0.864853 8.75708 1.42714 8.90848C2.46494 9.18958 6.5625 9.18958 6.5625 9.18958C6.5625 9.18958 10.6707 9.18958 11.6978 8.91922C12.2601 8.76789 12.7033 8.32465 12.8547 7.76245C13.1249 6.73537 13.1249 4.60561 13.1249 4.60561C13.1249 4.60561 13.1357 2.46494 12.8546 1.43795ZM5.25433 6.56242V2.62716L8.67064 4.59479L5.25433 6.56242Z" fill="var(--fill-0, white)"/>
</svg>
