<svg width="14" height="14" overflow="visible" style="display: block;" viewBox="0 -0.013 14 14" fill="none" xmlns="http://www.w3.org/2000/svg">
<g id="Group">
<path id="Vector" d="M1.68268 0C0.752805 0 0.000150441 0.754008 0 1.68178C0 2.61045 0.752654 3.3643 1.68283 3.3643C2.61044 3.3643 3.36415 2.61045 3.36415 1.68178C3.36415 0.753858 2.61029 0 1.68268 0Z" fill="var(--fill-0, white)"/>
<path id="Vector_2" d="M0.231378 4.64049H3.13293V13.9759H0.231378V4.64049Z" fill="var(--fill-0, white)"/>
<path id="Vector_3" d="M10.5196 4.40836C9.10812 4.40836 8.1617 5.18223 7.77432 5.91608H7.7355V4.64049H4.95265H4.9525V13.9758H7.85149V9.35755C7.85149 8.14004 8.08332 6.96073 9.59284 6.96073C11.0807 6.96073 11.1006 8.35321 11.1006 9.43563V13.9756H14V8.85523C14 6.34182 13.4577 4.40836 10.5196 4.40836Z" fill="var(--fill-0, white)"/>
</g>
</svg>
