<svg width="14" height="14" overflow="visible" style="display: block;" viewBox="-0.860 -0.011 14 14" fill="none" xmlns="http://www.w3.org/2000/svg">
<path id="Vector" d="M12.2745 3.5C11.4756 3.5 10.7384 3.23531 10.1464 2.78879C9.46743 2.27691 8.97961 1.52605 8.80735 0.660625C8.76469 0.446797 8.74172 0.226133 8.73954 0H6.45715V6.23656L6.45442 9.65262C6.45442 10.5659 5.85969 11.3403 5.03528 11.6126C4.79602 11.6916 4.53762 11.7291 4.26856 11.7143C3.92512 11.6955 3.60329 11.5918 3.32356 11.4245C2.72829 11.0685 2.32469 10.4226 2.31375 9.68379C2.29653 8.52906 3.23004 7.58762 4.38395 7.58762C4.61172 7.58762 4.83047 7.6248 5.03528 7.69234V5.98773V5.37496C4.81926 5.34297 4.59942 5.32629 4.37711 5.32629C3.11411 5.32629 1.93286 5.85129 1.08848 6.79711C0.450278 7.51188 0.0674651 8.42379 0.00840257 9.38C-0.0689802 10.6362 0.390668 11.8303 1.28207 12.7113C1.41305 12.8406 1.55059 12.9607 1.69442 13.0714C2.45868 13.6596 3.39301 13.9784 4.37711 13.9784C4.59942 13.9784 4.81926 13.962 5.03528 13.93C5.95457 13.7938 6.80278 13.373 7.47215 12.7113C8.29465 11.8984 8.74911 10.8191 8.75403 9.67039L8.74227 4.56914C9.13465 4.87184 9.56368 5.1223 10.0241 5.31672C10.7403 5.61887 11.4996 5.77199 12.2811 5.77172V4.11441V3.49945C12.2816 3.5 12.2751 3.5 12.2745 3.5Z" fill="var(--fill-0, white)"/>
</svg>
