<svg width="26.2" height="5.22" overflow="visible" style="display: block;" viewBox="0 0 26.1989 5.2219" fill="none" xmlns="http://www.w3.org/2000/svg">
<g id="LABS">
<path id="Subtract" d="M16.6113 0.129969C18.0807 0.126604 20.788 0.611585 18.7685 2.53427C19.5001 3.08304 19.8467 3.51999 19.3915 4.43563C19.364 4.46408 19.3366 4.49267 19.3085 4.52059C18.395 5.42665 15.5409 5.12114 14.2333 5.11532C14.2838 3.4623 14.2901 1.80771 14.2519 0.154383L16.6113 0.129969ZM18.0458 3.45516C17.6479 2.88014 16.28 3.10357 15.6074 3.10165C15.6162 3.42021 15.6167 3.83248 15.6464 4.14169C16.3476 4.15601 17.276 4.21435 17.9355 4.00985C18.0289 3.77665 18.0728 3.70096 18.0458 3.45516ZM17.8701 1.42196C17.537 0.938654 16.2095 1.11203 15.6591 1.13095L15.6279 2.11337C16.254 2.11775 17.1952 2.1691 17.7695 1.97079C17.9099 1.63568 17.9168 1.74023 17.8701 1.42196Z" fill="var(--fill-0, #6FB0E5)"/>
<path id="Subtract_2" d="M10.0572 0.129925C10.5645 0.91989 12.2969 4.29656 12.6617 5.15434C12.1914 5.12021 11.5951 5.1253 11.1148 5.11625C10.9072 4.67893 10.7415 4.07586 10.2554 3.97953C9.4704 3.98685 8.75666 3.98838 7.97321 3.95121C7.84989 4.38705 7.71169 4.69401 7.52985 5.11039C7.00755 5.12788 6.45044 5.1093 5.92535 5.10063C6.67605 3.56941 7.67567 1.66877 8.48785 0.157268C8.9715 0.119219 9.56438 0.131958 10.0572 0.129925ZM9.22125 1.31254C8.95049 1.86671 8.70019 2.43079 8.47223 3.00395L9.315 3.00785C9.49254 3.01182 9.95882 3.04931 10.0816 2.97074C10.0237 2.65782 9.47271 1.4597 9.22125 1.31254Z" fill="var(--fill-0, #6FB0E5)"/>
<path id="Vector" d="M23.4248 0.019065C24.4104 -0.0554864 25.0471 0.094221 25.9664 0.370189L25.8806 1.51431C25.175 1.25161 23.0215 0.731789 22.5703 1.46894C22.7851 2.33559 26.2139 2.07628 26.1988 3.53346C26.1846 4.94368 24.8944 5.14442 23.7663 5.21987C23.0024 5.24053 21.9173 5.09821 21.1387 5.01424L21.1249 3.87395C21.8847 4.08374 24.0683 4.45107 24.6744 3.87591L24.6591 3.72719C24.2068 3.22953 22.2755 3.14849 21.663 2.62135C21.4057 2.39989 21.0976 2.20194 21.0659 1.81335C20.9549 0.454313 22.4143 0.177817 23.4248 0.019065Z" fill="var(--fill-0, #6FB0E5)"/>
<path id="Vector_2" d="M9.22289e-07 0.130022L1.48505 0.138388C1.50469 1.45823 1.49257 2.80935 1.49506 4.13175C2.5034 4.12693 3.51182 4.12942 4.52016 4.13929L4.51986 5.11584C3.03413 5.1414 1.49047 5.12255 9.22289e-07 5.12542C0.0318267 3.49689 0.000979019 1.76669 9.22289e-07 0.130022Z" fill="var(--fill-0, #6FB0E5)"/>
</g>
</svg>
