<svg width="92.47" height="12.05" overflow="visible" style="display: block;" viewBox="0 0 92.4745 12.0488" fill="none" xmlns="http://www.w3.org/2000/svg">
<g id="SCALARA">
<path id="Subtract" d="M66.2879 0.281514C70.3377 0.259586 78.6252 -0.994394 77.1366 5.37136C76.8486 6.59881 75.8079 7.16242 74.785 7.62429C75.8023 8.97799 76.786 10.3571 77.7342 11.76L75.6981 11.7874L74.3807 11.7903C73.5581 10.5315 72.7081 9.29064 71.8319 8.06862L69.2284 8.13991C69.2044 9.341 69.2154 10.5854 69.2098 11.7903L66.2782 11.7962L66.2879 0.281514ZM73.786 5.39968C76.0237 2.15197 70.8677 2.50093 69.2078 2.5198L69.2127 5.94948C70.7394 5.98372 72.4751 6.20326 73.786 5.39968Z" fill="var(--fill-0, #2284F1)"/>
<path id="Subtract_2" d="M87.2067 0.281277C88.9733 3.91921 90.7599 8.05622 92.4743 11.7715L89.4166 11.7901C89.1415 11.1007 88.8254 9.94325 88.3287 9.41995C88.0098 9.08257 87.5778 9.17697 87.0924 9.17385L82.7692 9.16897L81.6754 11.7871L78.4655 11.7823C80.1954 8.52298 82.1555 3.74471 83.7203 0.2803L87.2067 0.281277ZM85.3317 2.73538C84.756 4.16267 84.1771 5.66071 83.5563 7.06253L85.4528 7.04397L87.359 7.02542C87.044 6.28422 85.8015 3.13916 85.3317 2.73538Z" fill="var(--fill-0, #2284F1)"/>
<path id="Subtract_3" d="M33.7504 0.278643C35.479 4.12581 37.246 7.95608 39.0493 11.7689L35.9292 11.7982C35.6131 11.0516 35.3516 9.99695 34.8295 9.36556C34.6207 9.11189 34.364 9.18391 34.0014 9.17415C32.4338 9.17542 30.8659 9.16933 29.2983 9.15462C28.9117 10.0059 28.5376 10.9244 28.1694 11.7894L25.0864 11.7855C25.5323 10.6148 26.3946 8.8821 26.935 7.68782L30.2436 0.281572L33.7504 0.278643ZM30.0942 7.06478L31.9555 7.03548L33.9292 7.01302C33.6285 6.29743 32.3096 3.03069 31.9526 2.64095L30.0942 7.06478Z" fill="var(--fill-0, #2284F1)"/>
<path id="Subtract_4" d="M59.3329 0.280853C60.7158 3.75884 62.9665 8.26874 64.6005 11.773L61.4589 11.8062C61.1866 11.0748 60.8398 10.0441 60.4081 9.39999C60.2219 9.12384 60.0438 9.19339 59.6825 9.17245L54.8544 9.16367L53.7265 11.7887L50.6718 11.7906C52.437 7.97686 54.159 4.14205 55.8339 0.287689L59.3329 0.280853ZM55.6913 7.05527L58.1308 7.04648L59.4794 7.03281C59.1729 6.31153 57.9078 3.05069 57.5028 2.75449L55.6913 7.05527Z" fill="var(--fill-0, #2284F1)"/>
<path id="Vector" d="M5.55507 0.0378921C7.56498 0.0946231 8.44266 0.217982 10.3971 0.696871C10.341 1.48898 10.3657 2.43955 10.3658 3.24481C8.83691 2.627 3.91965 1.45786 3.02024 3.46721C3.89411 5.0687 11.1581 4.75901 11.0002 8.23644C10.8585 11.3586 7.84903 11.944 5.25099 12.0053C3.2827 12.0342 2.04139 11.8222 0.19064 11.3008L0.270365 8.82058C1.20858 9.18049 2.18376 9.43486 3.17799 9.57902C4.29202 9.75049 7.69283 10.1593 7.85707 8.5058C7.01298 6.8889 0.00324887 7.38306 3.42799e-06 4.04513C-0.00324201 0.802268 3.09022 0.206529 5.55507 0.0378921Z" fill="var(--fill-0, #2284F1)"/>
<path id="Vector_2" d="M18.9151 0.0299658C20.4134 -0.115611 22.3069 0.295228 23.7402 0.701258C23.7134 1.531 23.7247 2.3838 23.7261 3.21581C21.2936 2.36513 17.2817 1.53865 15.8166 4.45527C15.4117 5.27582 15.3443 6.2227 15.6288 7.09248C16.695 10.329 20.9367 9.91417 23.4778 9.04949L23.6147 9.01596L23.7812 9.16861C23.8715 9.9013 23.7431 10.7176 23.6598 11.4595C20.8872 12.325 16.9351 12.403 14.515 10.5534C13.3334 9.66603 12.5652 8.33292 12.3885 6.86343C11.8488 2.58809 15.0965 0.453397 18.9151 0.0299658Z" fill="var(--fill-0, #2284F1)"/>
<path id="Vector_3" d="M40.4909 0.283046L43.5205 0.280922C43.5374 3.36646 43.5247 6.45201 43.4824 9.53712L49.6078 9.50982L49.6261 11.7887C46.5811 11.7733 43.5346 11.7762 40.4895 11.7976L40.4909 0.283046Z" fill="var(--fill-0, #2284F1)"/>
</g>
</svg>
