<svg width="34.9" height="38" overflow="visible" style="display: block;" viewBox="0 0 34.9002 38" fill="none" xmlns="http://www.w3.org/2000/svg">
<g id="LOGO">
<path id="Rectangle 9" d="M19.0023 24.139L24.7406 26.402L18.626 29.2308L13.6403 26.8734L19.0023 24.139Z" fill="var(--fill-0, #123587)"/>
<path id="Rectangle 1" d="M18.3438 0L34.9002 7.63772L25.9635 11.9752L18.3438 8.48635V0Z" fill="var(--fill-0, #7FCCF8)"/>
<path id="Rectangle 2" d="M2.53991 7.54342L18.3438 0V8.48635L11.947 11.6923L2.53991 7.54342Z" fill="var(--fill-0, #4099ED)"/>
<path id="Rectangle 3" d="M2.53991 7.54342L11.947 11.6923V21.2159L2.53991 17.1613V7.54342Z" fill="var(--fill-0, #0E65CC)"/>
<path id="Rectangle 4" d="M11.947 11.6923L22.2007 16.1241V25.4591L11.947 21.2159V11.6923Z" fill="var(--fill-0, #74C6FB)"/>
<path id="Rectangle 5" d="M22.2007 16.1241L34.2417 21.9702V30.268L22.2007 25.4591V16.1241Z" fill="var(--fill-0, #2F6FD5)"/>
<path id="Rectangle 6" d="M18.626 29.2308L34.2417 21.9702V30.6452L18.626 38V29.2308Z" fill="var(--fill-0, #123587)"/>
<path id="Rectangle 7" d="M10.2537 25.2705L18.626 29.2308V38L0 29.9851L10.2537 25.2705Z" fill="var(--fill-0, #3F95E8)"/>
<path id="Rectangle 8" d="M18.3438 8.48635L25.9635 11.9752L19.5667 14.9926L11.947 11.6923L18.3438 8.48635Z" fill="var(--fill-0, #1A4BAA)"/>
<path id="Intersect" d="M34.2417 30.6452L24.6609 26.4416L34.2417 21.9702V30.6452Z" fill="var(--fill-0, #1A4BAA)"/>
</g>
</svg>
