<svg width="30.4555" height="3.49493" overflow="visible" style="display: block;" viewBox="0 0 30.4555 3.49493" fill="none" xmlns="http://www.w3.org/2000/svg">
<g id="ver">
<path id="Union" d="M0.499206 1.49811L0.499206 0.000490665H2.49603V1.99732H1.99682V3.49493H0L0 1.49811H0.499206Z" fill="var(--fill-0, #7AD2FE)"/>
<path id="Union_2" d="M4.49258 1.49762V0H6.4894V1.99683H5.99019V3.49444H3.99337V1.49762H4.49258Z" fill="var(--fill-0, #7AD2FE)"/>
<path id="Union_3" d="M8.48791 1.49762V0H10.4847V1.99683H9.98553V3.49444H7.9887V1.49762H8.48791Z" fill="var(--fill-0, #7AD2FE)"/>
<path id="Union_4" d="M12.4793 1.49762V0H14.4761V1.99683H13.9769V3.49444H11.9801V1.49762H12.4793Z" fill="var(--fill-0, #7AD2FE)"/>
<path id="Union_5" d="M16.4766 1.49762V0H18.4734V1.99683H17.9742V3.49444H15.9774V1.49762H16.4766Z" fill="var(--fill-0, #7AD2FE)"/>
<path id="Union_6" d="M20.47 1.49762V0H22.4668V1.99683H21.9676V3.49444H19.9708V1.49762H20.47Z" fill="var(--fill-0, #7AD2FE)"/>
<path id="Union_7" d="M24.4614 1.49762V0H26.4582V1.99683H25.959V3.49444H23.9622V1.49762H24.4614Z" fill="var(--fill-0, #7AD2FE)"/>
<path id="Union_8" d="M28.4587 1.49762V0H30.4555V1.99683H29.9563V3.49444H27.9595V1.49762H28.4587Z" fill="var(--fill-0, #7AD2FE)"/>
</g>
</svg>
