<svg width="3.49444" height="30.4508" overflow="visible" style="display: block;" viewBox="0 0 3.49444 30.4508" fill="none" xmlns="http://www.w3.org/2000/svg">
<g id="rec">
<path id="Union" d="M1.99683 0.499206H3.49444V2.49603H1.49762V1.99683H0V0H1.99683V0.499206Z" fill="var(--fill-0, #7AD2FE)"/>
<path id="Union_2" d="M1.99683 4.49356H3.49444V6.49038H1.49762V5.99118H0V3.99435H1.99683V4.49356Z" fill="var(--fill-0, #7AD2FE)"/>
<path id="Union_3" d="M1.99683 8.48717H3.49444V10.484H1.49762V9.98479H0V7.98796H1.99683V8.48717Z" fill="var(--fill-0, #7AD2FE)"/>
<path id="Union_4" d="M1.99683 12.4805H3.49444V14.4774H1.49762V13.9782H0V11.9813H1.99683V12.4805Z" fill="var(--fill-0, #7AD2FE)"/>
<path id="Union_5" d="M1.99683 16.4744H3.49444V18.4712H1.49762V17.972H0V15.9752H1.99683V16.4744Z" fill="var(--fill-0, #7AD2FE)"/>
<path id="Union_6" d="M1.99683 20.4668H3.49444V22.4636H1.49762V21.9644H0V19.9676H1.99683V20.4668Z" fill="var(--fill-0, #7AD2FE)"/>
<path id="Union_7" d="M1.99683 24.4602H3.49444V26.457H1.49762V25.9578H0V23.961H1.99683V24.4602Z" fill="var(--fill-0, #7AD2FE)"/>
<path id="Union_8" d="M1.99683 28.454H3.49444V30.4508H1.49762V29.9516H0V27.9548H1.99683V28.454Z" fill="var(--fill-0, #7AD2FE)"/>
</g>
</svg>
