<svg width="3.49454" height="30.5182" overflow="visible" style="display: block;" viewBox="0 0 3.49454 30.5182" fill="none" xmlns="http://www.w3.org/2000/svg">
<g id="rec">
<path id="Union" d="M1.99683 0.500294H3.49444V2.50147H1.49762V2.00118H0V0H1.99683V0.500294Z" fill="var(--fill-0, #7AD2FE)"/>
<path id="Union_2" d="M1.99683 4.5026H3.49444V6.50377H1.49762V6.00348H0V4.0023H1.99683V4.5026Z" fill="var(--fill-0, #7AD2FE)"/>
<path id="Union_3" d="M1.99683 8.5049H3.49444V10.5061H1.49762V10.0058H0V8.00461H1.99683V8.5049Z" fill="var(--fill-0, #7AD2FE)"/>
<path id="Union_4" d="M1.99683 12.5074H3.49444V14.5086H1.49762V14.0083H0V12.0072H1.99683V12.5074Z" fill="var(--fill-0, #7AD2FE)"/>
<path id="Union_5" d="M1.99683 16.5097H3.49444V18.5109H1.49762V18.0106H0V16.0095H1.99683V16.5097Z" fill="var(--fill-0, #7AD2FE)"/>
<path id="Union_6" d="M1.99683 20.5121H3.49444V22.5132H1.49762V22.0129H0V20.0118H1.99683V20.5121Z" fill="var(--fill-0, #7AD2FE)"/>
<path id="Union_7" d="M1.99683 24.5146H3.49444V26.5158H1.49762V26.0155H0V24.0143H1.99683V24.5146Z" fill="var(--fill-0, #7AD2FE)"/>
<path id="Union_8" d="M1.99683 28.5169H3.49444V30.5181H1.49762V30.0178H0V28.0166H1.99683V28.5169Z" fill="var(--fill-0, #7AD2FE)"/>
</g>
</svg>
