<svg width="79.1791" height="139.778" overflow="visible" style="display: block;" viewBox="0 0 79.1791 139.778" fill="none" xmlns="http://www.w3.org/2000/svg">
<g id="flash">
<g id="Vector">
<path d="M74.9629 0.5C75.3626 0.715706 75.5818 0.832796 75.877 1.125C76.2575 1.50187 76.3798 1.88941 76.3613 2.28418C76.3417 2.70262 76.1605 3.16902 75.8555 3.66113C75.4657 4.29004 75.0694 4.92021 74.6699 5.55078L73.4668 7.44434L69.0781 14.3652L55.54 35.7344L51.3291 42.3818C50.532 43.641 49.5901 45.059 48.8408 46.3691L48.3682 47.1953L49.3164 47.1152C50.6728 47.0013 52.8348 47.0684 54.3076 47.0684L63.5732 47.0693L72.1758 47.0645C73.6982 47.063 75.1995 47.0361 76.6973 47.0947C77.2205 47.1152 77.6262 47.2302 78.0195 47.5254C78.6936 48.032 78.8819 49.1014 78.4395 49.8271L78.3428 49.9678C77.3583 51.2293 76.2645 52.4793 75.2021 53.7383L69.2998 60.7422L50.7686 82.751L19.291 120.134L8.83301 132.553L3.9248 138.396C3.69654 138.669 3.50245 138.804 3.2998 138.916C3.18689 138.978 3.08029 139.03 2.9375 139.102C2.83796 139.152 2.73068 139.21 2.61523 139.277H1.88965C1.13381 138.812 0.757434 138.482 0.597656 138.121C0.442462 137.77 0.444588 137.27 0.816406 136.312C1.36281 134.905 1.97927 133.518 2.5752 132.106L5.84766 124.345L15.9375 100.382L23.1426 83.2666V83.2656L25.4697 77.7344C25.838 76.859 26.344 75.5549 26.7363 74.7969L27.1143 74.0674L26.292 74.0664L9.16406 74.0635H9.16309C7.04814 74.0648 4.95288 74.0915 2.84961 74.0684C1.86752 74.0579 1.12788 73.8512 0.725586 73.1309H0.724609C0.43824 72.6182 0.501784 71.962 0.797852 71.1768C1.09636 70.3851 1.55309 69.6458 1.9082 68.9434L1.90918 68.9414L4.12402 64.5254L4.125 64.5244L12.7188 47.3369L28.1631 16.4453L33.1631 6.43848C33.9979 4.76779 34.8327 3.06937 35.6875 1.41797C35.8836 1.03917 36.2855 0.783604 36.7988 0.5H74.9629Z" stroke="url(#paint0_radial_0_129)"/>
<path d="M74.9629 0.5C75.3626 0.715706 75.5818 0.832796 75.877 1.125C76.2575 1.50187 76.3798 1.88941 76.3613 2.28418C76.3417 2.70262 76.1605 3.16902 75.8555 3.66113C75.4657 4.29004 75.0694 4.92021 74.6699 5.55078L73.4668 7.44434L69.0781 14.3652L55.54 35.7344L51.3291 42.3818C50.532 43.641 49.5901 45.059 48.8408 46.3691L48.3682 47.1953L49.3164 47.1152C50.6728 47.0013 52.8348 47.0684 54.3076 47.0684L63.5732 47.0693L72.1758 47.0645C73.6982 47.063 75.1995 47.0361 76.6973 47.0947C77.2205 47.1152 77.6262 47.2302 78.0195 47.5254C78.6936 48.032 78.8819 49.1014 78.4395 49.8271L78.3428 49.9678C77.3583 51.2293 76.2645 52.4793 75.2021 53.7383L69.2998 60.7422L50.7686 82.751L19.291 120.134L8.83301 132.553L3.9248 138.396C3.69654 138.669 3.50245 138.804 3.2998 138.916C3.18689 138.978 3.08029 139.03 2.9375 139.102C2.83796 139.152 2.73068 139.21 2.61523 139.277H1.88965C1.13381 138.812 0.757434 138.482 0.597656 138.121C0.442462 137.77 0.444588 137.27 0.816406 136.312C1.36281 134.905 1.97927 133.518 2.5752 132.106L5.84766 124.345L15.9375 100.382L23.1426 83.2666V83.2656L25.4697 77.7344C25.838 76.859 26.344 75.5549 26.7363 74.7969L27.1143 74.0674L26.292 74.0664L9.16406 74.0635H9.16309C7.04814 74.0648 4.95288 74.0915 2.84961 74.0684C1.86752 74.0579 1.12788 73.8512 0.725586 73.1309H0.724609C0.43824 72.6182 0.501784 71.962 0.797852 71.1768C1.09636 70.3851 1.55309 69.6458 1.9082 68.9434L1.90918 68.9414L4.12402 64.5254L4.125 64.5244L12.7188 47.3369L28.1631 16.4453L33.1631 6.43848C33.9979 4.76779 34.8327 3.06937 35.6875 1.41797C35.8836 1.03917 36.2855 0.783604 36.7988 0.5H74.9629Z" stroke="url(#paint1_radial_0_129)"/>
</g>
</g>
<defs>
<radialGradient id="paint0_radial_0_129" cx="0" cy="0" r="1" gradientUnits="userSpaceOnUse" gradientTransform="translate(23.7123 27.4563) rotate(100.853) scale(116.654 100.347)">
<stop stop-color="#7AD2FE"/>
<stop offset="1" stop-color="#0C1B3B" stop-opacity="0"/>
</radialGradient>
<radialGradient id="paint1_radial_0_129" cx="0" cy="0" r="1" gradientTransform="matrix(13.7698 -133.527 71.4242 58.0811 46.4501 139.369)" gradientUnits="userSpaceOnUse">
<stop stop-color="#1D55D5" stop-opacity="0.5"/>
<stop offset="1" stop-color="#1E46AF" stop-opacity="0.02"/>
</radialGradient>
</defs>
</svg>
