<svg width="80.6553" height="51.917" overflow="visible" style="display: block;" viewBox="0 0 80.6553 51.917" fill="none" xmlns="http://www.w3.org/2000/svg">
<g id="bubble">
<foreignObject x="-20" y="-20" width="120.655" height="91.917"><div xmlns="http://www.w3.org/1999/xhtml" style="backdrop-filter:blur(10px);clip-path:url(#bgblur_0_0_43_clip_path);height:100%;width:100%"></div></foreignObject><g id="Subtract" filter="url(#filter0_i_0_43)" data-figma-bg-blur-radius="20">
<mask id="path-1-inside-1_0_43" fill="white">
<path d="M73.876 0C77.6196 0 80.6553 3.03469 80.6553 6.77832V51.917L70.9805 40.7041H6.77832C3.03485 40.7041 0.000178325 37.6692 0 33.9258V6.77832C0 3.03472 3.03474 4.12345e-05 6.77832 0H73.876ZM20.9033 16.9033C18.5927 16.9035 16.7198 18.7772 16.7197 21.0879C16.7197 23.3986 18.5926 25.2722 20.9033 25.2725C23.2141 25.2724 25.0879 23.3987 25.0879 21.0879C25.0878 18.7771 23.2141 16.9034 20.9033 16.9033ZM39.6279 16.9844C38.8165 16.823 37.9753 16.9052 37.2109 17.2217C36.4464 17.5384 35.7928 18.0756 35.333 18.7637C34.8734 19.4517 34.628 20.2605 34.6279 21.0879C34.6279 22.1976 35.0688 23.2622 35.8535 24.0469C36.6382 24.8314 37.7029 25.2725 38.8125 25.2725C39.6398 25.2724 40.4488 25.027 41.1367 24.5674C41.8247 24.1077 42.3611 23.4539 42.6777 22.6895C42.9943 21.9251 43.0773 21.0839 42.916 20.2725C42.7546 19.4608 42.3556 18.7141 41.7705 18.1289C41.1854 17.5439 40.4394 17.1458 39.6279 16.9844ZM56.7188 16.9033C54.408 16.9034 52.5342 18.7771 52.5342 21.0879C52.5342 23.3987 54.408 25.2723 56.7188 25.2725C59.0295 25.2724 60.9033 23.3987 60.9033 21.0879C60.9033 18.7771 59.0295 16.9034 56.7188 16.9033Z"/>
</mask>
<path d="M73.876 0C77.6196 0 80.6553 3.03469 80.6553 6.77832V51.917L70.9805 40.7041H6.77832C3.03485 40.7041 0.000178325 37.6692 0 33.9258V6.77832C0 3.03472 3.03474 4.12345e-05 6.77832 0H73.876ZM20.9033 16.9033C18.5927 16.9035 16.7198 18.7772 16.7197 21.0879C16.7197 23.3986 18.5926 25.2722 20.9033 25.2725C23.2141 25.2724 25.0879 23.3987 25.0879 21.0879C25.0878 18.7771 23.2141 16.9034 20.9033 16.9033ZM39.6279 16.9844C38.8165 16.823 37.9753 16.9052 37.2109 17.2217C36.4464 17.5384 35.7928 18.0756 35.333 18.7637C34.8734 19.4517 34.628 20.2605 34.6279 21.0879C34.6279 22.1976 35.0688 23.2622 35.8535 24.0469C36.6382 24.8314 37.7029 25.2725 38.8125 25.2725C39.6398 25.2724 40.4488 25.027 41.1367 24.5674C41.8247 24.1077 42.3611 23.4539 42.6777 22.6895C42.9943 21.9251 43.0773 21.0839 42.916 20.2725C42.7546 19.4608 42.3556 18.7141 41.7705 18.1289C41.1854 17.5439 40.4394 17.1458 39.6279 16.9844ZM56.7188 16.9033C54.408 16.9034 52.5342 18.7771 52.5342 21.0879C52.5342 23.3987 54.408 25.2723 56.7188 25.2725C59.0295 25.2724 60.9033 23.3987 60.9033 21.0879C60.9033 18.7771 59.0295 16.9034 56.7188 16.9033Z" fill="url(#paint0_radial_0_43)"/>
<path d="M73.876 0C77.6196 0 80.6553 3.03469 80.6553 6.77832V51.917L70.9805 40.7041H6.77832C3.03485 40.7041 0.000178325 37.6692 0 33.9258V6.77832C0 3.03472 3.03474 4.12345e-05 6.77832 0H73.876ZM20.9033 16.9033C18.5927 16.9035 16.7198 18.7772 16.7197 21.0879C16.7197 23.3986 18.5926 25.2722 20.9033 25.2725C23.2141 25.2724 25.0879 23.3987 25.0879 21.0879C25.0878 18.7771 23.2141 16.9034 20.9033 16.9033ZM39.6279 16.9844C38.8165 16.823 37.9753 16.9052 37.2109 17.2217C36.4464 17.5384 35.7928 18.0756 35.333 18.7637C34.8734 19.4517 34.628 20.2605 34.6279 21.0879C34.6279 22.1976 35.0688 23.2622 35.8535 24.0469C36.6382 24.8314 37.7029 25.2725 38.8125 25.2725C39.6398 25.2724 40.4488 25.027 41.1367 24.5674C41.8247 24.1077 42.3611 23.4539 42.6777 22.6895C42.9943 21.9251 43.0773 21.0839 42.916 20.2725C42.7546 19.4608 42.3556 18.7141 41.7705 18.1289C41.1854 17.5439 40.4394 17.1458 39.6279 16.9844ZM56.7188 16.9033C54.408 16.9034 52.5342 18.7771 52.5342 21.0879C52.5342 23.3987 54.408 25.2723 56.7188 25.2725C59.0295 25.2724 60.9033 23.3987 60.9033 21.0879C60.9033 18.7771 59.0295 16.9034 56.7188 16.9033Z" fill="url(#paint1_linear_0_43)"/>
<path d="M73.876 0C77.6196 0 80.6553 3.03469 80.6553 6.77832V51.917L70.9805 40.7041H6.77832C3.03485 40.7041 0.000178325 37.6692 0 33.9258V6.77832C0 3.03472 3.03474 4.12345e-05 6.77832 0H73.876ZM20.9033 16.9033C18.5927 16.9035 16.7198 18.7772 16.7197 21.0879C16.7197 23.3986 18.5926 25.2722 20.9033 25.2725C23.2141 25.2724 25.0879 23.3987 25.0879 21.0879C25.0878 18.7771 23.2141 16.9034 20.9033 16.9033ZM39.6279 16.9844C38.8165 16.823 37.9753 16.9052 37.2109 17.2217C36.4464 17.5384 35.7928 18.0756 35.333 18.7637C34.8734 19.4517 34.628 20.2605 34.6279 21.0879C34.6279 22.1976 35.0688 23.2622 35.8535 24.0469C36.6382 24.8314 37.7029 25.2725 38.8125 25.2725C39.6398 25.2724 40.4488 25.027 41.1367 24.5674C41.8247 24.1077 42.3611 23.4539 42.6777 22.6895C42.9943 21.9251 43.0773 21.0839 42.916 20.2725C42.7546 19.4608 42.3556 18.7141 41.7705 18.1289C41.1854 17.5439 40.4394 17.1458 39.6279 16.9844ZM56.7188 16.9033C54.408 16.9034 52.5342 18.7771 52.5342 21.0879C52.5342 23.3987 54.408 25.2723 56.7188 25.2725C59.0295 25.2724 60.9033 23.3987 60.9033 21.0879C60.9033 18.7771 59.0295 16.9034 56.7188 16.9033Z" fill="url(#paint2_radial_0_43)"/>
<path d="M73.876 0C77.6196 0 80.6553 3.03469 80.6553 6.77832V51.917L70.9805 40.7041H6.77832C3.03485 40.7041 0.000178325 37.6692 0 33.9258V6.77832C0 3.03472 3.03474 4.12345e-05 6.77832 0H73.876ZM20.9033 16.9033C18.5927 16.9035 16.7198 18.7772 16.7197 21.0879C16.7197 23.3986 18.5926 25.2722 20.9033 25.2725C23.2141 25.2724 25.0879 23.3987 25.0879 21.0879C25.0878 18.7771 23.2141 16.9034 20.9033 16.9033ZM39.6279 16.9844C38.8165 16.823 37.9753 16.9052 37.2109 17.2217C36.4464 17.5384 35.7928 18.0756 35.333 18.7637C34.8734 19.4517 34.628 20.2605 34.6279 21.0879C34.6279 22.1976 35.0688 23.2622 35.8535 24.0469C36.6382 24.8314 37.7029 25.2725 38.8125 25.2725C39.6398 25.2724 40.4488 25.027 41.1367 24.5674C41.8247 24.1077 42.3611 23.4539 42.6777 22.6895C42.9943 21.9251 43.0773 21.0839 42.916 20.2725C42.7546 19.4608 42.3556 18.7141 41.7705 18.1289C41.1854 17.5439 40.4394 17.1458 39.6279 16.9844ZM56.7188 16.9033C54.408 16.9034 52.5342 18.7771 52.5342 21.0879C52.5342 23.3987 54.408 25.2723 56.7188 25.2725C59.0295 25.2724 60.9033 23.3987 60.9033 21.0879C60.9033 18.7771 59.0295 16.9034 56.7188 16.9033Z" fill="url(#paint3_radial_0_43)"/>
<path d="M80.6553 51.917L79.8981 52.5703L81.6553 54.6067V51.917H80.6553ZM70.9805 40.7041L71.7376 40.0508L71.4384 39.7041H70.9805V40.7041ZM6.77832 40.7041L6.77831 41.7041H6.77832V40.7041ZM0 33.9258H-1V33.9258L0 33.9258ZM6.77832 0V-1H6.77831L6.77832 0ZM20.9033 16.9033L20.9034 15.9033H20.9032L20.9033 16.9033ZM16.7197 21.0879L15.7197 21.0879V21.0879H16.7197ZM20.9033 25.2725L20.9032 26.2725H20.9034L20.9033 25.2725ZM25.0879 21.0879H26.0879V21.0879L25.0879 21.0879ZM39.6279 16.9844L39.823 16.0036L39.823 16.0036L39.6279 16.9844ZM37.2109 17.2217L36.8284 16.2978L36.8282 16.2978L37.2109 17.2217ZM35.333 18.7637L34.5015 18.2081L34.5015 18.2082L35.333 18.7637ZM34.6279 21.0879L33.6279 21.0879V21.0879H34.6279ZM35.8535 24.0469L35.1464 24.754L35.1465 24.754L35.8535 24.0469ZM38.8125 25.2725V26.2725H38.8126L38.8125 25.2725ZM41.1367 24.5674L41.6922 25.3989L41.6923 25.3988L41.1367 24.5674ZM42.6777 22.6895L43.6016 23.0722L43.6016 23.0721L42.6777 22.6895ZM42.916 20.2725L43.8968 20.0776L43.8968 20.0774L42.916 20.2725ZM41.7705 18.1289L42.4776 17.4218L42.4775 17.4217L41.7705 18.1289ZM56.7188 16.9033L56.7188 15.9033H56.7187L56.7188 16.9033ZM52.5342 21.0879L51.5342 21.0879V21.0879H52.5342ZM56.7188 25.2725L56.7187 26.2725H56.7188L56.7188 25.2725ZM60.9033 21.0879H61.9033V21.0879L60.9033 21.0879ZM73.876 0V1C77.0675 1 79.6553 3.58717 79.6553 6.77832H80.6553H81.6553C81.6553 2.48222 78.1717 -1 73.876 -1V0ZM80.6553 6.77832H79.6553V51.917H80.6553H81.6553V6.77832H80.6553ZM80.6553 51.917L81.4124 51.2637L71.7376 40.0508L70.9805 40.7041L70.2233 41.3574L79.8981 52.5703L80.6553 51.917ZM70.9805 40.7041V39.7041H6.77832V40.7041V41.7041H70.9805V40.7041ZM6.77832 40.7041L6.77833 39.7041C3.58717 39.7041 1.00015 37.117 1 33.9257L0 33.9258L-1 33.9258C-0.999795 38.2215 2.48253 41.7041 6.77831 41.7041L6.77832 40.7041ZM0 33.9258H1V6.77832H0H-1V33.9258H0ZM0 6.77832H1C1 3.58702 3.58702 1.00004 6.77833 1L6.77832 0L6.77831 -1C2.48247 -0.999953 -1 2.48242 -1 6.77832H0ZM6.77832 0V1H73.876V0V-1H6.77832V0ZM20.9033 16.9033L20.9032 15.9033C18.0401 15.9036 15.7198 18.2251 15.7197 21.0879L16.7197 21.0879L17.7197 21.0879C17.7198 19.3292 19.1452 17.9035 20.9034 17.9033L20.9033 16.9033ZM16.7197 21.0879H15.7197C15.7197 23.9507 18.0401 26.2722 20.9032 26.2725L20.9033 25.2725L20.9034 24.2725C19.1451 24.2723 17.7197 22.8466 17.7197 21.0879H16.7197ZM20.9033 25.2725L20.9034 26.2725C23.7664 26.2723 26.0879 23.951 26.0879 21.0879H25.0879H24.0879C24.0879 22.8464 22.6619 24.2724 20.9033 24.2725L20.9033 25.2725ZM25.0879 21.0879L26.0879 21.0879C26.0878 18.2248 23.7664 15.9034 20.9034 15.9033L20.9033 16.9033L20.9033 17.9033C22.6618 17.9034 24.0878 19.3294 24.0879 21.0879L25.0879 21.0879ZM39.6279 16.9844L39.823 16.0036C38.8182 15.8038 37.7759 15.9054 36.8284 16.2978L37.2109 17.2217L37.5935 18.1456C38.1747 17.905 38.8148 17.8423 39.4329 17.9652L39.6279 16.9844ZM37.2109 17.2217L36.8282 16.2978C35.8805 16.6904 35.0709 17.3561 34.5015 18.2081L35.333 18.7637L36.1645 19.3193C36.5147 18.7952 37.0123 18.3863 37.5936 18.1456L37.2109 17.2217ZM35.333 18.7637L34.5015 18.2082C33.932 19.0605 33.628 20.0626 33.6279 21.0879L34.6279 21.0879L35.6279 21.0879C35.6279 20.4583 35.8147 19.8428 36.1645 19.3192L35.333 18.7637ZM34.6279 21.0879H33.6279C33.6279 22.4628 34.1742 23.7817 35.1464 24.754L35.8535 24.0469L36.5606 23.3398C35.9635 22.7426 35.6279 21.9324 35.6279 21.0879H34.6279ZM35.8535 24.0469L35.1465 24.754C36.1186 25.7261 37.4377 26.2725 38.8125 26.2725V25.2725V24.2725C37.9681 24.2725 37.1577 23.9368 36.5606 23.3397L35.8535 24.0469ZM38.8125 25.2725L38.8126 26.2725C39.8376 26.2723 40.8399 25.9683 41.6922 25.3989L41.1367 24.5674L40.5812 23.7359C40.0577 24.0856 39.442 24.2724 38.8124 24.2725L38.8125 25.2725ZM41.1367 24.5674L41.6923 25.3988C42.5448 24.8292 43.2093 24.0192 43.6016 23.0722L42.6777 22.6895L41.7539 22.3067C41.5128 22.8885 41.1045 23.3862 40.5811 23.7359L41.1367 24.5674ZM42.6777 22.6895L43.6016 23.0721C43.9938 22.1252 44.0966 21.0829 43.8968 20.0776L42.916 20.2725L41.9352 20.4674C42.0579 21.0848 41.9948 21.7251 41.7538 22.3068L42.6777 22.6895ZM42.916 20.2725L43.8968 20.0774C43.6968 19.0719 43.2027 18.1469 42.4776 17.4218L41.7705 18.1289L41.0634 18.836C41.5086 19.2812 41.8123 19.8497 41.9352 20.4676L42.916 20.2725ZM41.7705 18.1289L42.4775 17.4217C41.7523 16.6966 40.8281 16.2035 39.823 16.0036L39.6279 16.9844L39.4328 17.9652C40.0508 18.0881 40.6185 18.3912 41.0635 18.8361L41.7705 18.1289ZM56.7188 16.9033L56.7187 15.9033C53.8557 15.9035 51.5343 18.2248 51.5342 21.0879L52.5342 21.0879L53.5342 21.0879C53.5342 19.3294 54.9603 17.9034 56.7188 17.9033L56.7188 16.9033ZM52.5342 21.0879H51.5342C51.5342 23.951 53.8557 26.2723 56.7187 26.2725L56.7188 25.2725L56.7188 24.2725C54.9602 24.2724 53.5342 22.8464 53.5342 21.0879H52.5342ZM56.7188 25.2725L56.7188 26.2725C59.5818 26.2723 61.9033 23.951 61.9033 21.0879H60.9033H59.9033C59.9033 22.8464 58.4773 24.2724 56.7187 24.2725L56.7188 25.2725ZM60.9033 21.0879L61.9033 21.0879C61.9032 18.2248 59.5818 15.9034 56.7188 15.9033L56.7188 16.9033L56.7187 17.9033C58.4772 17.9034 59.9033 19.3294 59.9033 21.0879L60.9033 21.0879Z" fill="url(#paint4_radial_0_43)" mask="url(#path-1-inside-1_0_43)"/>
<path d="M80.6553 51.917L79.8981 52.5703L81.6553 54.6067V51.917H80.6553ZM70.9805 40.7041L71.7376 40.0508L71.4384 39.7041H70.9805V40.7041ZM6.77832 40.7041L6.77831 41.7041H6.77832V40.7041ZM0 33.9258H-1V33.9258L0 33.9258ZM6.77832 0V-1H6.77831L6.77832 0ZM20.9033 16.9033L20.9034 15.9033H20.9032L20.9033 16.9033ZM16.7197 21.0879L15.7197 21.0879V21.0879H16.7197ZM20.9033 25.2725L20.9032 26.2725H20.9034L20.9033 25.2725ZM25.0879 21.0879H26.0879V21.0879L25.0879 21.0879ZM39.6279 16.9844L39.823 16.0036L39.823 16.0036L39.6279 16.9844ZM37.2109 17.2217L36.8284 16.2978L36.8282 16.2978L37.2109 17.2217ZM35.333 18.7637L34.5015 18.2081L34.5015 18.2082L35.333 18.7637ZM34.6279 21.0879L33.6279 21.0879V21.0879H34.6279ZM35.8535 24.0469L35.1464 24.754L35.1465 24.754L35.8535 24.0469ZM38.8125 25.2725V26.2725H38.8126L38.8125 25.2725ZM41.1367 24.5674L41.6922 25.3989L41.6923 25.3988L41.1367 24.5674ZM42.6777 22.6895L43.6016 23.0722L43.6016 23.0721L42.6777 22.6895ZM42.916 20.2725L43.8968 20.0776L43.8968 20.0774L42.916 20.2725ZM41.7705 18.1289L42.4776 17.4218L42.4775 17.4217L41.7705 18.1289ZM56.7188 16.9033L56.7188 15.9033H56.7187L56.7188 16.9033ZM52.5342 21.0879L51.5342 21.0879V21.0879H52.5342ZM56.7188 25.2725L56.7187 26.2725H56.7188L56.7188 25.2725ZM60.9033 21.0879H61.9033V21.0879L60.9033 21.0879ZM73.876 0V1C77.0675 1 79.6553 3.58717 79.6553 6.77832H80.6553H81.6553C81.6553 2.48222 78.1717 -1 73.876 -1V0ZM80.6553 6.77832H79.6553V51.917H80.6553H81.6553V6.77832H80.6553ZM80.6553 51.917L81.4124 51.2637L71.7376 40.0508L70.9805 40.7041L70.2233 41.3574L79.8981 52.5703L80.6553 51.917ZM70.9805 40.7041V39.7041H6.77832V40.7041V41.7041H70.9805V40.7041ZM6.77832 40.7041L6.77833 39.7041C3.58717 39.7041 1.00015 37.117 1 33.9257L0 33.9258L-1 33.9258C-0.999795 38.2215 2.48253 41.7041 6.77831 41.7041L6.77832 40.7041ZM0 33.9258H1V6.77832H0H-1V33.9258H0ZM0 6.77832H1C1 3.58702 3.58702 1.00004 6.77833 1L6.77832 0L6.77831 -1C2.48247 -0.999953 -1 2.48242 -1 6.77832H0ZM6.77832 0V1H73.876V0V-1H6.77832V0ZM20.9033 16.9033L20.9032 15.9033C18.0401 15.9036 15.7198 18.2251 15.7197 21.0879L16.7197 21.0879L17.7197 21.0879C17.7198 19.3292 19.1452 17.9035 20.9034 17.9033L20.9033 16.9033ZM16.7197 21.0879H15.7197C15.7197 23.9507 18.0401 26.2722 20.9032 26.2725L20.9033 25.2725L20.9034 24.2725C19.1451 24.2723 17.7197 22.8466 17.7197 21.0879H16.7197ZM20.9033 25.2725L20.9034 26.2725C23.7664 26.2723 26.0879 23.951 26.0879 21.0879H25.0879H24.0879C24.0879 22.8464 22.6619 24.2724 20.9033 24.2725L20.9033 25.2725ZM25.0879 21.0879L26.0879 21.0879C26.0878 18.2248 23.7664 15.9034 20.9034 15.9033L20.9033 16.9033L20.9033 17.9033C22.6618 17.9034 24.0878 19.3294 24.0879 21.0879L25.0879 21.0879ZM39.6279 16.9844L39.823 16.0036C38.8182 15.8038 37.7759 15.9054 36.8284 16.2978L37.2109 17.2217L37.5935 18.1456C38.1747 17.905 38.8148 17.8423 39.4329 17.9652L39.6279 16.9844ZM37.2109 17.2217L36.8282 16.2978C35.8805 16.6904 35.0709 17.3561 34.5015 18.2081L35.333 18.7637L36.1645 19.3193C36.5147 18.7952 37.0123 18.3863 37.5936 18.1456L37.2109 17.2217ZM35.333 18.7637L34.5015 18.2082C33.932 19.0605 33.628 20.0626 33.6279 21.0879L34.6279 21.0879L35.6279 21.0879C35.6279 20.4583 35.8147 19.8428 36.1645 19.3192L35.333 18.7637ZM34.6279 21.0879H33.6279C33.6279 22.4628 34.1742 23.7817 35.1464 24.754L35.8535 24.0469L36.5606 23.3398C35.9635 22.7426 35.6279 21.9324 35.6279 21.0879H34.6279ZM35.8535 24.0469L35.1465 24.754C36.1186 25.7261 37.4377 26.2725 38.8125 26.2725V25.2725V24.2725C37.9681 24.2725 37.1577 23.9368 36.5606 23.3397L35.8535 24.0469ZM38.8125 25.2725L38.8126 26.2725C39.8376 26.2723 40.8399 25.9683 41.6922 25.3989L41.1367 24.5674L40.5812 23.7359C40.0577 24.0856 39.442 24.2724 38.8124 24.2725L38.8125 25.2725ZM41.1367 24.5674L41.6923 25.3988C42.5448 24.8292 43.2093 24.0192 43.6016 23.0722L42.6777 22.6895L41.7539 22.3067C41.5128 22.8885 41.1045 23.3862 40.5811 23.7359L41.1367 24.5674ZM42.6777 22.6895L43.6016 23.0721C43.9938 22.1252 44.0966 21.0829 43.8968 20.0776L42.916 20.2725L41.9352 20.4674C42.0579 21.0848 41.9948 21.7251 41.7538 22.3068L42.6777 22.6895ZM42.916 20.2725L43.8968 20.0774C43.6968 19.0719 43.2027 18.1469 42.4776 17.4218L41.7705 18.1289L41.0634 18.836C41.5086 19.2812 41.8123 19.8497 41.9352 20.4676L42.916 20.2725ZM41.7705 18.1289L42.4775 17.4217C41.7523 16.6966 40.8281 16.2035 39.823 16.0036L39.6279 16.9844L39.4328 17.9652C40.0508 18.0881 40.6185 18.3912 41.0635 18.8361L41.7705 18.1289ZM56.7188 16.9033L56.7187 15.9033C53.8557 15.9035 51.5343 18.2248 51.5342 21.0879L52.5342 21.0879L53.5342 21.0879C53.5342 19.3294 54.9603 17.9034 56.7188 17.9033L56.7188 16.9033ZM52.5342 21.0879H51.5342C51.5342 23.951 53.8557 26.2723 56.7187 26.2725L56.7188 25.2725L56.7188 24.2725C54.9602 24.2724 53.5342 22.8464 53.5342 21.0879H52.5342ZM56.7188 25.2725L56.7188 26.2725C59.5818 26.2723 61.9033 23.951 61.9033 21.0879H60.9033H59.9033C59.9033 22.8464 58.4773 24.2724 56.7187 24.2725L56.7188 25.2725ZM60.9033 21.0879L61.9033 21.0879C61.9032 18.2248 59.5818 15.9034 56.7188 15.9033L56.7188 16.9033L56.7187 17.9033C58.4772 17.9034 59.9033 19.3294 59.9033 21.0879L60.9033 21.0879Z" fill="url(#paint5_radial_0_43)" mask="url(#path-1-inside-1_0_43)"/>
</g>
</g>
<defs>
<filter id="filter0_i_0_43" x="-20" y="-20" width="120.655" height="91.917" filterUnits="userSpaceOnUse" color-interpolation-filters="sRGB">
<feFlood flood-opacity="0" result="BackgroundImageFix"/>
<feBlend mode="normal" in="SourceGraphic" in2="BackgroundImageFix" result="shape"/>
<feColorMatrix in="SourceAlpha" type="matrix" values="0 0 0 0 0 0 0 0 0 0 0 0 0 0 0 0 0 0 127 0" result="hardAlpha"/>
<feOffset dx="-6" dy="-10"/>
<feGaussianBlur stdDeviation="16"/>
<feComposite in2="hardAlpha" operator="arithmetic" k2="-1" k3="1"/>
<feColorMatrix type="matrix" values="0 0 0 0 0.113725 0 0 0 0 0.333333 0 0 0 0 0.835294 0 0 0 0.1 0"/>
<feBlend mode="normal" in2="shape" result="effect1_innerShadow_0_43"/>
</filter>
<clipPath id="bgblur_0_0_43_clip_path" transform="translate(20 20)"><path d="M73.876 0C77.6196 0 80.6553 3.03469 80.6553 6.77832V51.917L70.9805 40.7041H6.77832C3.03485 40.7041 0.000178325 37.6692 0 33.9258V6.77832C0 3.03472 3.03474 4.12345e-05 6.77832 0H73.876ZM20.9033 16.9033C18.5927 16.9035 16.7198 18.7772 16.7197 21.0879C16.7197 23.3986 18.5926 25.2722 20.9033 25.2725C23.2141 25.2724 25.0879 23.3987 25.0879 21.0879C25.0878 18.7771 23.2141 16.9034 20.9033 16.9033ZM39.6279 16.9844C38.8165 16.823 37.9753 16.9052 37.2109 17.2217C36.4464 17.5384 35.7928 18.0756 35.333 18.7637C34.8734 19.4517 34.628 20.2605 34.6279 21.0879C34.6279 22.1976 35.0688 23.2622 35.8535 24.0469C36.6382 24.8314 37.7029 25.2725 38.8125 25.2725C39.6398 25.2724 40.4488 25.027 41.1367 24.5674C41.8247 24.1077 42.3611 23.4539 42.6777 22.6895C42.9943 21.9251 43.0773 21.0839 42.916 20.2725C42.7546 19.4608 42.3556 18.7141 41.7705 18.1289C41.1854 17.5439 40.4394 17.1458 39.6279 16.9844ZM56.7188 16.9033C54.408 16.9034 52.5342 18.7771 52.5342 21.0879C52.5342 23.3987 54.408 25.2723 56.7188 25.2725C59.0295 25.2724 60.9033 23.3987 60.9033 21.0879C60.9033 18.7771 59.0295 16.9034 56.7188 16.9033Z"/>
</clipPath><radialGradient id="paint0_radial_0_43" cx="0" cy="0" r="1" gradientTransform="matrix(19.1199 27.5422 -66.0935 23.174 25.9589 -5.37287e-07)" gradientUnits="userSpaceOnUse">
<stop stop-color="#256BEB" stop-opacity="0.2"/>
<stop offset="1" stop-color="#14151A" stop-opacity="0"/>
</radialGradient>
<linearGradient id="paint1_linear_0_43" x1="40.3276" y1="0" x2="40.3276" y2="51.917" gradientUnits="userSpaceOnUse">
<stop stop-color="#14151A" stop-opacity="0"/>
<stop offset="1" stop-color="white" stop-opacity="0.02"/>
</linearGradient>
<radialGradient id="paint2_radial_0_43" cx="0" cy="0" r="1" gradientTransform="matrix(15.5401 -41.2039 75.5811 0.704327 35.9722 51.9169)" gradientUnits="userSpaceOnUse">
<stop stop-color="#256BEB" stop-opacity="0.8"/>
<stop offset="0.5" stop-color="#256BEB" stop-opacity="0.15"/>
<stop offset="1" stop-color="#14151A" stop-opacity="0"/>
</radialGradient>
<radialGradient id="paint3_radial_0_43" cx="0" cy="0" r="1" gradientTransform="matrix(-81.9329 -17.3057 17.6245 -86.1097 80.3104 20.602)" gradientUnits="userSpaceOnUse">
<stop stop-color="#1D55D5" stop-opacity="0.1"/>
<stop offset="1" stop-color="#1E46AF" stop-opacity="0.02"/>
</radialGradient>
<radialGradient id="paint4_radial_0_43" cx="0" cy="0" r="1" gradientTransform="matrix(44.3237 33.3219 -24.2788 39.0618 17.5799 14.1037)" gradientUnits="userSpaceOnUse">
<stop stop-color="#7AD2FE"/>
<stop offset="1" stop-color="#0C1B3B" stop-opacity="0"/>
</radialGradient>
<radialGradient id="paint5_radial_0_43" cx="0" cy="0" r="1" gradientTransform="matrix(14.0265 -49.5953 72.7558 21.5728 47.3161 51.7651)" gradientUnits="userSpaceOnUse">
<stop stop-color="#1D55D5" stop-opacity="0.5"/>
<stop offset="1" stop-color="#1E46AF" stop-opacity="0.02"/>
</radialGradient>
</defs>
</svg>
