<svg width="30.4534" height="3.50206" overflow="visible" style="display: block;" viewBox="0 0 30.4534 3.50206" fill="none" xmlns="http://www.w3.org/2000/svg">
<g id="ver">
<path id="Union" d="M0.499206 1.50088L0.499206 0H2.49603V2.00118H1.99683V3.50206H0L0 1.50088H0.499206Z" fill="var(--fill-0, #7AD2FE)"/>
<path id="Union_2" d="M4.49477 1.50088V0H6.4916V2.00118H5.99239V3.50206H3.99556V1.50088H4.49477Z" fill="var(--fill-0, #7AD2FE)"/>
<path id="Union_3" d="M8.48648 1.50088V0H10.4833V2.00118H9.9841V3.50206H7.98728V1.50088H8.48648Z" fill="var(--fill-0, #7AD2FE)"/>
<path id="Union_4" d="M12.482 1.50088V0H14.4789V2.00118H13.9797V3.50206H11.9828V1.50088H12.482Z" fill="var(--fill-0, #7AD2FE)"/>
<path id="Union_5" d="M16.4738 1.50088V0H18.4706V2.00118H17.9714V3.50206H15.9746V1.50088H16.4738Z" fill="var(--fill-0, #7AD2FE)"/>
<path id="Union_6" d="M20.4655 1.50088V0H22.4623V2.00118H21.9631V3.50206H19.9663V1.50088H20.4655Z" fill="var(--fill-0, #7AD2FE)"/>
<path id="Union_7" d="M24.461 1.50088V0H26.4579V2.00118H25.9587V3.50206H23.9618V1.50088H24.461Z" fill="var(--fill-0, #7AD2FE)"/>
<path id="Union_8" d="M28.4566 1.50088V0H30.4534V2.00118H29.9542V3.50206H27.9574V1.50088H28.4566Z" fill="var(--fill-0, #7AD2FE)"/>
</g>
</svg>
