<svg width="20" height="20" overflow="visible" style="display: block;" viewBox="-1.25 -1.874 20 20" fill="none" xmlns="http://www.w3.org/2000/svg">
<path id="Vector" d="M8.75098 0.0625C9.07709 0.0625241 9.39762 0.147594 9.68066 0.30957C9.96343 0.471423 10.1991 0.704534 10.3643 0.985352V0.986328L17.1963 12.8506H17.1973C17.3557 13.1223 17.4387 13.4316 17.4385 13.7461C17.4382 14.0215 17.3737 14.2927 17.251 14.5381L17.1953 14.6416C17.0324 14.9242 16.7969 15.1585 16.5137 15.3203C16.2305 15.4821 15.9091 15.5656 15.583 15.5625H1.91797C1.59161 15.5659 1.26976 15.4821 0.986328 15.3203C0.738395 15.1787 0.527175 14.9816 0.369141 14.7451L0.304688 14.6416L0.249023 14.5381C0.126575 14.2926 0.0625 14.0215 0.0625 13.7461C0.062509 13.4317 0.146163 13.123 0.304688 12.8516V12.8506L7.13672 0.986328C7.30193 0.705049 7.53818 0.471621 7.82129 0.30957C8.10432 0.147649 8.4249 0.0625 8.75098 0.0625ZM8.75195 1.18457C8.62335 1.18465 8.4967 1.21792 8.38477 1.28125C8.27274 1.34463 8.17959 1.43656 8.11328 1.54688L8.1123 1.54785L1.28027 13.4121C1.22076 13.513 1.1895 13.628 1.18945 13.7451C1.18945 13.8624 1.22064 13.9781 1.28027 14.0791V14.0781C1.34544 14.1893 1.4394 14.2816 1.55176 14.3447C1.6638 14.4076 1.7905 14.4386 1.91895 14.4365V14.4375H15.583C15.7114 14.4395 15.8382 14.4076 15.9502 14.3447C16.0624 14.2817 16.1546 14.1891 16.2197 14.0781L16.2207 14.0791C16.2809 13.9784 16.3129 13.8634 16.3135 13.7461C16.3141 13.6288 16.2837 13.5134 16.2246 13.4121H16.2236L9.39258 1.54785L9.3916 1.54688L9.33691 1.46777C9.27734 1.39262 9.20411 1.32878 9.12012 1.28125C9.00805 1.21785 8.88071 1.18457 8.75195 1.18457ZM8.75098 11.3125C8.98278 11.3125 9.20512 11.4046 9.36914 11.5684C9.53322 11.7324 9.62596 11.9555 9.62598 12.1875C9.62598 12.3606 9.57466 12.5299 9.47852 12.6738C9.3824 12.8177 9.24574 12.9299 9.08594 12.9961C8.92605 13.0623 8.74981 13.0797 8.58008 13.0459C8.41037 13.0121 8.25419 12.929 8.13184 12.8066C8.00949 12.6843 7.92636 12.5281 7.89258 12.3584C7.85882 12.1887 7.87616 12.0124 7.94238 11.8525C8.00861 11.6927 8.1208 11.5561 8.26465 11.46C8.40854 11.3638 8.57792 11.3125 8.75098 11.3125ZM8.75098 5.6875C8.90011 5.68754 9.04298 5.74708 9.14844 5.85254C9.25389 5.95801 9.31346 6.10085 9.31348 6.25V9.375C9.31348 9.52414 9.25387 9.66698 9.14844 9.77246C9.04298 9.87792 8.90011 9.93746 8.75098 9.9375C8.60181 9.9375 8.459 9.87792 8.35352 9.77246C8.24803 9.66697 8.18848 9.52418 8.18848 9.375V6.25C8.18849 6.10083 8.24804 5.95802 8.35352 5.85254C8.459 5.74711 8.60184 5.6875 8.75098 5.6875Z" fill="var(--fill-0, #FFFFFF)" stroke="var(--stroke-0, #FFFFFF)" stroke-width="0.125"/>
</svg>
