<svg width="83" height="11" overflow="visible" style="display: block;" viewBox="0 0 82.8125 10.7805" fill="none" xmlns="http://www.w3.org/2000/svg">
<g id="SCALARA">
<path id="Subtract" d="M59.3624 0.252054C62.989 0.232434 70.4103 -0.889908 69.0772 4.80577C68.8194 5.90409 67.8878 6.40813 66.9717 6.82139C67.8828 8.03265 68.7642 9.26725 69.6133 10.5226L67.7891 10.547L66.6094 10.5489C65.8727 9.42261 65.1119 8.31226 64.3272 7.21885L61.9962 7.2833C61.9747 8.35786 61.9846 9.47095 61.9795 10.5489L59.3536 10.5548L59.3624 0.252054ZM66.0772 4.83116C68.0811 1.92526 63.4626 2.23815 61.9766 2.25498L61.9815 5.32334C63.3488 5.35398 64.9033 5.55027 66.0772 4.83116Z" fill="var(--fill-0, #FFFFFF)"/>
<path id="Subtract_2" d="M78.0957 0.250795C79.6777 3.50575 81.2772 7.20783 82.8125 10.532L80.0742 10.5486C79.8279 9.93183 79.5452 8.89671 79.1006 8.42853C78.815 8.12663 78.4279 8.21061 77.9932 8.20783L74.1221 8.20392L73.1426 10.5467L70.2676 10.5418C71.8168 7.62562 73.5723 3.35053 74.9736 0.250795H78.0957ZM76.416 2.44708C75.9005 3.72417 75.3831 5.06486 74.8271 6.31915L76.5254 6.30255L78.2324 6.28595C77.9505 5.62313 76.8368 2.80818 76.416 2.44708Z" fill="var(--fill-0, #FFFFFF)"/>
<path id="Subtract_3" d="M30.2242 0.249312C31.7722 3.69158 33.3544 7.11906 34.9693 10.5306L32.1754 10.556C31.8923 9.88799 31.6585 8.9441 31.191 8.37919C31.004 8.1524 30.7735 8.218 30.4488 8.20927C29.0452 8.21041 27.6415 8.20388 26.2379 8.19072C25.8917 8.95247 25.556 9.77411 25.2262 10.5481L22.4654 10.5452C22.8647 9.49785 23.6367 7.94779 24.1207 6.87919L27.0846 0.252241L30.2242 0.249312ZM26.9498 6.3206L28.6168 6.29521L30.3844 6.2747C30.1151 5.63429 28.9335 2.71228 28.6139 2.36357L26.9498 6.3206Z" fill="var(--fill-0, #FFFFFF)"/>
<path id="Subtract_4" d="M53.1336 0.251289C54.3719 3.36313 56.3881 7.39811 57.8514 10.5335L55.0379 10.5638C54.794 9.90923 54.4831 8.9868 54.0965 8.41047C53.9297 8.16342 53.7705 8.2251 53.4471 8.20637L49.1228 8.19953L48.1131 10.5482L45.3777 10.5501C46.9585 7.13785 48.4999 3.70672 49.9998 0.258125L53.1336 0.251289ZM49.8728 6.31281L52.0574 6.30402L53.2654 6.29328C52.9912 5.6486 51.8576 2.72886 51.4949 2.46418L49.8728 6.31281Z" fill="var(--fill-0, #FFFFFF)"/>
<path id="Vector" d="M4.97469 0.0339034C6.77461 0.0846627 7.56059 0.195037 9.31085 0.623516C9.26056 1.33225 9.28268 2.18275 9.2828 2.90325C7.91365 2.35047 3.51013 1.3044 2.70469 3.10224C3.48726 4.53515 9.99233 4.25806 9.85093 7.36944C9.72406 10.163 7.02898 10.6868 4.70238 10.7416C2.93973 10.7674 1.82811 10.5778 0.170722 10.1112L0.242118 7.89209C1.08231 8.21412 1.9556 8.44171 2.84596 8.5707C3.8436 8.72412 6.8891 9.08994 7.03619 7.61045C6.28028 6.16375 0.00290938 6.6059 3.0129e-06 3.61933C-0.00290335 0.717818 2.76736 0.184789 4.97469 0.0339034Z" fill="var(--fill-0, #FFFFFF)"/>
<path id="Vector_2" d="M16.9389 0.0268115C18.2806 -0.103441 19.9763 0.264152 21.2599 0.627441C21.2359 1.36984 21.246 2.13288 21.2473 2.8773C19.0689 2.11617 15.4761 1.37668 14.1641 3.98629C13.8016 4.72047 13.7412 5.56768 13.9959 6.3459C14.9507 9.24171 18.7493 8.87058 21.0249 8.09691L21.1475 8.06691L21.2966 8.20349C21.3774 8.85906 21.2624 9.58943 21.1879 10.2532C18.705 11.0277 15.1658 11.0974 12.9985 9.44247C11.9403 8.64855 11.2524 7.45577 11.0942 6.14096C10.6109 2.31566 13.5193 0.405671 16.9389 0.0268115Z" fill="var(--fill-0, #FFFFFF)"/>
<path id="Vector_3" d="M36.2605 0.253252L38.9736 0.251351C38.9887 3.0121 38.9774 5.77285 38.9394 8.53322L44.4249 8.50879L44.4413 10.5478C41.7144 10.534 38.9862 10.5366 36.2593 10.5557L36.2605 0.253252Z" fill="var(--fill-0, #FFFFFF)"/>
</g>
</svg>
