<svg width="12" height="12" overflow="visible" style="display: block;" viewBox="0 0 12.0974 12.4164" fill="none" xmlns="http://www.w3.org/2000/svg">
<path id="Vector" d="M6.29655 7.3799V5.68364H12.0127C12.0686 5.97926 12.0974 6.32899 12.0974 6.70749C12.0974 7.98016 11.7494 9.55377 10.6283 10.675C9.53767 11.8107 8.14424 12.4164 6.29835 12.4164C2.87695 12.4164 0 9.62953 0 6.20824C0 2.78695 2.87695 0 6.29835 0C8.19113 0 9.53947 0.742661 10.5525 1.71069L9.35559 2.90761C8.62916 2.22618 7.64489 1.69626 6.29655 1.69626C3.79809 1.69626 1.84408 3.70979 1.84408 6.20824C1.84408 8.70668 3.79809 10.7202 6.29655 10.7202C7.91706 10.7202 8.84 10.0694 9.43134 9.47821C9.91085 8.9987 10.2263 8.31376 10.3507 7.37819L6.29655 7.3799Z" fill="var(--fill-0, #FFFFFF)"/>
</svg>
