<svg width="16" height="16" viewBox="0 0 24 24" fill="none" xmlns="http://www.w3.org/2000/svg">
<path d="M12 24C18.6274 24 24 18.6274 24 12C24 5.37258 18.6274 0 12 0C5.37258 0 0 5.37258 0 12C0 18.6274 5.37258 24 12 24Z" fill="#F0F0F0"/>
<path d="M6.78261 16.1739L7.82609 23.2537C9.12603 23.7361 10.5321 24 12 24C17.1596 24 21.558 20.7435 23.2535 16.1739H6.78261Z" fill="black"/>
<path d="M6.78261 7.82611L7.82609 0.746297C9.12603 0.263906 10.5321 0 12 0C17.1596 0 21.558 3.2565 23.2535 7.82611H6.78261Z" fill="#6DA544"/>
<path d="M0 12C0 17.1596 3.25655 21.558 7.82611 23.2535V0.746521C3.25655 2.44204 0 6.84055 0 12Z" fill="#A2001D"/>
</svg>
