<svg width="8" height="12" overflow="visible" style="display: block;" viewBox="0 0 7.66473 11.5782" fill="none" xmlns="http://www.w3.org/2000/svg">
<path id="Vector" d="M7.66473 0.241604V7.41958C7.66473 10.3723 5.92337 11.5782 3.86483 11.5782C1.92705 11.5782 0.760701 10.2821 0.320875 9.22217L1.84949 8.58583C2.12166 9.2366 2.78867 10.0045 3.86303 10.0045C5.1807 10.0045 5.99732 9.19151 5.99732 7.66109V7.08608H5.93599C5.54306 7.571 4.78587 7.99459 3.83056 7.99459C1.83145 7.99459 0 6.25323 0 4.01263C0 1.75578 1.83145 0 3.83056 0C4.78417 0 5.54126 0.423591 5.93599 0.894079H5.99732V0.243314H7.66473V0.241604ZM6.12168 4.01263C6.12168 2.60477 5.1825 1.57551 3.98739 1.57551C2.77604 1.57551 1.76111 2.60477 1.76111 4.01263C1.76111 5.40605 2.77594 6.42089 3.98739 6.42089C5.1825 6.42098 6.12168 5.40605 6.12168 4.01263Z" fill="var(--fill-0, #FFFFFF)"/>
</svg>
