<svg width="7" height="8" overflow="visible" style="display: block;" viewBox="0 0 7.37452 7.99639" fill="none" xmlns="http://www.w3.org/2000/svg">
<path id="Vector" d="M5.93599 5.31596L7.29876 6.22447C6.85893 6.87524 5.799 7.99639 3.96755 7.99639C1.69627 7.99639 0 6.24061 0 3.9982C0 1.62051 1.7107 0 3.77104 0C5.8458 0 6.86074 1.65117 7.19243 2.54344L7.37452 2.9977L2.02977 5.21134C2.43893 6.01353 3.07527 6.42269 3.96755 6.42269C4.86163 6.42279 5.48173 5.98287 5.93599 5.31596ZM1.74136 3.87744L5.31418 2.39392C5.11767 1.89458 4.52642 1.54674 3.83066 1.54674C2.93828 1.54665 1.69627 2.3344 1.74136 3.87744Z" fill="var(--fill-0, #FFFFFF)"/>
</svg>
