<svg width="276" height="54" overflow="visible" style="display: block;" viewBox="0 0 276.39 54" fill="none" xmlns="http://www.w3.org/2000/svg">
<g id="Error 405">
<path id="Vector" d="M248.435 33.8234H264.65L264.577 8.14402L248.435 33.8234ZM269.713 0.293476L269.786 33.8234H274.115C274.555 33.8234 274.408 36.3913 274.115 36.3913H269.786C269.786 39.6196 269.786 43.2147 269.786 45.7092C269.786 50.1114 273.601 50.1848 275.289 50.7717C276.829 51.3587 276.683 52.6793 275.289 52.6793H259.147C258.414 52.6793 258.047 52.3125 258.047 51.8723C258.047 51.4321 258.487 51.0652 259.147 50.7717C260.835 50.1848 264.65 50.1114 264.65 45.7092C264.65 43.0679 264.65 39.4728 264.65 36.3913H245.06C244.4 36.3913 244.033 35.9511 244.4 35.2174L266.558 0.366845C266.704 0.146739 267.658 0.0733704 268.465 0.0733704C269.126 0.0733704 269.713 0.146739 269.713 0.293476Z" fill="var(--fill-0, white)"/>
<path id="Vector_2" d="M225.126 51.4321C242.809 51.4321 242.588 2.56794 225.053 2.56794C207.444 2.56794 207.444 51.4321 225.126 51.4321ZM225.273 0C249.779 0 249.338 54 224.906 54C200.327 54 200.768 0 225.273 0Z" fill="var(--fill-0, white)"/>
<path id="Vector_3" d="M178.577 33.8234H194.792L194.719 8.14402L178.577 33.8234ZM199.855 0.293476L199.928 33.8234H204.257C204.697 33.8234 204.55 36.3913 204.257 36.3913H199.928C199.928 39.6196 199.928 43.2147 199.928 45.7092C199.928 50.1114 203.743 50.1848 205.431 50.7717C206.971 51.3587 206.825 52.6793 205.431 52.6793H189.289C188.556 52.6793 188.189 52.3125 188.189 51.8723C188.189 51.4321 188.629 51.0652 189.289 50.7717C190.977 50.1848 194.792 50.1114 194.792 45.7092C194.792 43.0679 194.792 39.4728 194.792 36.3913H175.202C174.542 36.3913 174.175 35.9511 174.542 35.2174L196.7 0.366845C196.846 0.146739 197.8 0.0733704 198.607 0.0733704C199.268 0.0733704 199.855 0.146739 199.855 0.293476Z" fill="var(--fill-0, white)"/>
<path id="Vector_4" d="M139.779 16.9484V21.644C142.567 19.2228 148.657 15.0408 153.059 14.6005C155.48 14.6005 158.268 15.4076 158.268 18.3424C158.268 20.25 156.728 21.8641 154.453 21.8641C153.719 21.8641 153.059 21.644 152.472 21.2772C151.885 20.9103 151.372 20.4701 150.785 20.1766C150.271 19.8098 149.611 19.5897 148.657 19.663C146.236 19.663 141.247 23.3315 139.779 25.0924L139.853 45.7092C139.853 50.1114 143.668 50.1848 145.282 50.7717C145.502 50.8451 145.722 50.9918 145.869 51.0652C146.236 51.2853 146.383 51.5788 146.383 51.8723C146.383 52.3125 146.016 52.6793 145.355 52.6793H129.141C128.48 52.6793 128.113 52.3125 128.113 51.8723C128.113 51.4321 128.48 51.0652 129.214 50.7717C130.828 50.1848 134.717 50.1114 134.643 45.7092L134.57 25.9728V24.7989C134.57 20.9837 131.415 20.25 129.654 19.9565C129.361 19.8831 129.141 19.8098 128.921 19.8098C128.554 19.663 128.334 19.5897 128.04 19.2962C127.967 19.1495 127.893 19.0027 127.967 18.856C128.04 18.5625 128.407 18.269 129.067 18.1223L138.238 15.9946C139.192 15.8478 139.779 15.7745 139.779 16.9484Z" fill="var(--fill-0, white)"/>
<path id="Vector_5" d="M110.185 51.4321C127.133 51.4321 127.207 17.2418 110.332 17.2418C93.1631 17.2418 93.3832 51.4321 110.185 51.4321ZM110.332 14.6739C134.25 14.6739 133.883 54 110.038 54C86.1929 54 86.5598 14.6739 110.332 14.6739Z" fill="var(--fill-0, white)"/>
<path id="Vector_6" d="M76.7275 16.9484V21.644C79.5155 19.2228 85.6052 15.0408 90.0074 14.6005C92.4286 14.6005 95.2166 15.4076 95.2166 18.3424C95.2166 20.25 93.6759 21.8641 91.4014 21.8641C90.6677 21.8641 90.0074 21.644 89.4204 21.2772C88.8335 20.9103 88.3199 20.4701 87.7329 20.1766C87.2194 19.8098 86.559 19.5897 85.6052 19.663C83.184 19.663 78.1949 23.3315 76.7275 25.0924L76.8008 45.7092C76.8008 50.1114 80.6161 50.1848 82.2302 50.7717C82.4503 50.8451 82.6704 50.9918 82.8172 51.0652C83.184 51.2853 83.3308 51.5788 83.3308 51.8723C83.3308 52.3125 82.9639 52.6793 82.3036 52.6793H66.0889C65.4285 52.6793 65.0617 52.3125 65.0617 51.8723C65.0617 51.4321 65.4286 51.0652 66.1622 50.7717C67.7764 50.1848 71.665 50.1114 71.5916 45.7092L71.5182 25.9728V24.7989C71.5182 20.9837 68.3633 20.25 66.6025 19.9565C66.309 19.8831 66.0889 19.8098 65.8688 19.8098C65.5019 19.663 65.2818 19.5897 64.9883 19.2962C64.915 19.1495 64.8416 19.0027 64.915 18.856C64.9883 18.5625 65.3552 18.269 66.0155 18.1223L75.1867 15.9946C76.1405 15.8478 76.7275 15.7745 76.7275 16.9484Z" fill="var(--fill-0, white)"/>
<path id="Vector_7" d="M45.9188 16.9484V21.644C48.7068 19.2228 54.7965 15.0408 59.1987 14.6005C61.6199 14.6005 64.408 15.4076 64.408 18.3424C64.408 20.25 62.8672 21.8641 60.5927 21.8641C59.859 21.8641 59.1987 21.644 58.6118 21.2772C58.0248 20.9103 57.5112 20.4701 56.9242 20.1766C56.4107 19.8098 55.7503 19.5897 54.7965 19.663C52.3753 19.663 47.3862 23.3315 45.9188 25.0924L45.9922 45.7092C45.9922 50.1114 49.8074 50.1848 51.4215 50.7717C51.6416 50.8451 51.8617 50.9918 52.0085 51.0652C52.3753 51.2853 52.5221 51.5788 52.5221 51.8723C52.5221 52.3125 52.1552 52.6793 51.4949 52.6793H35.2802C34.6199 52.6793 34.253 52.3125 34.253 51.8723C34.253 51.4321 34.6199 51.0652 35.3536 50.7717C36.9677 50.1848 40.8563 50.1114 40.7829 45.7092L40.7096 25.9728V24.7989C40.7096 20.9837 37.5546 20.25 35.7938 19.9565C35.5003 19.8831 35.2802 19.8098 35.0601 19.8098C34.6932 19.663 34.4731 19.5897 34.1796 19.2962C34.1063 19.1495 34.0329 19.0027 34.1063 18.856C34.1796 18.5625 34.5465 18.269 35.2068 18.1223L44.378 15.9946C45.3318 15.8478 45.9188 15.7745 45.9188 16.9484Z" fill="var(--fill-0, white)"/>
<path id="Vector_8" d="M11.7392 23.1848H19.8098C25.9729 23.1848 27.1468 20.6168 27.7337 18.9293C28.0272 18.269 28.3941 17.8288 28.8343 17.8288C29.2745 17.8288 29.6413 18.269 29.6413 18.9293V30.1549C29.6413 30.8152 29.2745 31.1821 28.8343 31.1821C28.3941 31.1821 28.0272 30.7418 27.7337 30.0815C27.1468 28.394 25.9729 25.7527 19.8098 25.7527C17.7555 25.7527 12.3995 25.7527 11.7392 25.7527C11.7392 30.0815 11.7392 42.9212 11.7392 45.7826C11.7392 49.0842 14.3805 50.1114 16.3614 50.1114H21.9375C27.9538 50.1114 30.3017 47.25 32.0626 41.894C32.2827 41.4538 32.6495 41.2337 32.943 41.2337C33.3098 41.2337 33.6767 41.5272 33.6033 42.0408L33.1631 51.9457C33.1631 52.5326 32.6495 52.6793 32.2827 52.6793C25.0924 52.6793 5.35598 52.6793 1.02717 52.6793C0.366844 52.6793 0 52.3125 0 51.8723C0 51.4321 0.440218 51.0652 1.10055 50.7717C2.78805 50.1848 6.60327 50.1114 6.60327 45.7092C6.5299 37.3451 6.60327 15.8478 6.60327 8.29076C6.5299 3.88858 2.78805 3.81522 1.10055 3.15489C0.440218 2.93478 0 2.56793 0 2.12772C0 1.61413 0.366844 1.32065 1.02717 1.32065C8.14403 1.32065 27.4403 1.32065 32.2827 1.32065C32.6495 1.32065 33.1631 1.46739 33.1631 2.05434C33.1631 3.08152 33.4566 9.46467 33.6033 11.9592C33.6767 12.4728 33.3098 12.6929 32.943 12.6929C32.5761 12.6929 32.2827 12.5462 32.0626 12.106C31.9892 11.8125 31.8424 11.3723 31.6223 10.8587C29.7147 5.94293 27.1468 3.88858 21.9375 3.88858C21.1305 3.88858 17.6087 3.88858 16.3614 3.88858C14.3805 3.88858 11.7392 4.84239 11.7392 8.14402C11.7392 11.7391 11.7392 20.4701 11.7392 23.1848Z" fill="var(--fill-0, white)"/>
</g>
</svg>
