<svg width="1440" height="281" overflow="visible" style="display: block;" viewBox="0 0 1440 281.342" fill="none" xmlns="http://www.w3.org/2000/svg">
<g id="Error 404" opacity="0.2">
<path id="Vector" d="M1294.36 176.221H1378.84L1378.45 42.4306L1294.36 176.221ZM1405.21 1.52902L1405.59 176.221H1428.15C1430.44 176.221 1429.68 189.6 1428.15 189.6H1405.59C1405.59 206.419 1405.59 225.15 1405.59 238.147C1405.59 261.082 1425.47 261.464 1434.26 264.522C1442.29 267.58 1441.53 274.461 1434.26 274.461H1350.17C1346.34 274.461 1344.43 272.55 1344.43 270.256C1344.43 267.963 1346.73 266.051 1350.17 264.522C1358.96 261.464 1378.84 261.082 1378.84 238.147C1378.84 224.385 1378.84 205.655 1378.84 189.6H1276.77C1273.33 189.6 1271.42 187.306 1273.33 183.484L1388.77 1.91127C1389.54 0.764512 1394.51 0.38226 1398.71 0.38226C1402.15 0.38226 1405.21 0.764513 1405.21 1.52902Z" fill="var(--fill-0, #0C1B3B)"/>
<path id="Vector_2" d="M1172.92 267.963C1265.04 267.963 1263.89 13.379 1172.53 13.379C1080.79 13.379 1080.79 267.963 1172.92 267.963ZM1173.68 0C1301.36 0 1299.06 281.342 1171.77 281.342C1043.71 281.342 1046.01 0 1173.68 0Z" fill="var(--fill-0, #0C1B3B)"/>
<path id="Vector_3" d="M930.395 176.221H1014.87L1014.49 42.4306L930.395 176.221ZM1041.25 1.52902L1041.63 176.221H1064.19C1066.48 176.221 1065.71 189.6 1064.19 189.6H1041.63C1041.63 206.419 1041.63 225.15 1041.63 238.147C1041.63 261.082 1061.51 261.464 1070.3 264.522C1078.33 267.58 1077.56 274.461 1070.3 274.461H986.205C982.382 274.461 980.471 272.55 980.471 270.256C980.471 267.963 982.764 266.051 986.205 264.522C994.996 261.464 1014.87 261.082 1014.87 238.147C1014.87 224.385 1014.87 205.655 1014.87 189.6H912.811C909.371 189.6 907.459 187.306 909.371 183.484L1024.81 1.91127C1025.58 0.764516 1030.55 0.382263 1034.75 0.382263C1038.19 0.382263 1041.25 0.764517 1041.25 1.52902Z" fill="var(--fill-0, #0C1B3B)"/>
<path id="Vector_4" d="M728.257 88.3015V112.766C742.783 100.152 774.51 78.3628 797.445 76.0693C810.06 76.0693 824.586 80.2741 824.586 95.5644C824.586 105.503 816.558 113.913 804.708 113.913C800.886 113.913 797.445 112.766 794.387 110.855C791.329 108.943 788.654 106.65 785.595 105.121C782.92 103.21 779.479 102.063 774.51 102.445C761.895 102.445 735.902 121.558 728.257 130.732L728.639 238.147C728.639 261.082 748.516 261.464 756.926 264.522C758.073 264.905 759.22 265.669 759.984 266.051C761.895 267.198 762.66 268.727 762.66 270.256C762.66 272.55 760.749 274.461 757.308 274.461H672.829C669.389 274.461 667.477 272.55 667.477 270.256C667.477 267.963 669.389 266.051 673.211 264.522C681.621 261.464 701.881 261.082 701.499 238.147L701.116 135.319V129.203C701.116 109.326 684.679 105.503 675.505 103.974C673.976 103.592 672.829 103.21 671.682 103.21C669.771 102.445 668.624 102.063 667.095 100.534C666.713 99.7693 666.331 99.0048 666.713 98.2402C667.095 96.7112 669.007 95.1822 672.447 94.4177L720.229 83.3322C725.199 82.5677 728.257 82.1854 728.257 88.3015Z" fill="var(--fill-0, #0C1B3B)"/>
<path id="Vector_5" d="M574.064 267.962C662.366 267.962 662.748 89.8302 574.829 89.8302C485.38 89.8302 486.527 267.962 574.064 267.962ZM574.829 76.4512C699.445 76.4512 697.534 281.341 573.3 281.341C449.065 281.341 450.977 76.4512 574.829 76.4512Z" fill="var(--fill-0, #0C1B3B)"/>
<path id="Vector_6" d="M399.753 88.3015V112.766C414.279 100.152 446.006 78.3628 468.942 76.0693C481.556 76.0693 496.082 80.2741 496.082 95.5644C496.082 105.503 488.055 113.913 476.205 113.913C472.382 113.913 468.942 112.766 465.884 110.855C462.825 108.943 460.15 106.65 457.092 105.121C454.416 103.21 450.975 102.063 446.006 102.445C433.391 102.445 407.398 121.558 399.753 130.732L400.135 238.147C400.135 261.082 420.013 261.464 428.422 264.522C429.569 264.905 430.716 265.669 431.48 266.051C433.392 267.198 434.156 268.727 434.156 270.256C434.156 272.55 432.245 274.461 428.804 274.461H344.325C340.885 274.461 338.974 272.55 338.974 270.256C338.974 267.963 340.885 266.051 344.708 264.522C353.117 261.464 373.377 261.082 372.995 238.147L372.612 135.319V129.203C372.612 109.326 356.175 105.503 347.001 103.974C345.472 103.592 344.325 103.21 343.178 103.21C341.267 102.445 340.12 102.063 338.591 100.534C338.209 99.7693 337.827 99.0048 338.209 98.2402C338.591 96.7112 340.503 95.1822 343.943 94.4177L391.725 83.3322C396.695 82.5677 399.753 82.1854 399.753 88.3015Z" fill="var(--fill-0, #0C1B3B)"/>
<path id="Vector_7" d="M239.237 88.3015V112.766C253.763 100.152 285.49 78.3628 308.426 76.0693C321.04 76.0693 335.566 80.2741 335.566 95.5644C335.566 105.503 327.539 113.913 315.689 113.913C311.866 113.913 308.426 112.766 305.368 110.855C302.31 108.943 299.634 106.65 296.576 105.121C293.9 103.21 290.46 102.063 285.49 102.445C272.876 102.445 246.882 121.558 239.237 130.732L239.619 238.147C239.619 261.082 259.497 261.464 267.906 264.522C269.053 264.905 270.2 265.669 270.964 266.051C272.876 267.198 273.64 268.727 273.64 270.256C273.64 272.55 271.729 274.461 268.289 274.461H183.809C180.369 274.461 178.458 272.55 178.458 270.256C178.458 267.963 180.369 266.051 184.192 264.522C192.601 261.464 212.861 261.082 212.479 238.147L212.097 135.319V129.203C212.097 109.326 195.66 105.503 186.485 103.974C184.956 103.592 183.809 103.21 182.663 103.21C180.751 102.445 179.605 102.063 178.076 100.534C177.693 99.7693 177.311 99.0048 177.693 98.2402C178.076 96.7112 179.987 95.1822 183.427 94.4177L231.21 83.3322C236.179 82.5677 239.237 82.1854 239.237 88.3015Z" fill="var(--fill-0, #0C1B3B)"/>
<path id="Vector_8" d="M61.1614 120.793H103.21C135.32 120.793 141.436 107.414 144.494 98.6225C146.023 95.1822 147.934 92.8886 150.228 92.8886C152.521 92.8886 154.432 95.1822 154.432 98.6225V157.108C154.432 160.548 152.521 162.46 150.228 162.46C147.934 162.46 146.023 160.166 144.494 156.726C141.436 147.934 135.32 134.172 103.21 134.172C92.5066 134.172 64.6017 134.172 61.1614 134.172C61.1614 156.726 61.1614 223.621 61.1614 238.529C61.1614 255.73 74.9227 261.082 85.2436 261.082H114.295C145.641 261.082 157.873 246.174 167.047 218.269C168.194 215.976 170.105 214.829 171.634 214.829C173.545 214.829 175.457 216.358 175.074 219.034L172.781 270.638C172.781 273.697 170.105 274.461 168.194 274.461C130.732 274.461 27.9049 274.461 5.3516 274.461C1.91127 274.461 0 272.55 0 270.256C0 267.963 2.29355 266.051 5.73388 264.522C14.5258 261.464 34.4033 261.082 34.4033 238.147C34.021 194.569 34.4033 82.5676 34.4033 43.1951C34.021 20.2596 14.5258 19.8774 5.73388 16.4371C2.29355 15.2903 0 13.379 0 11.0855C0 8.40964 1.91127 6.88061 5.3516 6.88061C42.4307 6.88061 142.965 6.88061 168.194 6.88061C170.105 6.88061 172.781 7.64514 172.781 10.7032C172.781 16.0548 174.31 49.3112 175.074 62.308C175.457 64.9838 173.545 66.1306 171.634 66.1306C169.723 66.1306 168.194 65.366 167.047 63.0725C166.665 61.5435 165.9 59.2499 164.753 56.5741C154.815 30.9629 141.436 20.2596 114.295 20.2596C110.09 20.2596 91.742 20.2596 85.2436 20.2596C74.9227 20.2596 61.1614 25.229 61.1614 42.4306C61.1614 61.1612 61.1614 106.65 61.1614 120.793Z" fill="var(--fill-0, #0C1B3B)"/>
</g>
</svg>
