<svg width="18" height="18" overflow="visible" style="display: block;" viewBox="-3.94 -3.94 18 18" fill="none" xmlns="http://www.w3.org/2000/svg">
<path id="Vector" d="M9.96047 9.96047C9.90823 10.0128 9.84619 10.0543 9.7779 10.0826C9.70962 10.1109 9.63642 10.1254 9.5625 10.1254C9.48858 10.1254 9.41538 10.1109 9.3471 10.0826C9.27881 10.0543 9.21677 10.0128 9.16453 9.96047L1.125 1.92023V7.875C1.125 8.02418 1.06574 8.16726 0.960247 8.27275C0.854758 8.37824 0.711684 8.4375 0.5625 8.4375C0.413316 8.4375 0.270242 8.37824 0.164753 8.27275C0.0592633 8.16726 0 8.02418 0 7.875V0.5625C0 0.413316 0.0592633 0.270242 0.164753 0.164753C0.270242 0.0592633 0.413316 0 0.5625 0H7.875C8.02418 0 8.16726 0.0592633 8.27275 0.164753C8.37824 0.270242 8.4375 0.413316 8.4375 0.5625C8.4375 0.711684 8.37824 0.854758 8.27275 0.960247C8.16726 1.06574 8.02418 1.125 7.875 1.125H1.92023L9.96047 9.16453C10.0128 9.21677 10.0543 9.27881 10.0826 9.3471C10.1109 9.41538 10.1254 9.48858 10.1254 9.5625C10.1254 9.63642 10.1109 9.70962 10.0826 9.7779C10.0543 9.84619 10.0128 9.90823 9.96047 9.96047Z" fill="var(--fill-0, #0C1B3B)"/>
</svg>
