<svg width="400" height="78" overflow="visible" style="display: block;" viewBox="0 0 399.999 78.1505" fill="none" xmlns="http://www.w3.org/2000/svg">
<g id="Error 404" opacity="0.5">
<path id="Vector" d="M359.543 48.9505H383.009L382.903 11.7865L359.543 48.9505ZM390.336 0.42499L390.442 48.9505H396.707C397.344 48.9505 397.131 52.6669 396.707 52.6669H390.442C390.442 57.3389 390.442 62.5419 390.442 66.1521C390.442 72.5231 395.963 72.6292 398.406 73.4787C400.635 74.3282 400.423 76.2394 398.406 76.2394H375.045C373.983 76.2394 373.453 75.7085 373.453 75.0714C373.453 74.4343 374.09 73.9034 375.045 73.4787C377.487 72.6292 383.009 72.5231 383.009 66.1521C383.009 62.3295 383.009 57.1266 383.009 52.6669H354.658C353.703 52.6669 353.172 52.0298 353.703 50.968L385.77 0.531171C385.982 0.212627 387.363 0.106445 388.531 0.106445C389.486 0.106445 390.336 0.212627 390.336 0.42499Z" fill="var(--fill-0, #0C1B3B)"/>
<path id="Vector_2" d="M325.811 74.4341C351.401 74.4341 351.082 3.7164 325.705 3.7164C300.221 3.7164 300.221 74.4341 325.811 74.4341ZM326.023 0C361.488 0 360.851 78.1505 325.492 78.1505C289.921 78.1505 290.558 0 326.023 0Z" fill="var(--fill-0, #0C1B3B)"/>
<path id="Vector_3" d="M258.445 48.9505H281.911L281.805 11.7865L258.445 48.9505ZM289.238 0.42499L289.344 48.9505H295.609C296.246 48.9505 296.034 52.6669 295.609 52.6669H289.344C289.344 57.3389 289.344 62.5419 289.344 66.1521C289.344 72.5231 294.866 72.6292 297.308 73.4787C299.538 74.3282 299.325 76.2394 297.308 76.2394H273.948C272.886 76.2394 272.355 75.7085 272.355 75.0714C272.355 74.4343 272.992 73.9034 273.948 73.4787C276.39 72.6292 281.911 72.5231 281.911 66.1521C281.911 62.3295 281.911 57.1266 281.911 52.6669H253.561C252.605 52.6669 252.074 52.0298 252.605 50.968L284.672 0.531171C284.884 0.212627 286.265 0.106445 287.433 0.106445C288.389 0.106445 289.238 0.212627 289.238 0.42499Z" fill="var(--fill-0, #0C1B3B)"/>
<path id="Vector_4" d="M202.292 24.5287V31.3244C206.327 27.8204 215.14 21.768 221.511 21.1309C225.015 21.1309 229.05 22.2989 229.05 26.5462C229.05 29.3069 226.82 31.643 223.528 31.643C222.467 31.643 221.511 31.3244 220.661 30.7935C219.812 30.2626 219.069 29.6255 218.219 29.2007C217.476 28.6698 216.52 28.3513 215.14 28.4575C211.636 28.4575 204.415 33.7666 202.292 36.315L202.398 66.1523C202.398 72.5233 207.919 72.6295 210.255 73.4789C210.574 73.5851 210.893 73.7975 211.105 73.9037C211.636 74.2222 211.848 74.647 211.848 75.0717C211.848 75.7088 211.317 76.2397 210.362 76.2397H186.895C185.94 76.2397 185.409 75.7088 185.409 75.0717C185.409 74.4346 185.94 73.9037 187.001 73.4789C189.337 72.6295 194.965 72.5233 194.859 66.1523L194.753 37.5892V35.8903C194.753 30.3688 190.187 29.3069 187.639 28.8822C187.214 28.776 186.895 28.6698 186.577 28.6698C186.046 28.4575 185.727 28.3513 185.303 27.9266C185.196 27.7142 185.09 27.5018 185.196 27.2895C185.303 26.8647 185.833 26.44 186.789 26.2276L200.062 23.1483C201.442 22.936 202.292 22.8298 202.292 24.5287Z" fill="var(--fill-0, #0C1B3B)"/>
<path id="Vector_5" d="M159.461 74.4341C183.989 74.4341 184.095 24.9529 159.673 24.9529C134.826 24.9529 135.145 74.4341 159.461 74.4341ZM159.673 21.2365C194.289 21.2365 193.758 78.1505 159.248 78.1505C124.739 78.1505 125.27 21.2365 159.673 21.2365Z" fill="var(--fill-0, #0C1B3B)"/>
<path id="Vector_6" d="M111.042 24.5287V31.3244C115.077 27.8204 123.89 21.768 130.261 21.1309C133.765 21.1309 137.8 22.2989 137.8 26.5462C137.8 29.3069 135.57 31.643 132.278 31.643C131.217 31.643 130.261 31.3244 129.411 30.7935C128.562 30.2626 127.819 29.6255 126.969 29.2007C126.226 28.6698 125.27 28.3513 123.89 28.4575C120.386 28.4575 113.165 33.7666 111.042 36.315L111.148 66.1523C111.148 72.5233 116.669 72.6295 119.005 73.4789C119.324 73.5851 119.643 73.7975 119.855 73.9037C120.386 74.2222 120.598 74.647 120.598 75.0717C120.598 75.7088 120.067 76.2397 119.112 76.2397H95.6452C94.6896 76.2397 94.1587 75.7088 94.1587 75.0717C94.1587 74.4346 94.6896 73.9037 95.7514 73.4789C98.0875 72.6295 103.715 72.5233 103.609 66.1523L103.503 37.5892V35.8903C103.503 30.3688 98.9369 29.3069 96.3885 28.8822C95.9638 28.776 95.6452 28.6698 95.3267 28.6698C94.7958 28.4575 94.4772 28.3513 94.0525 27.9266C93.9463 27.7142 93.8401 27.5018 93.9463 27.2895C94.0525 26.8647 94.5834 26.44 95.5391 26.2276L108.812 23.1483C110.192 22.936 111.042 22.8298 111.042 24.5287Z" fill="var(--fill-0, #0C1B3B)"/>
<path id="Vector_7" d="M66.4558 24.5287V31.3244C70.4908 27.8204 79.304 21.768 85.6749 21.1309C89.179 21.1309 93.2139 22.2989 93.2139 26.5462C93.2139 29.3069 90.9841 31.643 87.6924 31.643C86.6306 31.643 85.6749 31.3244 84.8255 30.7935C83.976 30.2626 83.2327 29.6255 82.3833 29.2007C81.64 28.6698 80.6843 28.3513 79.304 28.4575C75.7999 28.4575 68.5795 33.7666 66.4558 36.315L66.562 66.1523C66.562 72.5233 72.0835 72.6295 74.4195 73.4789C74.7381 73.5851 75.0566 73.7975 75.269 73.9037C75.7999 74.2222 76.0123 74.647 76.0123 75.0717C76.0123 75.7088 75.4814 76.2397 74.5257 76.2397H51.0593C50.1037 76.2397 49.5728 75.7088 49.5728 75.0717C49.5728 74.4346 50.1037 73.9037 51.1655 73.4789C53.5015 72.6295 59.1292 72.5233 59.023 66.1523L58.9168 37.5892V35.8903C58.9168 30.3688 54.351 29.3069 51.8026 28.8822C51.3779 28.776 51.0593 28.6698 50.7408 28.6698C50.2098 28.4575 49.8913 28.3513 49.4666 27.9266C49.3604 27.7142 49.2542 27.5018 49.3604 27.2895C49.4666 26.8647 49.9975 26.44 50.9531 26.2276L64.226 23.1483C65.6064 22.936 66.4558 22.8298 66.4558 24.5287Z" fill="var(--fill-0, #0C1B3B)"/>
<path id="Vector_8" d="M16.9893 33.5537H28.6694C37.5887 33.5537 39.2877 29.8373 40.1371 27.3951C40.5619 26.4395 41.0928 25.8024 41.7299 25.8024C42.3669 25.8024 42.8979 26.4395 42.8979 27.3951V43.6411C42.8979 44.5967 42.3669 45.1277 41.7299 45.1277C41.0928 45.1277 40.5619 44.4906 40.1371 43.5349C39.2877 41.0927 37.5887 37.2701 28.6694 37.2701C25.6963 37.2701 17.9449 37.2701 16.9893 37.2701C16.9893 43.5349 16.9893 62.1169 16.9893 66.258C16.9893 71.0362 20.8118 72.5228 23.6788 72.5228H31.7487C40.4557 72.5228 43.8535 68.3817 46.4019 60.6303C46.7205 59.9932 47.2514 59.6747 47.6761 59.6747C48.207 59.6747 48.7379 60.0994 48.6317 60.8427L47.9947 75.1774C47.9947 76.0268 47.2514 76.2392 46.7205 76.2392C36.3145 76.2392 7.75134 76.2392 1.48655 76.2392C0.530908 76.2392 0 75.7083 0 75.0712C0 74.4341 0.637097 73.9032 1.59274 73.4784C4.03495 72.629 9.55646 72.5228 9.55646 66.1518C9.45027 54.047 9.55646 22.9355 9.55646 11.9987C9.45027 5.62769 4.03495 5.52151 1.59274 4.56586C0.637097 4.24731 0 3.7164 0 3.0793C0 2.33602 0.530908 1.91129 1.48655 1.91129C11.7863 1.91129 39.7124 1.91129 46.7205 1.91129C47.2514 1.91129 47.9947 2.12366 47.9947 2.97312C47.9947 4.45967 48.4194 13.6976 48.6317 17.3078C48.7379 18.0511 48.207 18.3696 47.6761 18.3696C47.1452 18.3696 46.7205 18.1572 46.4019 17.5201C46.2957 17.0954 46.0834 16.4583 45.7648 15.715C43.004 8.6008 39.2877 5.62769 31.7487 5.62769C30.5807 5.62769 25.4839 5.62769 23.6788 5.62769C20.8118 5.62769 16.9893 7.00806 16.9893 11.7863C16.9893 16.9892 16.9893 29.625 16.9893 33.5537Z" fill="var(--fill-0, #0C1B3B)"/>
</g>
</svg>
