<svg width="700" height="137" overflow="visible" style="display: block;" viewBox="0 0 700.001 136.763" fill="none" xmlns="http://www.w3.org/2000/svg">
<g id="Error 404" opacity="0.4">
<path id="Vector" d="M629.202 85.6626H670.268L670.082 20.6257L629.202 85.6626ZM683.089 0.742999L683.275 85.6626H694.239C695.354 85.6626 694.982 92.1663 694.239 92.1663H683.275C683.275 100.342 683.275 109.448 683.275 115.765C683.275 126.915 692.938 127.1 697.212 128.587C701.114 130.074 700.742 133.418 697.212 133.418H656.331C654.473 133.418 653.544 132.489 653.544 131.374C653.544 130.259 654.659 129.33 656.331 128.587C660.605 127.1 670.268 126.915 670.268 115.765C670.268 109.076 670.268 99.9707 670.268 92.1663H620.654C618.981 92.1663 618.052 91.0514 618.981 89.1932L675.099 0.928816C675.471 0.371364 677.886 0.185547 679.93 0.185547C681.603 0.185547 683.089 0.371365 683.089 0.742999Z" fill="var(--fill-0, #0C1B3B)"/>
<path id="Vector_2" d="M570.167 130.26C614.95 130.26 614.392 6.50369 569.981 6.50369C525.384 6.50369 525.384 130.26 570.167 130.26ZM570.538 0C632.602 0 631.488 136.763 569.609 136.763C507.36 136.763 508.475 0 570.538 0Z" fill="var(--fill-0, #0C1B3B)"/>
<path id="Vector_3" d="M452.276 85.6626H493.342L493.156 20.6257L452.276 85.6626ZM506.164 0.742999L506.349 85.6626H517.313C518.428 85.6626 518.056 92.1663 517.313 92.1663H506.349C506.349 100.342 506.349 109.448 506.349 115.765C506.349 126.915 516.012 127.1 520.286 128.587C524.188 130.074 523.817 133.418 520.286 133.418H479.405C477.547 133.418 476.618 132.489 476.618 131.374C476.618 130.259 477.733 129.33 479.405 128.587C483.679 127.1 493.342 126.915 493.342 115.765C493.342 109.076 493.342 99.9707 493.342 92.1663H443.728C442.056 92.1663 441.127 91.0514 442.056 89.1932L498.173 0.928816C498.545 0.371364 500.961 0.185547 503.005 0.185547C504.677 0.185547 506.164 0.371365 506.164 0.742999Z" fill="var(--fill-0, #0C1B3B)"/>
<path id="Vector_4" d="M354.014 42.9248V54.8172C361.075 48.6852 376.498 38.0934 387.647 36.9785C393.779 36.9785 400.84 39.0225 400.84 46.4553C400.84 51.2866 396.938 55.3747 391.178 55.3747C389.319 55.3747 387.647 54.8172 386.16 53.8881C384.674 52.959 383.373 51.8441 381.887 51.1008C380.586 50.1717 378.913 49.6143 376.498 49.8001C370.366 49.8001 357.73 59.0911 354.014 63.5507L354.199 115.766C354.199 126.915 363.862 127.101 367.95 128.588C368.508 128.773 369.065 129.145 369.437 129.331C370.366 129.888 370.737 130.632 370.737 131.375C370.737 132.49 369.808 133.419 368.136 133.419H327.07C325.397 133.419 324.468 132.49 324.468 131.375C324.468 130.26 325.397 129.331 327.255 128.588C331.343 127.101 341.192 126.915 341.006 115.766L340.82 65.7806V62.8075C340.82 53.1448 332.83 51.2866 328.37 50.5434C327.627 50.3575 327.07 50.1717 326.512 50.1717C325.583 49.8001 325.026 49.6143 324.282 48.871C324.097 48.4993 323.911 48.1277 324.096 47.7561C324.282 47.0128 325.211 46.2695 326.884 45.8979L350.111 40.5091C352.527 40.1375 354.014 39.9516 354.014 42.9248Z" fill="var(--fill-0, #0C1B3B)"/>
<path id="Vector_5" d="M279.058 130.26C321.983 130.26 322.169 43.6676 279.43 43.6676C235.948 43.6676 236.505 130.26 279.058 130.26ZM279.43 37.1639C340.007 37.1639 339.078 136.763 278.687 136.763C218.295 136.763 219.224 37.1639 279.43 37.1639Z" fill="var(--fill-0, #0C1B3B)"/>
<path id="Vector_6" d="M194.326 42.9248V54.8172C201.387 48.6852 216.81 38.0934 227.959 36.9785C234.092 36.9785 241.153 39.0225 241.153 46.4553C241.153 51.2866 237.251 55.3747 231.49 55.3747C229.632 55.3747 227.96 54.8172 226.473 53.8881C224.986 52.959 223.686 51.8441 222.199 51.1008C220.898 50.1717 219.226 49.6143 216.81 49.8001C210.678 49.8001 198.042 59.0911 194.326 63.5507L194.512 115.766C194.512 126.915 204.175 127.101 208.263 128.588C208.82 128.773 209.377 129.145 209.749 129.331C210.678 129.888 211.05 130.632 211.05 131.375C211.05 132.49 210.121 133.419 208.448 133.419H167.382C165.71 133.419 164.781 132.49 164.781 131.375C164.781 130.26 165.71 129.331 167.568 128.588C171.656 127.101 181.504 126.915 181.319 115.766L181.133 65.7806V62.8075C181.133 53.1448 173.143 51.2866 168.683 50.5434C167.94 50.3575 167.382 50.1717 166.825 50.1717C165.896 49.8001 165.338 49.6143 164.595 48.871C164.409 48.4993 164.223 48.1277 164.409 47.7561C164.595 47.0128 165.524 46.2695 167.196 45.8979L190.424 40.5091C192.839 40.1375 194.326 39.9516 194.326 42.9248Z" fill="var(--fill-0, #0C1B3B)"/>
<path id="Vector_7" d="M116.295 42.9248V54.8172C123.356 48.6852 138.779 38.0934 149.928 36.9785C156.06 36.9785 163.122 39.0225 163.122 46.4553C163.122 51.2866 159.219 55.3747 153.459 55.3747C151.601 55.3747 149.928 54.8172 148.442 53.8881C146.955 52.959 145.654 51.8441 144.168 51.1008C142.867 50.1717 141.195 49.6143 138.779 49.8001C132.647 49.8001 120.011 59.0911 116.295 63.5507L116.481 115.766C116.481 126.915 126.143 127.101 130.231 128.588C130.789 128.773 131.346 129.145 131.718 129.331C132.647 129.888 133.019 130.632 133.019 131.375C133.019 132.49 132.09 133.419 130.417 133.419H89.3509C87.6785 133.419 86.7494 132.49 86.7494 131.375C86.7494 130.26 87.6785 129.331 89.5367 128.588C93.6247 127.101 103.473 126.915 103.287 115.766L103.102 65.7806V62.8075C103.102 53.1448 95.1113 51.2866 90.6516 50.5434C89.9083 50.3575 89.3509 50.1717 88.7934 50.1717C87.8643 49.8001 87.3068 49.6143 86.5636 48.871C86.3777 48.4993 86.1919 48.1277 86.3778 47.7561C86.5636 47.0128 87.4927 46.2695 89.1651 45.8979L112.393 40.5091C114.808 40.1375 116.295 39.9516 116.295 42.9248Z" fill="var(--fill-0, #0C1B3B)"/>
<path id="Vector_8" d="M29.7312 58.719H50.1715C65.7803 58.719 68.7535 52.2153 70.24 47.9415C70.9833 46.2691 71.9124 45.1542 73.0273 45.1542C74.1422 45.1542 75.0713 46.2691 75.0713 47.9415V76.3719C75.0713 78.0443 74.1422 78.9734 73.0273 78.9734C71.9124 78.9734 70.9833 77.8585 70.24 76.1861C68.7535 71.9122 65.7803 65.2227 50.1715 65.2227C44.9685 65.2227 31.4036 65.2227 29.7312 65.2227C29.7312 76.1861 29.7312 108.705 29.7312 115.951C29.7312 124.313 36.4207 126.915 41.4379 126.915H55.5602C70.7975 126.915 76.7437 119.668 81.2034 106.103C81.7609 104.988 82.69 104.431 83.4333 104.431C84.3624 104.431 85.2915 105.174 85.1056 106.475L83.9907 131.56C83.9907 133.047 82.69 133.419 81.7609 133.419C63.5505 133.419 13.5649 133.419 2.60147 133.419C0.92909 133.419 0 132.489 0 131.375C0 130.26 1.11492 129.331 2.7873 128.587C7.06117 127.101 16.7238 126.915 16.7238 115.766C16.538 94.5822 16.7238 40.1371 16.7238 20.9976C16.538 9.84844 7.06117 9.66262 2.7873 7.99024C1.11492 7.43278 0 6.50368 0 5.38877C0 4.08802 0.92909 3.34474 2.60147 3.34474C20.626 3.34474 69.4968 3.34474 81.7609 3.34474C82.69 3.34474 83.9907 3.71639 83.9907 5.20294C83.9907 7.80441 84.734 23.9707 85.1056 30.2886C85.2915 31.5893 84.3624 32.1468 83.4333 32.1468C82.5042 32.1468 81.7609 31.7752 81.2034 30.6602C81.0176 29.917 80.6459 28.802 80.0885 27.5013C75.2572 15.0514 68.7535 9.84844 55.5602 9.84844C53.5162 9.84844 44.5968 9.84844 41.4379 9.84844C36.4207 9.84844 29.7312 12.2641 29.7312 20.626C29.7312 29.7311 29.7312 51.8437 29.7312 58.719Z" fill="var(--fill-0, #0C1B3B)"/>
</g>
</svg>
