<svg width="22" height="20" overflow="visible" style="display: block;" viewBox="0 0 22 20" fill="none" xmlns="http://www.w3.org/2000/svg">
<g id="React-icon 1" clip-path="url(#clip0_0_684)">
<path id="Vector" d="M11 12.0036C12.083 12.0036 12.9609 11.1065 12.9609 10C12.9609 8.89346 12.083 7.99643 11 7.99643C9.91704 7.99643 9.03913 8.89346 9.03913 10C9.03913 11.1065 9.91704 12.0036 11 12.0036Z" fill="var(--fill-0, #0C1B3B)"/>
<g id="Group">
<path id="Vector (Stroke)" d="M21.0435 10.0002C21.0435 9.61994 20.8478 9.20163 20.3747 8.76514C19.9014 8.32862 19.1893 7.91291 18.2692 7.55395C16.4323 6.83735 13.8624 6.3838 11 6.3838C8.1376 6.3838 5.56772 6.83735 3.73081 7.55395C2.8107 7.91291 2.09859 8.32862 1.62534 8.76514C1.15221 9.20163 0.956522 9.61994 0.956522 10.0002C0.956587 10.3804 1.15215 10.7988 1.62534 11.2352C2.09859 11.6718 2.8107 12.0875 3.73081 12.4464C5.56771 13.163 8.13767 13.6166 11 13.6166C13.8623 13.6166 16.4323 13.163 18.2692 12.4464C19.1893 12.0875 19.9014 11.6718 20.3747 11.2352C20.8479 10.7988 21.0434 10.3804 21.0435 10.0002ZM22 10.0002C21.9999 10.7533 21.607 11.415 21.0155 11.9606C20.4238 12.5063 19.5941 12.975 18.6101 13.3589C16.639 14.1278 13.9483 14.5939 11 14.5939C8.05165 14.5939 5.36103 14.1278 3.38986 13.3589C2.40591 12.975 1.57615 12.5063 0.984545 11.9606C0.393048 11.415 6.64716e-05 10.7533 0 10.0002C0 9.24706 0.393102 8.58536 0.984545 8.03976C1.57615 7.49408 2.40591 7.02442 3.38986 6.64055C5.36101 5.87163 8.05175 5.40645 11 5.40645C13.9483 5.40645 16.639 5.87163 18.6101 6.64055C19.5941 7.02442 20.4238 7.49408 21.0155 8.03976C21.6069 8.58536 22 9.24706 22 10.0002Z" fill="var(--fill-0, #0C1B3B)"/>
<path id="Vector (Stroke)_2" d="M16.0216 18.8874C16.3439 18.6973 16.6006 18.315 16.734 17.6781C16.8673 17.041 16.8636 16.203 16.7078 15.2094C16.3967 13.2256 15.4962 10.7248 14.065 8.1919C12.6338 5.65901 10.9644 3.61174 9.4386 2.34459C8.6743 1.70988 7.9659 1.2876 7.3593 1.08708C6.75278 0.886659 6.30039 0.922657 5.9781 1.11278C5.65584 1.30297 5.39906 1.68518 5.26572 2.32214C5.13236 2.95917 5.13608 3.79716 5.29188 4.79083C5.60299 6.77456 6.50353 9.27546 7.9347 11.8083C9.36587 14.3411 11.0353 16.3885 12.5611 17.6556C13.3254 18.2903 14.0338 18.7126 14.6404 18.9131C15.2469 19.1136 15.6993 19.0775 16.0216 18.8874ZM16.4998 19.7338C15.8615 20.1103 15.1041 20.0934 14.346 19.8428C13.5877 19.5922 12.7755 19.0923 11.9582 18.4135C10.3209 17.0538 8.5805 14.9059 7.10633 12.297C5.63215 9.68802 4.68189 7.07409 4.34805 4.94535C4.18143 3.88273 4.16381 2.91414 4.33051 2.1178C4.49719 1.3216 4.86154 0.642996 5.49984 0.266373C6.13817 -0.110191 6.89555 -0.0931913 7.65371 0.157367C8.41201 0.408027 9.22496 0.907435 10.0423 1.58618C11.6796 2.94597 13.4192 5.09436 14.8933 7.70323C16.3675 10.3121 17.3186 12.9257 17.6524 15.0544C17.8191 16.117 17.8359 17.0861 17.6692 17.8824C17.5025 18.6786 17.1382 19.3573 16.4998 19.7338Z" fill="var(--fill-0, #0C1B3B)"/>
<path id="Vector (Stroke)_3" d="M5.9781 18.8872C6.30039 19.0773 6.75278 19.1133 7.3593 18.9129C7.9659 18.7124 8.6743 18.2901 9.4386 17.6554C10.9644 16.3883 12.6338 14.341 14.065 11.8081C15.4962 9.27521 16.3967 6.77439 16.7078 4.79063C16.8636 3.79697 16.8673 2.95898 16.734 2.32194C16.6006 1.68503 16.3439 1.30272 16.0216 1.11259C15.6993 0.922524 15.2469 0.886412 14.6404 1.08689C14.0338 1.28741 13.3254 1.70969 12.5611 2.34439C11.0353 3.61155 9.36587 5.65888 7.9347 8.19171C6.50353 10.7245 5.60299 13.2254 5.29189 15.2092C5.13608 16.2028 5.13237 17.0408 5.26572 17.6779C5.39907 18.3148 5.65584 18.697 5.9781 18.8872ZM5.49984 19.7336C4.86154 19.357 4.49719 18.6784 4.33051 17.8822C4.16381 17.0859 4.18143 16.1173 4.34805 15.0547C4.68189 12.9259 5.63216 10.312 7.10633 7.70303C8.5805 5.09409 10.3209 2.94625 11.9582 1.58647C12.7755 0.90772 13.5877 0.407836 14.346 0.157175C15.1041 -0.0934372 15.8615 -0.110324 16.4998 0.266181C17.1382 0.642746 17.5025 1.32144 17.6692 2.1176C17.8359 2.91395 17.8191 3.88301 17.6524 4.94564C17.3186 7.07433 16.3675 9.68791 14.8934 12.2968C13.4192 14.9056 11.6796 17.054 10.0423 18.4138C9.22496 19.0926 8.41202 19.592 7.65371 19.8426C6.89555 20.0932 6.13817 20.1102 5.49984 19.7336Z" fill="var(--fill-0, #0C1B3B)"/>
</g>
</g>
<defs>
<clipPath id="clip0_0_684">
<rect width="22" height="20" fill="white"/>
</clipPath>
</defs>
</svg>
