<svg width="20.231" height="18" overflow="visible" style="display: block;" viewBox="0 0 20.2312 18" fill="none" xmlns="http://www.w3.org/2000/svg">
<g id="React-icon 1" clip-path="url(#clip0_0_140)">
<path id="Vector" d="M10.1156 10.8032C11.1115 10.8032 11.9188 9.99589 11.9188 9C11.9188 8.00411 11.1115 7.19679 10.1156 7.19679C9.1197 7.19679 8.31237 8.00411 8.31237 9C8.31237 9.99589 9.1197 10.8032 10.1156 10.8032Z" fill="var(--fill-0, #0C1B3B)"/>
<g id="Group">
<path id="Vector (Stroke)" d="M19.3515 9.00017C19.3515 8.65794 19.1716 8.28146 18.7365 7.88862C18.3013 7.49576 17.6464 7.12162 16.8003 6.79855C15.1111 6.15361 12.7478 5.74542 10.1156 5.74542C7.48332 5.74542 5.12006 6.15361 3.43084 6.79855C2.58472 7.12162 1.92986 7.49576 1.49466 7.88862C1.05957 8.28146 0.879616 8.65794 0.879616 9.00017C0.879676 9.3424 1.05951 9.71889 1.49466 10.1117C1.92986 10.5046 2.58472 10.8787 3.43084 11.2018C5.12006 11.8467 7.48338 12.2549 10.1156 12.2549C12.7478 12.2549 15.1111 11.8467 16.8003 11.2018C17.6464 10.8787 18.3013 10.5046 18.7365 10.1117C19.1716 9.71889 19.3515 9.3424 19.3515 9.00017ZM20.2312 9.00017C20.2311 9.67799 19.8697 10.2735 19.3258 10.7646C18.7817 11.2557 18.0187 11.6775 17.1139 12.023C15.3012 12.7151 12.8269 13.1345 10.1156 13.1345C7.40429 13.1345 4.93 12.7151 3.11731 12.023C2.21247 11.6775 1.44943 11.2557 0.905386 10.7646C0.361446 10.2735 6.11272e-05 9.67799 0 9.00017C0 8.32235 0.361496 7.72683 0.905386 7.23578C1.44943 6.74467 2.21247 6.32198 3.11731 5.97649C4.92998 5.28447 7.40437 4.8658 10.1156 4.8658C12.8268 4.8658 15.3012 5.28447 17.1139 5.97649C18.0187 6.32198 18.7817 6.74467 19.3258 7.23578C19.8697 7.72683 20.2312 8.32235 20.2312 9.00017Z" fill="var(--fill-0, #0C1B3B)"/>
<path id="Vector (Stroke)_2" d="M14.7334 16.9987C15.0298 16.8276 15.2659 16.4835 15.3885 15.9102C15.5112 15.3369 15.5077 14.5827 15.3645 13.6884C15.0784 11.9031 14.2503 9.65231 12.9341 7.37271C11.618 5.09311 10.0829 3.25056 8.67972 2.11013C7.97687 1.53889 7.32543 1.15884 6.7676 0.978376C6.20984 0.797993 5.79383 0.830391 5.49745 1.00151C5.2011 1.17267 4.96497 1.51666 4.84234 2.08992C4.71971 2.66325 4.72313 3.41744 4.86641 4.31174C5.1525 6.0971 5.98064 8.34791 7.29674 10.6275C8.61284 12.907 10.148 14.7496 11.5511 15.89C12.254 16.4613 12.9054 16.8413 13.4633 17.0218C14.021 17.2022 14.437 17.1697 14.7334 16.9987ZM15.1732 17.7604C14.5862 18.0993 13.8897 18.0841 13.1925 17.8585C12.4952 17.6329 11.7484 17.1831 10.9967 16.5722C9.49105 15.3484 7.89062 13.4153 6.53497 11.0673C5.17932 8.71922 4.30546 6.36668 3.99846 4.45081C3.84524 3.49445 3.82903 2.62272 3.98233 1.90602C4.13561 1.18944 4.47067 0.578696 5.05764 0.239736C5.64465 -0.0991724 6.34114 -0.0838723 7.03834 0.14163C7.73567 0.367224 8.48326 0.816691 9.23488 1.42757C10.7405 2.65137 12.3403 4.58493 13.6959 6.9329C15.0515 9.28088 15.9261 11.6331 16.2332 13.5489C16.3864 14.5053 16.4018 15.3774 16.2485 16.0942C16.0952 16.8107 15.7602 17.4215 15.1732 17.7604Z" fill="var(--fill-0, #0C1B3B)"/>
<path id="Vector (Stroke)_3" d="M5.49745 16.9985C5.79383 17.1696 6.20984 17.202 6.7676 17.0216C7.32543 16.8412 7.97687 16.4611 8.67972 15.8899C10.0829 14.7494 11.618 12.9069 12.9341 10.6273C14.2503 8.34769 15.0784 6.09695 15.3645 4.31157C15.5077 3.41727 15.5112 2.66308 15.3885 2.08975C15.2659 1.51653 15.0298 1.17245 14.7334 1.00133C14.437 0.830271 14.021 0.797771 13.4633 0.978203C12.9054 1.15867 12.254 1.53872 11.5511 2.10995C10.148 3.25039 8.61284 5.09299 7.29674 7.37254C5.98064 9.65209 5.1525 11.9029 4.86641 13.6883C4.72313 14.5826 4.71972 15.3367 4.84235 15.9101C4.96497 16.4833 5.2011 16.8273 5.49745 16.9985ZM5.05764 17.7603C4.47067 17.4213 4.13561 16.8106 3.98233 16.094C3.82904 15.3773 3.84524 14.5055 3.99846 13.5492C4.30546 11.6333 5.17932 9.28078 6.53497 6.93273C7.89062 4.58468 9.49105 2.65162 10.9967 1.42782C11.7484 0.816948 12.4952 0.367052 13.1925 0.141457C13.8897 -0.0840936 14.5862 -0.099292 15.1732 0.239563C15.7602 0.578471 16.0952 1.1893 16.2485 1.90584C16.4018 2.62255 16.3864 3.49471 16.2332 4.45107C15.9261 6.3669 15.0515 8.71912 13.6959 11.0671C12.3403 13.4151 10.7405 15.3486 9.23488 16.5724C8.48326 17.1833 7.73568 17.6328 7.03834 17.8584C6.34114 18.0839 5.64465 18.0992 5.05764 17.7603Z" fill="var(--fill-0, #0C1B3B)"/>
</g>
</g>
<defs>
<clipPath id="clip0_0_140">
<rect width="20.2312" height="18" fill="white"/>
</clipPath>
</defs>
</svg>
