<svg width="20" height="20" overflow="visible" style="display: block;" viewBox="0 0 20.0203 20.0173" fill="none" xmlns="http://www.w3.org/2000/svg">
<g id="logos">
<path id="Vector" d="M18.2292 1.17112C17.9512 1.83856 17.5915 2.46883 17.1582 3.04741C16.2304 2.08666 15.1196 1.32195 13.8915 0.798517C12.6633 0.275085 11.3427 0.0035692 10.0079 3.49534e-05C8.67302 -0.00349929 7.35103 0.26102 6.12011 0.777941C4.88919 1.29486 3.77435 2.05368 2.84156 3.00951C1.90877 3.96533 1.17697 5.09873 0.689471 6.34266C0.20197 7.58658 -0.03133 8.91575 0.00337417 10.2515C0.0380784 11.5873 0.340082 12.9025 0.891516 14.1194C1.44295 15.3363 2.23261 16.4301 3.21377 17.3361L3.58453 17.666C4.99147 18.8538 6.69939 19.6286 8.51912 19.9046C10.3389 20.1806 12.1994 19.9471 13.8947 19.2298C15.59 18.5126 17.054 17.3396 18.1244 15.8408C19.1948 14.3421 19.8299 12.576 19.9594 10.7381C20.2478 8.22267 19.4857 5.00618 18.2292 1.17112ZM4.65559 17.4185C4.54969 17.5488 4.40758 17.6447 4.24723 17.6942C4.08689 17.7437 3.91549 17.7444 3.75472 17.6964C3.59394 17.6484 3.45099 17.5537 3.34394 17.4244C3.23688 17.295 3.17053 17.1368 3.15327 16.9698C3.136 16.8027 3.1686 16.6343 3.24694 16.4857C3.32528 16.3372 3.44584 16.2153 3.59339 16.1353C3.74095 16.0554 3.90886 16.021 4.07593 16.0365C4.24299 16.0521 4.4017 16.1169 4.532 16.2227C4.70281 16.3675 4.81106 16.5728 4.83409 16.7957C4.85713 17.0186 4.79317 17.2418 4.65559 17.4185ZM18.1674 14.4289C15.7163 17.7072 10.4434 16.5938 7.08607 16.7588C7.08607 16.7588 6.48875 16.8 5.89143 16.8825C5.89143 16.8825 6.118 16.7794 6.40636 16.6763C8.77505 15.8515 9.88731 15.6866 11.3291 14.9443C14.0274 13.5629 16.7256 10.5319 17.2611 7.39793C16.2313 10.4082 13.1005 13.0062 10.2581 14.0577C8.30131 14.7794 4.77917 15.4804 4.77917 15.4804L4.63499 15.3979C2.2457 14.2227 2.16331 9.02679 6.52994 7.35669C8.44549 6.61442 10.2581 7.02679 12.3384 6.53195C14.5423 6.01649 17.0964 4.367 18.1262 2.20205C19.2797 5.68659 20.6803 11.0886 18.1674 14.4289Z" fill="var(--fill-0, #0C1B3B)"/>
</g>
</svg>
