<svg width="30.066" height="18" overflow="visible" style="display: block;" viewBox="0 0 29.7367 17.7824" fill="none" xmlns="http://www.w3.org/2000/svg">
<g id="Group">
<path id="Vector" d="M8.38009 6.45824C8.38009 6.82418 8.41965 7.12088 8.48888 7.33846C8.568 7.55604 8.6669 7.79341 8.80536 8.05055C8.85481 8.12967 8.87459 8.20879 8.87459 8.27802C8.87459 8.37692 8.81525 8.47582 8.68668 8.57472L8.06361 8.99011C7.97459 9.04945 7.88558 9.07912 7.80646 9.07912C7.70756 9.07912 7.60866 9.02967 7.50976 8.94066C7.3713 8.79231 7.25262 8.63407 7.15372 8.47582C7.05481 8.30769 6.95591 8.11978 6.84712 7.89231C6.07569 8.8022 5.10646 9.25714 3.93943 9.25714C3.10866 9.25714 2.44602 9.01978 1.96141 8.54505C1.47679 8.07033 1.22954 7.43736 1.22954 6.64615C1.22954 5.80549 1.52624 5.12308 2.12954 4.60879C2.73284 4.09451 3.53394 3.83736 4.55262 3.83736C4.88888 3.83736 5.23503 3.86703 5.60097 3.91648C5.9669 3.96593 6.34273 4.04505 6.73833 4.13407V3.41209C6.73833 2.66044 6.58009 2.13626 6.2735 1.82967C5.95701 1.52308 5.42295 1.37473 4.66141 1.37473C4.31525 1.37473 3.95921 1.41429 3.59328 1.5033C3.22734 1.59231 2.8713 1.7011 2.52514 1.83956C2.3669 1.90879 2.24822 1.94835 2.17899 1.96813C2.10976 1.98791 2.06031 1.9978 2.02075 1.9978C1.88229 1.9978 1.81306 1.8989 1.81306 1.69121V1.20659C1.81306 1.04835 1.83284 0.92967 1.88229 0.860439C1.93174 0.791209 2.02075 0.721978 2.15921 0.652747C2.50536 0.474725 2.92075 0.326374 3.40536 0.207692C3.88998 0.0791209 4.40426 0.0197802 4.94822 0.0197802C6.12514 0.0197802 6.98558 0.286813 7.53943 0.820879C8.08339 1.35494 8.36031 2.16593 8.36031 3.25385V6.45824H8.38009ZM4.3647 7.96154C4.69108 7.96154 5.02734 7.9022 5.38339 7.78352C5.73943 7.66483 6.05591 7.44725 6.32295 7.15055C6.48119 6.96264 6.59987 6.75494 6.65921 6.51758C6.71855 6.28022 6.75811 5.99341 6.75811 5.65714V5.24176C6.4713 5.17253 6.1647 5.11319 5.84822 5.07363C5.53174 5.03407 5.22514 5.01429 4.91855 5.01429C4.25591 5.01429 3.7713 5.14286 3.44492 5.40989C3.11855 5.67692 2.96031 6.05275 2.96031 6.54725C2.96031 7.01209 3.07899 7.35824 3.32624 7.5956C3.56361 7.84286 3.90976 7.96154 4.3647 7.96154ZM12.3065 9.02967C12.1284 9.02967 12.0098 9 11.9306 8.93077C11.8515 8.87143 11.7823 8.73297 11.7229 8.54505L9.39877 0.9C9.33943 0.702198 9.30976 0.573626 9.30976 0.504396C9.30976 0.346154 9.38888 0.257143 9.54712 0.257143H10.5164C10.7043 0.257143 10.8328 0.286813 10.9021 0.356044C10.9812 0.415385 11.0405 0.553846 11.0999 0.741758L12.7614 7.28901L14.3043 0.741758C14.3537 0.543956 14.4131 0.415385 14.4922 0.356044C14.5713 0.296703 14.7098 0.257143 14.8878 0.257143H15.679C15.8669 0.257143 15.9955 0.286813 16.0746 0.356044C16.1537 0.415385 16.2229 0.553846 16.2625 0.741758L17.8251 7.36813L19.5361 0.741758C19.5955 0.543956 19.6647 0.415385 19.7339 0.356044C19.8131 0.296703 19.9416 0.257143 20.1196 0.257143H21.0394C21.1977 0.257143 21.2867 0.336264 21.2867 0.504396C21.2867 0.553846 21.2768 0.603297 21.2669 0.662637C21.257 0.721978 21.2372 0.801099 21.1977 0.90989L18.8142 8.55494C18.7548 8.75275 18.6856 8.88132 18.6065 8.94066C18.5273 9 18.3988 9.03956 18.2306 9.03956H17.3801C17.1922 9.03956 17.0636 9.00989 16.9845 8.94066C16.9054 8.87143 16.8361 8.74286 16.7966 8.54505L15.2636 2.16593L13.7405 8.53516C13.6911 8.73297 13.6317 8.86154 13.5526 8.93077C13.4735 9 13.335 9.02967 13.157 9.02967H12.3065ZM25.0153 9.2967C24.501 9.2967 23.9867 9.23736 23.4922 9.11868C22.9977 9 22.612 8.87143 22.3548 8.72308C22.1966 8.63407 22.0878 8.53516 22.0482 8.44615C22.0087 8.35714 21.9889 8.25824 21.9889 8.16923V7.66483C21.9889 7.45714 22.068 7.35824 22.2164 7.35824C22.2757 7.35824 22.335 7.36813 22.3944 7.38791C22.4537 7.40769 22.5427 7.44725 22.6416 7.48681C22.9779 7.63516 23.3438 7.75385 23.7295 7.83297C24.1251 7.91209 24.5109 7.95165 24.9065 7.95165C25.5295 7.95165 26.0142 7.84286 26.3504 7.62527C26.6867 7.40769 26.8647 7.09121 26.8647 6.68571C26.8647 6.40879 26.7757 6.18132 26.5977 5.99341C26.4196 5.80549 26.0834 5.63736 25.5988 5.47912L24.1647 5.03407C23.4427 4.80659 22.9087 4.47033 22.5823 4.02527C22.2559 3.59011 22.0878 3.10549 22.0878 2.59121C22.0878 2.17582 22.1768 1.80989 22.3548 1.49341C22.5328 1.17692 22.7702 0.9 23.0669 0.682417C23.3636 0.454945 23.6999 0.286813 24.0955 0.168132C24.4911 0.0494505 24.9065 0 25.3416 0C25.5592 0 25.7867 0.00989011 26.0043 0.0395604C26.2317 0.0692308 26.4394 0.108791 26.6471 0.148352C26.8449 0.197802 27.0328 0.247253 27.2109 0.306593C27.3889 0.365934 27.5273 0.425275 27.6262 0.484615C27.7647 0.563736 27.8636 0.642857 27.9229 0.731868C27.9823 0.810989 28.012 0.91978 28.012 1.05824V1.52308C28.012 1.73077 27.9328 1.83956 27.7845 1.83956C27.7054 1.83956 27.5768 1.8 27.4087 1.72088C26.8449 1.46374 26.212 1.33516 25.5098 1.33516C24.946 1.33516 24.501 1.42418 24.1944 1.61209C23.8878 1.8 23.7295 2.08681 23.7295 2.49231C23.7295 2.76923 23.8284 3.00659 24.0262 3.19451C24.224 3.38242 24.59 3.57033 25.1142 3.73846L26.5185 4.18352C27.2306 4.41099 27.7449 4.72747 28.0515 5.13297C28.3581 5.53846 28.5065 6.0033 28.5065 6.51758C28.5065 6.94286 28.4174 7.32857 28.2493 7.66483C28.0713 8.0011 27.8339 8.2978 27.5273 8.53516C27.2207 8.78242 26.8548 8.96044 26.4295 9.08901C25.9845 9.22747 25.5196 9.2967 25.0153 9.2967Z" fill="var(--fill-0, #0C1B3B)"/>
<g id="Group_2">
<path id="Vector_2" fill-rule="evenodd" clip-rule="evenodd" d="M26.8845 14.1033C23.6306 16.5066 18.9032 17.7824 14.8383 17.7824C9.14163 17.7824 4.00866 15.6758 0.131738 12.1747C-0.174855 11.8978 0.102068 11.522 0.468002 11.7396C4.66141 14.1725 9.83393 15.6462 15.1845 15.6462C18.7944 15.6462 22.7603 14.8945 26.4098 13.3516C26.9537 13.1044 27.4185 13.7077 26.8845 14.1033Z" fill="var(--fill-0, #0C1B3B)"/>
<path id="Vector_3" fill-rule="evenodd" clip-rule="evenodd" d="M28.2394 12.5604C27.824 12.0264 25.49 12.3033 24.4317 12.4319C24.1152 12.4714 24.0658 12.1945 24.3526 11.9868C26.2119 10.6813 29.268 11.0571 29.624 11.4923C29.9801 11.9374 29.5251 14.9934 27.7845 16.4571C27.5174 16.6846 27.2603 16.5659 27.379 16.2692C27.7746 15.2901 28.6548 13.0846 28.2394 12.5604Z" fill="var(--fill-0, #0C1B3B)"/>
</g>
</g>
</svg>
