<svg width="18.019" height="18" overflow="visible" style="display: block;" viewBox="0 0 18.0368 18.0155" fill="none" xmlns="http://www.w3.org/2000/svg">
<g id="logos">
<path id="Vector" d="M16.4232 1.05401C16.1728 1.65471 15.8486 2.22194 15.4583 2.74267C14.6224 1.878 13.6217 1.18975 12.5152 0.718666C11.4087 0.247577 10.219 0.00321228 9.01636 3.14581e-05C7.81377 -0.00314936 6.62275 0.234918 5.51378 0.700147C4.40481 1.16538 3.40042 1.84832 2.56004 2.70856C1.71966 3.5688 1.06037 4.58886 0.621164 5.70839C0.181961 6.82792 -0.0282261 8.02418 0.00303988 9.22637C0.0343059 10.4286 0.306389 11.6123 0.803191 12.7075C1.29999 13.8027 2.01142 14.7871 2.89538 15.6025L3.2294 15.8994C4.49696 16.9684 6.03566 17.6657 7.67512 17.9141C9.31457 18.1626 10.9908 17.9524 12.5181 17.3068C14.0455 16.6613 15.3644 15.6057 16.3287 14.2568C17.2931 12.9079 17.8653 11.3184 17.982 9.66432C18.2418 7.4004 17.5552 4.50556 16.4232 1.05401ZM4.19435 15.6767C4.09894 15.7939 3.97091 15.8803 3.82645 15.9248C3.68199 15.9693 3.52758 15.97 3.38273 15.9267C3.23788 15.8835 3.10909 15.7983 3.01265 15.6819C2.9162 15.5655 2.85642 15.4232 2.84087 15.2728C2.82531 15.1224 2.85468 14.9708 2.92526 14.8372C2.99583 14.7035 3.10445 14.5937 3.23739 14.5218C3.37032 14.4498 3.5216 14.4189 3.67212 14.4329C3.82263 14.4469 3.96562 14.5052 4.08301 14.6004C4.2369 14.7307 4.33442 14.9155 4.35517 15.1161C4.37592 15.3168 4.3183 15.5176 4.19435 15.6767ZM16.3675 12.986C14.1593 15.9365 9.40878 14.9344 6.38404 15.0829C6.38404 15.0829 5.84589 15.12 5.30775 15.1942C5.30775 15.1942 5.51187 15.1014 5.77167 15.0086C7.90569 14.2664 8.90775 14.1179 10.2067 13.4499C12.6376 12.2066 15.0686 9.47875 15.551 6.65813C14.6232 9.36741 11.8026 11.7056 9.24177 12.6519C7.47888 13.3014 4.30569 13.9324 4.30569 13.9324L4.17579 13.8581C2.02321 12.8004 1.94899 8.12411 5.88301 6.62102C7.60878 5.95298 9.24177 6.32411 11.116 5.87875C13.1016 5.41484 15.4026 3.9303 16.3304 1.98185C17.3696 5.11793 18.6315 9.97978 16.3675 12.986Z" fill="var(--fill-0, #0C1B3B)"/>
</g>
</svg>
