<svg width="30.427" height="24" overflow="visible" style="display: block;" viewBox="0 0 30.4272 24" fill="none" xmlns="http://www.w3.org/2000/svg">
<g id="docker">
<path id="Vector" d="M29.9323 9.86062C29.1862 9.35873 27.2262 9.1444 25.8014 9.52828C25.7249 8.10987 24.9924 6.91437 23.6536 5.87125L23.1582 5.53891L22.8279 6.03764C22.1786 7.02244 21.9049 8.33504 22.0017 9.52828C22.0782 10.2635 22.3338 11.0896 22.8279 11.6891C20.9733 12.7644 19.2635 12.5202 11.6921 12.5202H0.00258823C-0.0313456 14.2289 0.243292 17.5152 2.33452 20.1906C2.56573 20.4863 2.81865 20.772 3.09374 21.0474C4.79405 22.7489 7.36307 23.9968 11.2044 24C17.065 24.0054 22.0858 20.8394 25.1404 13.1853C26.1452 13.2016 28.7984 13.3653 30.097 10.8581C30.1286 10.816 30.4272 10.1934 30.4272 10.1934L29.9323 9.86107V9.86062ZM7.63138 8.29842H4.34431V11.5833H7.63138V8.29842ZM11.8776 8.29842H8.59057V11.5833H11.8776V8.29842ZM16.1243 8.29842H12.8373V11.5833H16.1243V8.29842ZM20.3711 8.29842H17.084V11.5833H20.3711V8.29842ZM3.38466 8.29842H0.0976031V11.5833H3.38466V8.29842ZM7.63138 4.14944H4.34431V7.43435H7.63138V4.14944ZM11.8776 4.14944H8.59057V7.43435H11.8776V4.14944ZM16.1243 4.14944H12.8373V7.43435H16.1243V4.14944ZM16.1243 0H12.8373V3.28491H16.1243V0Z" fill="var(--fill-0, #0C1B3B)"/>
</g>
</svg>
